<svg width="60" height="60" viewBox="0 0 60 60" fill="none" xmlns="http://www.w3.org/2000/svg">
<circle cx="30" cy="30" r="30" fill="white"/>
<path fill-rule="evenodd" clip-rule="evenodd" d="M23.0972 41.6882V23.1142H16.9235V41.6882H23.0972ZM20.0104 20.5782C22.1632 20.5782 23.5032 19.1519 23.5032 17.3695C23.4631 15.5469 22.1632 14.1602 20.0512 14.1602C17.9394 14.1602 16.5586 15.5469 16.5586 17.3695C16.5586 19.1519 17.8983 20.5782 19.9701 20.5782H20.0102H20.0104Z" fill="black"/>
<path fill-rule="evenodd" clip-rule="evenodd" d="M26.5117 41.6882H32.6853V31.3157C32.6853 30.7606 32.7255 30.206 32.8885 29.8092C33.3348 28.7 34.3506 27.5513 36.0561 27.5513C38.29 27.5513 39.1837 29.2546 39.1837 31.7515V41.6882H45.3568V31.0381C45.3568 25.333 42.3111 22.6783 38.2493 22.6783C34.9187 22.6783 33.4566 24.5399 32.6443 25.8079H32.6855V23.1142H26.5119C26.5929 24.857 26.5117 41.6882 26.5117 41.6882Z" fill="black"/>
</svg>
