<svg width="60" height="60" viewBox="0 0 60 60" fill="none" xmlns="http://www.w3.org/2000/svg">
<circle cx="30" cy="30" r="30" fill="white"/>
<path fill-rule="evenodd" clip-rule="evenodd" d="M29.9781 42.9599C37.2561 42.9599 43.1561 37.0599 43.1561 29.7819C43.1561 22.504 37.2561 16.604 29.9781 16.604C22.7001 16.604 16.8002 22.504 16.8002 29.7819C16.8002 37.0599 22.7001 42.9599 29.9781 42.9599ZM29.9766 38.2436C34.6499 38.2436 38.4383 34.4552 38.4383 29.782C38.4383 25.1087 34.6499 21.3203 29.9766 21.3203C25.3034 21.3203 21.515 25.1087 21.515 29.782C21.515 34.4552 25.3034 38.2436 29.9766 38.2436Z" fill="black"/>
<circle cx="43.7112" cy="16.0491" r="3.32917" fill="black"/>
</svg>
