<svg width="60" height="60" viewBox="0 0 60 60" fill="none" xmlns="http://www.w3.org/2000/svg">
<circle cx="30" cy="30" r="29" stroke="#FFCC33" stroke-width="2"/>
<path fill-rule="evenodd" clip-rule="evenodd" d="M29.9782 42.9599C37.2562 42.9599 43.1562 37.0599 43.1562 29.7819C43.1562 22.504 37.2562 16.604 29.9782 16.604C22.7003 16.604 16.8003 22.504 16.8003 29.7819C16.8003 37.0599 22.7003 42.9599 29.9782 42.9599ZM29.9768 38.2436C34.65 38.2436 38.4384 34.4552 38.4384 29.782C38.4384 25.1087 34.65 21.3203 29.9768 21.3203C25.3035 21.3203 21.5151 25.1087 21.5151 29.782C21.5151 34.4552 25.3035 38.2436 29.9768 38.2436Z" fill="#FFCC33"/>
<circle cx="43.7115" cy="16.0491" r="3.32917" fill="#FFCC33"/>
</svg>
