<svg width="305" height="73" viewBox="0 0 305 73" fill="none" xmlns="http://www.w3.org/2000/svg">
<path fill-rule="evenodd" clip-rule="evenodd" d="M29.5128 65.3555C26.7165 69.9329 21.6736 72.9845 15.9188 72.9845C7.12741 72.9845 0 65.8571 0 57.0658C0 48.2744 7.12741 41.147 15.9188 41.147C21.6736 41.147 26.7165 44.2016 29.5128 48.776L24.8964 51.5903C23.0492 48.5687 19.7213 46.5504 15.9188 46.5504C10.1129 46.5504 5.40638 51.2569 5.40638 57.0628C5.40638 62.8686 10.1129 67.5752 15.9188 67.5752C19.7183 67.5752 23.0492 65.5568 24.8964 62.5352L29.5128 65.3555Z" fill="white"/>
<path fill-rule="evenodd" clip-rule="evenodd" d="M209.485 42.051H214.891V54.3656H231.111V42.051H236.517V54.3656V59.7719V72.0865H231.111V59.7719H214.891V72.0865H209.485V59.7719V54.3656V42.051Z" fill="white"/>
<path d="M92.3478 42.051H86.9414V72.0865H92.3478V42.051Z" fill="white"/>
<path d="M92.348 42.051H76.1289V47.4574H92.348V42.051Z" fill="white"/>
<path fill-rule="evenodd" clip-rule="evenodd" d="M48.435 41.1499C39.6436 41.1499 32.5162 48.2773 32.5162 57.0687C32.5162 65.8601 39.6436 72.9875 48.435 72.9875C57.2263 72.9875 64.3537 65.8601 64.3537 57.0687C64.3537 48.2773 57.2263 41.1499 48.435 41.1499ZM48.435 67.5811C42.6291 67.5811 37.9226 62.8745 37.9226 57.0687C37.9226 51.2628 42.6291 46.5563 48.435 46.5563C54.2408 46.5563 58.9474 51.2628 58.9474 57.0687C58.9474 62.8745 54.2408 67.5811 48.435 67.5811Z" fill="white"/>
<path fill-rule="evenodd" clip-rule="evenodd" d="M113.072 41.1499C104.28 41.1499 97.1528 48.2773 97.1528 57.0687C97.1528 65.8601 104.28 72.9875 113.072 72.9875C121.863 72.9875 128.99 65.8601 128.99 57.0687C128.99 48.2773 121.863 41.1499 113.072 41.1499ZM113.072 67.5811C107.266 67.5811 102.559 62.8745 102.559 57.0687C102.559 51.2628 107.266 46.5563 113.072 46.5563C118.877 46.5563 123.584 51.2628 123.584 57.0687C123.584 62.8745 118.877 67.5811 113.072 67.5811Z" fill="white"/>
<path fill-rule="evenodd" clip-rule="evenodd" d="M188.763 41.1499C179.971 41.1499 172.844 48.2773 172.844 57.0687C172.844 65.8601 179.971 72.9875 188.763 72.9875C197.554 72.9875 204.681 65.8601 204.681 57.0687C204.681 48.2773 197.554 41.1499 188.763 41.1499ZM188.763 67.5811C182.957 67.5811 178.25 62.8745 178.25 57.0687C178.25 51.2628 182.957 46.5563 188.763 46.5563C194.568 46.5563 199.275 51.2628 199.275 57.0687C199.275 62.8745 194.568 67.5811 188.763 67.5811Z" fill="white"/>
<path fill-rule="evenodd" clip-rule="evenodd" d="M257.243 41.1499C248.452 41.1499 241.324 48.2773 241.324 57.0687C241.324 65.8601 248.452 72.9875 257.243 72.9875C266.034 72.9875 273.162 65.8601 273.162 57.0687C273.162 48.2773 266.034 41.1499 257.243 41.1499ZM257.243 67.5811C251.437 67.5811 246.731 62.8745 246.731 57.0687C246.731 51.2628 251.437 46.5563 257.243 46.5563C263.049 46.5563 267.755 51.2628 267.755 57.0687C267.755 62.8745 263.049 67.5811 257.243 67.5811Z" fill="white"/>
<path d="M139.202 42.051H133.796V72.0865H139.202V42.051Z" fill="white"/>
<path fill-rule="evenodd" clip-rule="evenodd" d="M148.211 66.6802H150.914H153.617V72.0866H150.914H148.211V66.6802Z" fill="white"/>
<path d="M168.035 42.051H162.629V72.0865H168.035V42.051Z" fill="white"/>
<path d="M141.906 42.051H136.5V47.4574H141.906V42.051Z" fill="white"/>
<path d="M165.333 42.051H159.926V47.4574H165.333V42.051Z" fill="white"/>
<path fill-rule="evenodd" clip-rule="evenodd" d="M152.894 72.0865L141.904 42.051L136.828 43.9072L147.136 72.0865H152.894Z" fill="white"/>
<path fill-rule="evenodd" clip-rule="evenodd" d="M148.941 72.0865L159.928 42.051L165.007 43.9072L154.696 72.0865H148.941Z" fill="white"/>
<path d="M283.371 42.051H277.965V72.0865H283.371V42.051Z" fill="white"/>
<path d="M296.137 59.7706V54.3643H277.965V59.7706H296.137Z" fill="white"/>
<path d="M294.937 47.4559V42.0496H277.966V47.4559H294.937Z" fill="white"/>
<path d="M296.137 72.0851V66.6787H277.965V72.0851H296.137Z" fill="white"/>
<path fill-rule="evenodd" clip-rule="evenodd" d="M296.137 54.3655C292.47 54.3655 289.322 56.5941 287.977 59.7719H296.137C298.045 59.7719 299.591 61.3187 299.591 63.2259C299.591 65.1332 298.045 66.68 296.137 66.68H287.977C289.322 69.8578 292.47 72.0864 296.137 72.0864C301.03 72.0864 304.998 68.1187 304.998 63.2259C304.998 58.3332 301.033 54.3655 296.137 54.3655Z" fill="white"/>
<path fill-rule="evenodd" clip-rule="evenodd" d="M294.934 42.051C291.267 42.051 288.119 44.2797 286.773 47.4574H294.934C296.841 47.4574 298.388 49.0042 298.388 50.9115C298.388 52.8187 296.841 54.3656 294.934 54.3656H286.773C288.119 57.5433 291.267 59.7719 294.934 59.7719C299.827 59.7719 303.795 55.8043 303.795 50.9115C303.795 46.0187 299.83 42.051 294.934 42.051Z" fill="white"/>
<path fill-rule="evenodd" clip-rule="evenodd" d="M76.1263 42.051L64.9531 72.0865H70.7199L81.8961 42.051H76.1263Z" fill="white"/>
<path fill-rule="evenodd" clip-rule="evenodd" d="M157.823 0.00146484V5.40785H76.2111V12.316H153.618V17.7224H76.2111V24.6305H157.823V30.0369H76.2111H70.8047V24.6305V17.7224V12.316V5.40785V0.00146484H76.2111H157.823Z" fill="white"/>
<path fill-rule="evenodd" clip-rule="evenodd" d="M163.231 0.00146484H168.637V12.316H214.892V0.00146484H220.298V12.316V17.7224V30.0369H214.892V17.7224H168.637V30.0369H163.231V17.7224V12.316V0.00146484Z" fill="white"/>
<path d="M30.1483 30.0361L35.5547 30.0361L35.5547 0.000680923L30.1483 0.000680923L30.1483 30.0361Z" fill="white"/>
<path fill-rule="evenodd" clip-rule="evenodd" d="M59.0246 17.7224L65.6174 0.00146484H59.8506L53.2578 17.7224H59.0246Z" fill="white"/>
<path fill-rule="evenodd" clip-rule="evenodd" d="M59.0246 12.3159L65.6174 30.0368H59.8506L53.2578 12.3159H59.0246Z" fill="white"/>
<path d="M11.3555 12.3153L11.3555 17.7217L39.1563 17.7217L39.1563 12.3153L11.3555 12.3153Z" fill="white"/>
<path d="M26.5435 12.3165L26.5435 17.7229L54.2602 17.7229L54.2602 12.3165L26.5435 12.3165Z" fill="white"/>
<path fill-rule="evenodd" clip-rule="evenodd" d="M6.59278 12.3159L0 30.0368H5.76981L12.3626 12.3159H6.59278Z" fill="white"/>
<path fill-rule="evenodd" clip-rule="evenodd" d="M6.59309 17.7241L0.000305176 0.00317383H5.77011L12.3629 17.7241H6.59309Z" fill="white"/>
<path d="M299.594 30.0361L305 30.0361L305 0.000680923L299.594 0.000680923L299.594 30.0361Z" fill="white"/>
<path d="M299.593 20.4242L299.593 15.0178L235.617 15.0178L235.617 20.4242L299.593 20.4242Z" fill="white"/>
<path d="M299.593 5.40638L299.593 0L235.617 -1.01243e-08L235.617 5.40638L299.593 5.40638Z" fill="white"/>
<path fill-rule="evenodd" clip-rule="evenodd" d="M235.614 15.0192C232.959 15.0192 230.809 12.8687 230.809 10.2135C230.809 7.55838 232.959 5.40785 235.614 5.40785H244.625C242.907 2.19105 239.516 0.00146484 235.614 0.00146484C229.974 0.00146484 225.402 4.57286 225.402 10.2135C225.402 15.8542 229.974 20.4256 235.614 20.4256C239.516 20.4256 242.907 18.236 244.625 15.0192H235.614Z" fill="white"/>
<path fill-rule="evenodd" clip-rule="evenodd" d="M230.616 16.0225L225.402 30.037H231.172L235.14 19.3684L230.616 16.0225Z" fill="white"/>
</svg>
