<svg id="Слой_1" data-name="Слой 1" xmlns="http://www.w3.org/2000/svg" viewBox="0 0 60 60"><defs><style>.cls-1{fill:#fff;}</style></defs><title>vk-white</title><path class="cls-1" d="M114,62.78a30,30,0,1,0,30,30A30,30,0,0,0,114,62.78ZM131.34,104h-4.12c-1.57,0-2-1.25-4.84-4-2.45-2.37-3.5-2.67-4.11-2.67-1.32,0-1.08.44-1.08,5.12,0,1-.32,1.6-3,1.6-4.37,0-9.18-2.65-12.59-7.55-5.12-7.17-6.52-12.6-6.52-13.7,0-.61.24-1.17,1.42-1.17h4.12c1.06,0,1.46.47,1.87,1.61,2,5.88,5.42,11,6.82,11,.52,0,.76-.24.76-1.57V86.55c-.15-2.81-1.64-3-1.64-4a1,1,0,0,1,1-1H116c.87,0,1.16.47,1.16,1.52v8.18c0,.88.4,1.18.66,1.18.53,0,1-.3,1.93-1.26a34.71,34.71,0,0,0,5.07-8.45,1.79,1.79,0,0,1,1.8-1.17h4.12c1.25,0,1.51.65,1.25,1.52-.52,2.41-5.56,9.5-5.56,9.5-.44.7-.61,1,0,1.84.23.34,5.54,5.37,6.32,7.81C133.12,103.4,132.52,104,131.34,104Z" transform="translate(-84 -62.78)"/></svg>