<svg id="Слой_1" data-name="Слой 1" xmlns="http://www.w3.org/2000/svg" viewBox="0 0 60 60"><defs><style>.cls-1{fill:none;stroke:#edc553;stroke-width:2px;}.cls-2{fill:#f4c848;}</style></defs><title>vk-y</title><circle class="cls-1" cx="30" cy="30" r="29"/><path class="cls-2" d="M132,19.31c.26-.87,0-1.52-1.25-1.52h-4.12a1.78,1.78,0,0,0-1.8,1.17,34.54,34.54,0,0,1-5.07,8.44c-1,1-1.4,1.27-1.93,1.27-.26,0-.66-.31-.66-1.18V19.31c0-1-.29-1.52-1.16-1.52h-6.49a1,1,0,0,0-1,.95c0,1,1.49,1.22,1.64,4v6.09c0,1.33-.24,1.57-.76,1.57-1.4,0-4.81-5.14-6.82-11-.41-1.14-.81-1.6-1.87-1.6H96.55c-1.18,0-1.42.55-1.42,1.17,0,1.09,1.4,6.52,6.52,13.7,3.41,4.89,8.22,7.55,12.59,7.55,2.63,0,3-.59,3-1.6,0-4.68-.24-5.13,1.08-5.13.61,0,1.66.31,4.11,2.67,2.81,2.81,3.27,4.06,4.84,4.06h4.12c1.18,0,1.78-.59,1.43-1.75C132,36,126.68,31,126.45,30.65c-.61-.79-.44-1.14,0-1.84,0,0,5-7.1,5.56-9.5Z" transform="translate(-84 1)"/></svg>