<svg width="110" height="27" viewBox="0 0 110 27" fill="none" xmlns="http://www.w3.org/2000/svg">
<path fill-rule="evenodd" clip-rule="evenodd" d="M0 26.408C7.12782 26.4063 12.9055 20.6275 12.9055 13.4993C12.9055 6.37102 7.12782 0.592236 0 0.590454V4.85545C4.77107 4.85837 8.63788 8.72698 8.63788 13.4987C8.63788 18.2705 4.77107 22.1391 0 22.142V26.408Z" fill="white"/>
<path fill-rule="evenodd" clip-rule="evenodd" d="M64.6509 26.4084C71.7776 26.4054 77.5541 20.6271 77.5541 13.4996C77.5541 6.37215 71.7776 0.593843 64.6509 0.59082V4.85632C69.4229 4.85807 73.2909 8.72712 73.2909 13.4996C73.2909 18.2721 69.4229 22.1411 64.6509 22.1429V26.4084Z" fill="white"/>
<rect x="31.6558" y="0.590454" width="12.4598" height="4.26551" fill="white"/>
<rect x="79.6929" y="0.590454" width="12.4598" height="4.26551" fill="white"/>
<path fill-rule="evenodd" clip-rule="evenodd" d="M47.0314 0.590942H62.073V4.85646H62.0696L52.0895 22.1425H62.0699V26.408H47.0283V22.1481V22.1425H47.0316L57.0116 4.85646H47.0314V0.590942Z" fill="white"/>
<rect x="31.6558" y="22.1426" width="12.4598" height="4.26551" fill="white"/>
<rect x="79.6929" y="22.1426" width="12.4598" height="4.26551" fill="white"/>
<rect x="31.6558" y="11.3661" width="12.4598" height="4.26551" fill="white"/>
<rect x="79.6929" y="11.3661" width="12.4598" height="4.26551" fill="white"/>
<rect x="48.6543" y="9.63159" width="13.3186" height="4.26551" transform="rotate(15 48.6543 9.63159)" fill="white"/>
<path fill-rule="evenodd" clip-rule="evenodd" d="M23.663 16.3295C27.2064 15.5199 29.8501 12.3486 29.8501 8.55986C29.8501 4.15984 26.2845 0.592619 21.8851 0.590088V4.8554C23.93 4.85647 25.5873 6.51451 25.5873 8.55966C25.5873 10.6048 23.93 12.2629 21.8851 12.2639V12.2648H15.4794V16.5303H18.8536L24.5563 26.4077H29.4817L23.663 16.3295ZM21.8774 0.594425H12.6729V4.85994H21.8774V0.594425Z" fill="white"/>
<path fill-rule="evenodd" clip-rule="evenodd" d="M104.838 26.4078V26.4078H109.103L109.103 0.59021L104.838 0.59021L104.838 18.4702L97.509 5.77624L93.8149 7.909L104.508 26.4296L104.546 26.4078H104.838Z" fill="white"/>
</svg>
