<svg width="73" height="64" viewBox="0 0 73 64" fill="none" xmlns="http://www.w3.org/2000/svg">
<path d="M57.5956 20.8246C57.8595 19.7688 58.1274 18.713 58.3913 17.6611C59.0768 14.9389 59.7584 12.2167 60.4438 9.49449C60.6408 8.70658 60.8496 7.91868 61.0387 7.12683C61.0742 6.98107 61.1293 6.95349 61.2633 6.95349C62.3072 6.95743 63.3512 6.95743 64.3952 6.95743C66.3177 6.95743 68.2402 6.95743 70.1627 6.95743C70.4818 6.95743 70.6078 7.0835 70.6118 7.39866C70.6236 8.40324 70.6315 9.40388 70.659 10.4085C70.6827 11.1885 70.7615 11.9685 70.7615 12.7446C70.7615 13.3907 70.6787 14.0368 70.6315 14.6828C70.6275 14.7498 70.6118 14.8128 70.6118 14.8798C70.6118 16.0538 70.5881 17.2278 70.6196 18.4018C70.6354 18.9494 70.7457 19.493 70.8166 20.0367C70.8915 20.6118 70.9703 21.1909 71.0412 21.7661C71.1239 22.4477 71.2066 23.1292 71.2775 23.8107C71.3603 24.6183 71.4548 25.4259 71.51 26.2335C71.5848 27.3327 71.6242 28.4318 71.6873 29.5309C71.6951 29.6885 71.6636 29.8146 71.5297 29.9052C71.3918 29.9997 71.3603 30.1297 71.3642 30.2952C71.3721 30.9531 71.3918 31.6071 71.3603 32.265C71.3327 32.8835 71.5533 33.3995 71.9039 33.8841C71.9709 33.9747 72.0339 34.0653 72.1009 34.152C72.2388 34.3371 72.2191 34.5065 72.0497 34.672C72.0142 34.7075 71.9945 34.7547 71.9709 34.802C71.7345 35.2472 71.636 35.716 71.6833 36.2202C71.6991 36.4133 71.6873 36.6103 71.6873 36.8781C71.5888 36.8112 71.5336 36.7718 71.4785 36.7324C71.4312 36.7009 71.3879 36.6497 71.3366 36.6418C71.313 36.6378 71.2578 36.7127 71.246 36.756C71.1751 37.1066 71.1081 37.4612 71.0412 37.8118C71.0175 37.9418 70.9742 38.0245 70.8206 37.9261C70.7772 37.8985 70.6906 37.9379 70.6236 37.9458C70.6472 38.0285 70.6551 38.123 70.6984 38.1939C70.7221 38.2333 70.8009 38.2373 70.8678 38.2609C70.8324 38.6273 70.793 38.9897 70.7654 39.3522C70.7103 40.1676 70.6512 40.9871 70.6157 41.8026C70.5921 42.3856 70.6118 42.9687 70.6078 43.5556C70.6078 43.7723 70.4621 43.9181 70.2414 43.9181C69.7175 43.922 69.1896 43.922 68.6656 43.9141C68.5671 43.9141 68.4647 43.8708 68.3741 43.8196C68.1968 43.7211 68.0353 43.7172 67.862 43.8314C67.7871 43.8826 67.6808 43.9141 67.5901 43.9141C65.774 43.9181 63.954 43.9181 62.1378 43.9181C61.9054 43.9181 61.7912 43.8038 61.7951 43.5714C61.799 43.4138 61.7951 43.2523 61.8384 43.1065C61.933 42.7756 61.8148 42.4683 61.7478 42.1611C61.6375 41.6647 61.6769 41.1683 61.6887 40.6758C61.7006 40.0219 61.7478 39.364 61.7518 38.71C61.7596 37.1697 61.7596 35.6254 61.7478 34.085C61.7321 32.525 61.6809 30.961 61.6769 29.4009C61.6769 28.3372 61.736 27.2775 61.7596 26.2138C61.7636 26.0484 61.7242 25.8869 61.7006 25.6781C61.3854 26.4266 61.279 27.1987 61.082 27.9433C60.5699 29.8697 60.0578 31.7962 59.5496 33.7226C59.5338 33.7856 59.4984 33.8447 59.4826 33.9077C59.4471 34.0535 59.3565 34.0968 59.2147 34.1087C59.0965 34.1165 58.9862 34.1677 58.868 34.2032C58.9192 34.3017 58.9468 34.4199 59.0217 34.5026C59.2383 34.7508 59.2935 34.9951 59.2029 35.3299C58.6198 37.4612 58.0683 39.6004 57.4971 41.7356C57.3198 42.3974 57.1071 43.0474 56.914 43.7014C56.8668 43.859 56.788 43.926 56.6107 43.926C53.8806 43.9181 51.1505 43.9181 48.4204 43.926C48.2234 43.926 48.0974 43.8708 48.0658 43.6778C47.991 43.2168 47.731 42.8583 47.4552 42.5038C47.081 42.0232 46.9667 41.4874 47.0573 40.8807C47.1401 40.3449 47.1519 39.7973 47.1992 39.2576C47.2582 38.5524 47.3173 37.8473 47.3843 37.146C47.4079 36.9097 47.467 36.6772 47.5064 36.4448C47.5104 36.4093 47.4907 36.3699 47.4828 36.3305C47.3489 35.7436 47.3134 35.1448 47.3607 34.5538C47.3961 34.1362 47.5261 33.7265 48.0383 33.5886C47.7704 33.1789 47.5261 32.7692 47.2504 32.3831C47.081 32.1468 47.014 31.9065 47.0219 31.6189C47.0416 31.0634 47.0416 30.504 47.0219 29.9446C46.9904 28.9951 47.1598 28.0694 47.337 27.1436C47.5655 25.946 47.8452 24.7562 48.0462 23.5547C48.121 23.1056 48.1446 22.6171 47.9122 22.1719C47.7822 21.9198 47.6955 21.6401 47.5813 21.3761C47.4867 21.1634 47.4907 20.9664 47.5892 20.7576C47.7507 20.403 47.9043 20.0445 48.0658 19.6821C48.0068 19.6309 47.9555 19.5718 47.8965 19.5363C47.471 19.2803 47.4316 18.8981 47.5813 18.4845C47.6837 18.2008 47.8492 17.9369 47.9792 17.6611C48.0186 17.5784 48.0619 17.4838 48.0619 17.3932C48.0698 16.5659 48.0658 15.7386 48.0619 14.9113C48.0619 14.8444 48.054 14.7616 48.0146 14.7104C47.471 13.9974 47.4198 13.2055 47.601 12.3625C47.7625 11.6179 47.9043 10.8694 48.054 10.1209C48.0659 10.0578 48.0619 9.99087 48.0619 9.92389C48.0619 9.0572 48.0619 8.1905 48.0619 7.32381C48.0619 7.0835 48.1919 6.95349 48.4322 6.95349C51.0953 6.95349 53.7624 6.95349 56.4255 6.95349C56.7368 6.95349 56.8116 7.03228 56.8116 7.35138C56.8116 12.7722 56.8116 18.193 56.8116 23.6138C56.8116 23.7004 56.8234 23.7871 56.8274 23.8738C56.851 23.8777 56.8707 23.8816 56.8943 23.8856C56.918 23.8225 56.9455 23.7556 56.9613 23.6886C57.1228 23.011 57.2686 22.3295 57.4459 21.6558C57.501 21.4431 57.5995 21.2264 57.8319 21.1122C57.9541 21.0491 57.9344 20.9152 57.8004 20.864C57.7334 20.8443 57.6665 20.8364 57.5956 20.8246ZM55.6928 25.9735C55.5588 25.6978 55.1688 25.6387 54.9797 25.8632C55.0861 25.9105 55.2161 25.9302 55.2909 26.005C55.4446 26.1705 55.5588 26.1193 55.6928 25.9735ZM67.1489 39.9549C67.2986 40.1046 67.405 40.2386 67.5389 40.3331C67.5901 40.3686 67.7083 40.3134 67.795 40.2977C67.7753 40.2346 67.7674 40.1598 67.732 40.1046C67.6059 39.9273 67.4207 39.9234 67.1489 39.9549ZM67.9329 42.7599C68.059 42.8662 68.1496 42.9411 68.2362 43.0199C68.4135 43.1932 68.4726 43.1893 68.6223 43.0002C68.4962 42.7205 68.2599 42.7086 67.9329 42.7599ZM65.0295 35.1487C65.2107 35.0975 65.3643 35.0502 65.5337 35.0029C65.4234 34.7863 65.2146 34.806 65.0295 34.7272C65.0295 34.8808 65.0295 35.0029 65.0295 35.1487ZM67.1804 41.4047C67.3223 41.2825 67.4247 41.1919 67.5311 41.1013C67.4168 41.0737 67.3223 41.0383 67.2198 41.0265C67.1647 41.0186 67.0583 41.0343 67.0544 41.054C67.0386 41.121 67.0504 41.1998 67.078 41.2668C67.1016 41.3219 67.1529 41.3692 67.1804 41.4047ZM67.3892 42.5747C67.271 42.6377 67.1647 42.6968 67.011 42.7796C67.1726 42.882 67.2829 42.9529 67.4129 43.0356C67.4365 42.8662 67.6138 42.7244 67.3892 42.5747ZM64.1549 32.2413C64.2888 32.2807 64.3912 32.3162 64.4976 32.3359C64.5449 32.3437 64.6119 32.3201 64.6513 32.2925C64.667 32.2807 64.6513 32.1901 64.6197 32.1625C64.5449 32.0956 64.4582 32.0443 64.3755 31.9853C64.2928 32.0798 64.2297 32.1546 64.1549 32.2413ZM52.1196 17.7951C52.1196 17.8778 52.1196 17.9566 52.1196 18.063C52.2575 18.0472 52.3796 18.0354 52.553 18.0157C52.3954 17.8581 52.3481 17.6257 52.1196 17.7951ZM54.9837 28.5382C55.1255 28.5854 55.1255 28.8258 55.354 28.7312C55.3343 28.6091 55.3146 28.483 55.287 28.3057C55.157 28.4042 55.0821 28.4633 54.9837 28.5382ZM55.0979 27.179C55.22 27.0451 55.3028 26.9545 55.4013 26.8402C55.2358 26.8205 55.1137 26.8048 54.9324 26.7811C54.9955 26.9348 55.0388 27.0372 55.0979 27.179ZM67.5311 39.5019C67.5389 39.2103 67.4641 39.1552 67.2041 39.2852C67.3026 39.3837 67.3459 39.5294 67.5311 39.5019ZM55.4564 24.9886C55.2949 24.969 55.1491 24.9532 55.1018 25.1502C55.3106 25.2565 55.3815 25.225 55.4564 24.9886ZM65.5101 41.0462C65.4943 41.0501 65.4786 41.054 65.4628 41.058C65.4273 41.2077 65.3958 41.3534 65.3564 41.5268C65.4155 41.5031 65.514 41.4874 65.518 41.4598C65.5298 41.3259 65.514 41.188 65.5101 41.0462ZM68.0196 42.1532C68.1062 42.1965 68.1653 42.2477 68.2283 42.2517C68.2599 42.2517 68.3268 42.1689 68.3229 42.1295C68.315 42.0744 68.2559 42.0271 68.2126 41.968C68.1456 42.035 68.0983 42.0783 68.0196 42.1532ZM68.3268 32.8244C68.3465 32.8322 68.3662 32.8401 68.382 32.848C68.4371 32.7456 68.4884 32.6392 68.5435 32.5368C68.4923 32.521 68.445 32.5053 68.3899 32.4895C68.3623 32.6156 68.3426 32.7219 68.3268 32.8244ZM64.9704 30.0115C64.9704 29.9209 64.9704 29.854 64.9704 29.7279C64.8837 29.7909 64.8246 29.8224 64.7931 29.8697C64.7734 29.9012 64.797 29.9643 64.801 30.0115C64.864 30.0115 64.9152 30.0115 64.9704 30.0115ZM67.5035 30.0706C67.5153 30.0785 67.5271 30.0864 67.5429 30.0943C67.6138 30.0037 67.6886 29.9091 67.7832 29.7909C67.6768 29.7909 67.6217 29.7909 67.5626 29.7909C67.5389 29.8894 67.5192 29.98 67.5035 30.0706Z" fill="white"/>
<path d="M21.0776 35.6799C20.9909 35.6799 20.9318 35.6799 20.853 35.6799C20.8215 35.5342 20.786 35.3844 20.7506 35.2387C20.7348 35.2347 20.7191 35.2308 20.6994 35.2269C20.6797 35.2623 20.6482 35.3017 20.6442 35.3372C20.6166 35.7351 20.5772 36.133 20.5772 36.5309C20.5694 38.1264 20.5733 39.7219 20.5772 41.3134C20.5772 41.4553 20.5339 41.5577 20.4394 41.6601C19.8681 42.2826 19.3008 42.9089 18.7414 43.5432C18.6154 43.685 18.4932 43.752 18.2923 43.752C15.2628 43.7126 12.2294 43.6811 9.19989 43.6496C6.6392 43.622 4.08245 43.5984 1.52176 43.5747C1.09629 43.5708 0.670819 43.5747 0.221713 43.5747C0.221713 43.4723 0.221713 43.4014 0.221713 43.3344C0.217773 31.3149 0.217773 19.2915 0.217773 7.26804C0.217773 6.98046 0.32808 6.87015 0.615666 6.87015C6.48162 6.87015 12.3476 6.87015 18.2175 6.86621C18.3672 6.86621 18.4696 6.91349 18.576 7.01591C19.289 7.72503 19.8957 8.51687 20.4985 9.3166C20.5457 9.37963 20.5733 9.47024 20.5733 9.54903C20.5772 10.2503 20.5733 10.9515 20.5772 11.6567C20.5772 11.8024 20.5378 11.8773 20.3763 11.8694C20.3291 11.8655 20.2818 11.9246 20.2463 11.9718C20.5733 12.0624 20.5733 12.0624 20.5733 12.4012C20.5733 13.8392 20.5969 15.2771 20.5654 16.7111C20.5378 18.023 20.5851 19.3388 20.5812 20.6506C20.5772 21.3716 20.6521 22.0885 20.6994 22.8095C20.7585 23.7392 20.8176 24.665 20.8806 25.5947C20.9279 26.2999 20.9751 27.0051 21.0264 27.7142C21.0421 27.9624 21.0697 28.2106 21.0697 28.4588C21.0697 28.5297 21.0264 28.6242 20.9712 28.6715C20.8254 28.7936 20.79 28.9354 20.79 29.1206C20.7979 29.8218 20.8136 30.527 20.786 31.2282C20.7624 31.8743 20.9988 32.3983 21.4203 32.8592C21.4952 32.9419 21.5345 33.0089 21.4755 33.1153C21.4361 33.1901 21.4242 33.2768 21.3927 33.3556C21.117 33.9859 21.0224 34.6438 21.0736 35.3254C21.0854 35.4396 21.0776 35.5539 21.0776 35.6799ZM9.50324 16.1241C9.50324 16.2068 9.50324 16.2738 9.50324 16.3368C9.50324 22.2382 9.50324 28.1357 9.50718 34.0371C9.50718 34.1435 9.53869 34.2459 9.55051 34.3405C10.5354 34.3405 11.4888 34.3405 12.4421 34.3405C12.4421 28.2618 12.4421 22.1949 12.4421 16.128C11.4612 16.1241 10.496 16.1241 9.50324 16.1241ZM13.6279 42.4717C13.9352 42.4717 14.1125 42.2944 14.077 42.0344C14.0416 41.7822 13.6476 41.3647 13.3955 41.3134C13.2221 41.278 13.1512 41.3253 13.1867 41.5065C13.2379 41.7704 13.3325 42.0304 13.3955 42.2944C13.427 42.4362 13.49 42.5071 13.6279 42.4717ZM7.76985 36.0817C7.75409 36.4087 7.75409 36.7121 7.90773 37.0075C8.02591 37.236 8.25047 37.303 8.43956 37.1297C8.61684 36.9642 8.63654 36.8027 8.52229 36.5821C8.41199 36.3654 8.03379 36.0778 7.76985 36.0817ZM16.815 21.7458C16.882 21.2612 16.5944 20.9815 16.1138 21.0643C16.2122 21.2731 16.2753 21.4897 16.4092 21.6552C16.4762 21.734 16.6653 21.7143 16.815 21.7458ZM15.6292 22.6952C15.8419 22.6046 15.9956 22.5534 16.1374 22.4786C16.2438 22.4234 16.2713 22.3092 16.1768 22.2264C16.0822 22.1437 15.9522 22.1004 15.838 22.0413C15.7041 21.9704 15.6213 22.061 15.6095 22.1634C15.5898 22.3131 15.6174 22.4707 15.6292 22.6952ZM15.3456 24.3735C15.3968 24.2356 15.4322 24.1213 15.4834 24.015C15.4992 23.9756 15.5898 23.9401 15.5819 23.9283C15.5386 23.8416 15.4992 23.7116 15.4283 23.6841C15.2313 23.6171 15.0146 23.7747 15.0304 23.9953C15.0462 24.2001 15.1998 24.2671 15.3456 24.3735ZM19.9587 42.0304C20.1754 41.6759 20.069 41.408 19.8996 41.1559C19.876 41.1204 19.813 41.081 19.7815 41.0889C19.7499 41.0968 19.7105 41.1598 19.7066 41.2031C19.7027 41.2543 19.7421 41.3095 19.7499 41.3647C19.7578 41.4592 19.7618 41.5537 19.7578 41.6444C19.7539 41.7153 19.6987 41.8138 19.7263 41.8532C19.7775 41.928 19.8799 41.9713 19.9587 42.0304ZM14.8571 35.9478C14.9989 35.9123 15.1249 35.8926 15.2471 35.8493C15.3022 35.8296 15.3731 35.7784 15.381 35.7311C15.4046 35.609 15.4007 35.4711 15.2589 35.416C15.184 35.3884 15.0816 35.3687 15.0146 35.3963C14.7625 35.5066 14.8571 35.7272 14.8571 35.9478ZM14.5222 39.1112C14.7034 39.1703 14.8886 39.1467 14.9634 38.9734C15.0068 38.8709 14.9437 38.7094 14.9004 38.5833C14.8886 38.5558 14.7192 38.5361 14.6916 38.5676C14.5695 38.7252 14.4276 38.8827 14.5222 39.1112ZM10.8899 41.8216C11.1775 41.8492 11.3588 41.7507 11.3627 41.5734C11.3666 41.3568 11.3075 41.274 11.1539 41.2859C10.9333 41.3016 10.8545 41.4592 10.8899 41.8216ZM17.0317 11.9561C17.0474 11.6764 16.8386 11.4479 16.6298 11.5109C16.5471 11.5346 16.4801 11.6527 16.4329 11.7394C16.4171 11.7709 16.4841 11.8852 16.5274 11.893C16.6929 11.9324 16.8623 11.9403 17.0317 11.9561ZM16.492 20.5561C16.618 20.5836 16.7244 20.7649 16.8702 20.6112C16.9923 20.4852 16.9095 20.3591 16.8347 20.2527C16.8071 20.2133 16.7244 20.1976 16.6692 20.2015C16.4644 20.2251 16.4565 20.3709 16.492 20.5561ZM18.245 9.35993C18.0796 9.26932 18.0323 9.40721 17.9772 9.486C17.9496 9.52539 17.9732 9.63176 18.0087 9.66722C18.0638 9.71843 18.1505 9.72631 18.245 9.76176C18.245 9.60024 18.245 9.48206 18.245 9.35993ZM19.8169 28.7542C19.8169 28.6951 19.8327 28.6439 19.813 28.6163C19.7578 28.5297 19.6909 28.4509 19.6239 28.3682C19.5963 28.4509 19.5648 28.5336 19.5451 28.6163C19.5372 28.6557 19.549 28.703 19.553 28.7503C19.6475 28.7542 19.7224 28.7542 19.8169 28.7542ZM20.2227 33.2926C20.203 33.3162 20.1794 33.3398 20.1597 33.3595C20.2148 33.4698 20.27 33.5762 20.3527 33.7456C20.4354 33.6077 20.4827 33.5289 20.5339 33.4501C20.4275 33.3989 20.3251 33.3438 20.2227 33.2926ZM9.33384 11.0027C9.42051 10.9082 9.51505 10.8451 9.53475 10.7624C9.54657 10.7151 9.44414 10.6363 9.40081 10.5812C9.31808 10.6363 9.26293 10.6718 9.21565 10.6994C9.25111 10.786 9.28262 10.8688 9.33384 11.0027ZM13.7146 8.55233C13.8407 8.57597 13.947 8.5996 14.0652 8.62324C14.0652 8.50111 14.0652 8.41445 14.0652 8.33959C13.8564 8.24111 13.8091 8.41051 13.7146 8.55233ZM19.1196 13.5595C19.0723 13.7643 19.1433 13.8746 19.3442 13.9258C19.3442 13.7958 19.3442 13.6855 19.3442 13.5595C19.2654 13.5595 19.1984 13.5595 19.1196 13.5595ZM14.6286 34.1199C14.6995 34.179 14.7664 34.2302 14.8807 34.3208C14.8886 34.1514 14.8964 34.0293 14.9004 33.9111C14.8846 33.9071 14.8649 33.9032 14.8492 33.8992C14.7783 33.9662 14.7113 34.0371 14.6286 34.1199ZM14.1361 21.9349C14.1598 21.7813 14.1952 21.6355 14.0298 21.5803C13.9825 21.5646 13.8958 21.6591 13.821 21.7104C13.947 21.797 14.0337 21.8601 14.1361 21.9349ZM15.0461 10.3488C15.0461 10.2384 15.0461 10.1478 15.0461 10.0572C15.0304 10.0454 15.0107 10.0336 14.9949 10.0257C14.9083 10.1124 14.8255 10.203 14.7152 10.3172C14.8531 10.3291 14.9477 10.3369 15.0461 10.3488ZM16.9332 28.1751C16.8977 28.3012 16.8662 28.4075 16.8347 28.5139C16.9017 28.4982 16.9805 28.506 17.0277 28.4666C17.1656 28.3682 17.1144 28.2775 16.9332 28.1751ZM19.226 31.898C19.4624 31.9216 19.5175 31.8743 19.486 31.6734C19.3993 31.6734 19.3127 31.6734 19.226 31.6734C19.226 31.7561 19.226 31.8192 19.226 31.898ZM17.9378 40.5098C17.9181 40.4901 17.8984 40.4704 17.8787 40.4507C17.792 40.5216 17.7053 40.5886 17.6187 40.6595C17.6265 40.6831 17.6344 40.7028 17.6462 40.7264C17.7408 40.7304 17.8353 40.7383 17.9417 40.7422C17.9378 40.6477 17.9378 40.5807 17.9378 40.5098ZM16.748 31.4725C16.6692 31.4725 16.6101 31.4725 16.555 31.4725C16.5392 31.4725 16.5235 31.4883 16.5077 31.4961C16.488 31.7443 16.5077 31.7601 16.748 31.6971C16.748 31.6301 16.748 31.5631 16.748 31.4725ZM15.054 31.0076C15.1407 31.0037 15.2077 30.9998 15.2746 30.9998C15.2904 30.7594 15.2786 30.7476 15.054 30.7831C15.054 30.8461 15.054 30.917 15.054 31.0076ZM14.6561 18.1884C14.5419 18.0426 14.4434 17.9205 14.3173 17.7629C14.3607 18.086 14.4592 18.212 14.6561 18.1884Z" fill="white"/>
<path d="M35.4 30.5429C34.8051 30.5429 34.2299 30.5429 33.6311 30.5429C33.6311 30.6335 33.6311 30.7162 33.6311 30.799C33.6311 34.9788 33.6311 39.1586 33.6311 43.3385C33.6311 43.63 33.509 43.7561 33.2254 43.7561C30.385 43.7561 27.5446 43.7521 24.7002 43.76C24.4875 43.76 24.3969 43.6773 24.3614 43.496C24.3102 43.2203 24.2748 42.9406 24.2235 42.6648C24.2078 42.5781 24.1802 42.4836 24.129 42.4206C23.672 41.8927 23.5223 41.2899 23.6169 40.6005C23.6956 40.0253 23.7114 39.4383 23.7547 38.8592C23.8178 38.0634 23.8729 37.2637 23.9438 36.4719C23.9793 36.0661 23.9123 35.6761 23.8178 35.29C23.6641 34.6636 23.806 34.1121 24.2275 33.6315C24.3575 33.4857 24.3654 33.3557 24.2708 33.1902C24.062 32.8199 23.8611 32.4457 23.6641 32.0714C23.6247 31.9926 23.5972 31.8981 23.5972 31.8114C23.5932 30.9368 23.5578 30.0623 23.609 29.1956C23.6523 28.4668 23.7863 27.7458 23.8926 27.0209C24.0344 26.0715 24.2117 25.126 24.322 24.1766C24.3811 23.6763 24.3614 23.1641 24.322 22.6638C24.3023 22.4117 24.1763 22.1674 24.0699 21.9271C23.9478 21.6474 23.9478 21.3874 24.0423 21.0959C24.1566 20.7492 24.2275 20.3907 24.3063 20.0362C24.3181 19.9771 24.2787 19.8746 24.2275 19.8352C24.0226 19.6737 23.9596 19.5004 24.0069 19.2246C24.1172 18.5746 24.192 17.9206 24.259 17.2627C24.3023 16.8412 24.2984 16.4118 24.326 15.9863C24.3614 15.5018 24.326 15.0251 24.1329 14.5799C23.9084 14.0599 23.9596 13.5399 24.0344 13.0041C24.1251 12.3659 24.2038 11.7198 24.2551 11.0777C24.3023 10.4828 24.3063 9.88794 24.3378 9.29307C24.3417 9.23004 24.3811 9.15519 24.4245 9.10791C25.0627 8.39486 25.7048 7.6818 26.3509 6.98057C26.41 6.91754 26.5321 6.88602 26.6267 6.88602C30.1368 6.88208 33.6469 6.88208 37.157 6.88208C38.6186 6.88208 40.0841 6.88208 41.5456 6.88208C41.6244 6.88208 41.6993 6.88208 41.7781 6.88208C41.7663 6.90178 41.7544 6.92148 41.7466 6.94117C41.8332 7.01208 41.912 7.12633 42.0105 7.14603C42.1838 7.18542 42.2666 7.05542 42.2666 6.83875C42.3808 6.92935 42.4675 6.98057 42.5384 7.05148C43.1963 7.72514 43.8778 8.37516 44.3979 9.16701C44.583 9.45065 44.6933 9.74612 44.6933 10.1007C44.6854 13.6226 44.6776 17.1485 44.6973 20.6704C44.7012 21.3598 44.8115 22.0532 44.8745 22.7426C44.9258 23.3099 44.9927 23.8733 45.04 24.4406C45.107 25.2363 45.1779 26.0321 45.2252 26.8318C45.2803 27.7616 45.3079 28.6913 45.3433 29.621C45.3433 29.6604 45.3315 29.7195 45.304 29.7432C45.1582 29.8574 45.1661 30.011 45.1582 30.1686C45.1267 30.8502 45.0873 31.5317 45.0518 32.2093C45.0164 32.8751 45.237 33.4542 45.6782 33.9506C45.7649 34.0451 45.7885 34.12 45.7452 34.2382C45.6349 34.5376 45.5521 34.8488 45.434 35.1443C45.2921 35.5027 45.363 35.8691 45.3433 36.2316C45.3355 36.3734 45.3433 36.5191 45.3433 36.657C45.0676 36.787 45.1346 36.4522 44.9494 36.4167C44.9021 36.657 44.8391 36.9013 44.8076 37.1455C44.6106 38.6583 44.5988 40.179 44.6342 41.6996C44.6461 42.263 44.6657 42.8263 44.6815 43.3897C44.6894 43.6261 44.5554 43.76 44.3151 43.76C43.8227 43.76 43.3303 43.7521 42.8378 43.7639C42.6448 43.7679 42.4951 43.7245 42.3729 43.5748C42.4714 43.3069 42.3729 43.2282 41.9593 43.2597C41.9514 43.2676 41.9396 43.2754 41.9357 43.2873C41.8647 43.76 41.8647 43.76 41.3841 43.76C39.5207 43.76 37.6573 43.76 35.7939 43.76C35.53 43.76 35.4 43.63 35.4 43.37C35.4 41.999 35.4 40.6281 35.4 39.2571C35.4 39.1153 35.4 38.9656 35.4433 38.8316C35.5497 38.4968 35.4906 38.1737 35.4433 37.8428C35.4118 37.6301 35.4 37.4134 35.4 37.1967C35.396 35.0261 35.4 32.8514 35.396 30.6808C35.4118 30.6414 35.4079 30.602 35.4 30.5429ZM30.8774 23.9993C30.9247 23.9836 30.9483 23.9836 30.9601 23.9757C31.5392 23.5187 32.1184 23.0578 32.6975 22.5969C32.9732 22.3802 33.249 22.1635 33.5248 21.9429C33.6823 21.8168 33.8596 21.7065 33.9975 21.5608C34.1748 21.3717 34.4742 21.3401 34.683 21.5056C35.2306 21.9468 35.7939 22.3684 36.3494 22.8017C36.6803 23.0578 37.0073 23.3178 37.3422 23.5699C37.5234 23.7078 37.7125 23.8378 37.941 24.0033C37.9213 23.8142 37.9213 23.6881 37.8898 23.5699C37.8267 23.3454 37.7401 23.1248 37.6731 22.9041C37.4249 22.0965 37.1767 21.2929 36.9325 20.4853C36.9049 20.3947 36.8497 20.2528 36.8891 20.2095C36.9916 20.0992 36.9088 20.0362 36.8694 19.9574C36.83 19.8825 36.7591 19.8116 36.7512 19.7368C36.7394 19.6265 36.7315 19.4768 36.7906 19.4019C36.9285 19.2404 37.1097 19.1104 37.2713 18.9725C38.1931 18.1925 39.1189 17.4124 40.0407 16.6324C40.0644 16.6127 40.0762 16.5733 40.1077 16.526C40.0329 16.5221 39.9817 16.5182 39.9304 16.5182C39.4971 16.5063 39.0677 16.4945 38.6343 16.4788C38.4374 16.4709 38.2404 16.4394 38.0395 16.4473C37.8661 16.4512 37.6967 16.5142 37.5234 16.5182C37.0388 16.53 36.5543 16.5221 36.0658 16.5221C35.7742 16.5221 35.7191 16.4788 35.6482 16.1991C35.6324 16.1439 35.6088 16.0848 35.6127 16.0297C35.6167 15.9233 35.597 15.7815 35.66 15.7184C35.8176 15.549 35.7664 15.419 35.66 15.2536C35.5221 15.0408 35.3803 14.8242 35.2976 14.5878C35.0178 13.7723 34.7618 12.949 34.4978 12.1295C34.4703 12.0429 34.4348 11.9562 34.3836 11.8222C34.356 11.901 34.3481 11.9247 34.3402 11.9483C33.8596 13.4178 33.379 14.8872 32.9063 16.3606C32.8629 16.4906 32.8038 16.526 32.6699 16.526C31.4092 16.5221 30.1525 16.5221 28.8919 16.5221C28.821 16.5221 28.754 16.5221 28.6358 16.5221C28.691 16.6048 28.7146 16.656 28.754 16.6915C29.1834 17.0618 29.6168 17.4282 30.0501 17.7906C30.4322 18.1097 30.8104 18.4328 31.1965 18.7479C31.2832 18.8188 31.3856 18.8661 31.4723 18.937C31.6377 19.0749 31.8032 19.2167 31.9568 19.3664C32.0002 19.4098 32.0356 19.4964 32.0238 19.5477C31.8977 20.0677 31.7638 20.5838 31.6299 21.0998C31.3935 21.9902 31.1571 22.8844 30.9207 23.7748C30.901 23.8339 30.8932 23.9087 30.8774 23.9993ZM40.3441 42.129C40.2889 41.999 40.2417 41.8966 40.1983 41.7902C40.0998 41.542 39.7374 41.2978 39.4853 41.3214C39.438 41.3254 39.3553 41.4042 39.3631 41.4278C39.4538 41.7351 39.5522 42.0384 39.6586 42.3378C39.7059 42.4757 39.8044 42.5112 39.9304 42.4206C40.0683 42.3221 40.2062 42.2275 40.3441 42.129ZM43.3657 37.3189C43.3539 37.4804 43.4603 37.8704 43.5981 37.9334C43.7439 38.0004 43.9291 37.9807 44.1103 38.0004C43.9842 37.4725 43.7281 37.2519 43.3657 37.3189ZM42.9954 40.4863C42.9796 40.502 42.9639 40.5138 42.9481 40.5296C43.0978 40.762 43.2436 40.9984 43.3972 41.2308C43.413 41.2505 43.4839 41.2663 43.5036 41.2505C43.5981 41.1796 43.736 41.1087 43.7636 41.0102C43.803 40.8644 43.6651 40.7384 43.5469 40.6753C43.3736 40.5847 43.1805 40.5453 42.9954 40.4863ZM37.6022 38.158C37.7085 37.764 37.3303 37.5946 36.8655 37.5513C36.9522 37.7562 37.0349 37.9571 37.1176 38.158C37.2791 38.158 37.4367 38.158 37.6022 38.158ZM41.2187 37.2637C41.195 37.2716 41.1714 37.2795 41.1517 37.2874C41.1714 37.3622 41.2187 37.4371 41.2108 37.504C41.1911 37.6419 41.3723 37.8428 41.0965 37.9098C41.0887 37.9137 41.0887 38.0753 41.1162 38.0871C41.2384 38.1344 41.3723 38.1501 41.4826 38.1737C41.5969 37.7798 41.5181 37.4804 41.2187 37.2637ZM41.522 35.3806C41.4472 35.3649 41.3566 35.3727 41.3369 35.3412C41.2305 35.1403 41.1753 35.2861 41.1202 35.3688C41.0808 35.4318 41.0532 35.5027 41.0374 35.5776C41.0217 35.6643 40.9862 35.7982 41.0256 35.8376C41.132 35.9322 41.2896 35.9716 41.4156 35.8849C41.4747 35.8415 41.4984 35.7312 41.5141 35.6485C41.5338 35.5658 41.522 35.4791 41.522 35.3806ZM40.9193 33.9742C40.9232 34.0294 40.9271 34.116 40.935 34.2539C41.0099 34.1909 41.0493 34.1594 41.0847 34.1279C41.2581 33.9742 41.2896 33.986 41.4196 34.1751C41.5181 34.3169 41.6441 34.4351 41.7544 34.5651C41.7702 34.5533 41.7899 34.5454 41.8057 34.5336C41.7938 34.4824 41.786 34.4312 41.7663 34.3839C41.6993 34.2145 41.6205 34.0491 41.5653 33.8757C41.5141 33.7221 41.4156 33.6827 41.2738 33.7733C41.1714 33.8363 41.0611 33.8915 40.9193 33.9742ZM43.1293 41.806C42.8496 41.6248 42.6527 41.5657 42.5857 41.6642C42.5148 41.7666 42.5029 41.9163 42.4557 42.066C42.629 42.0857 42.7669 42.1409 42.8614 42.0975C42.9639 42.0502 43.0308 41.9163 43.1293 41.806ZM42.6369 40.6596C42.6645 40.5532 42.6881 40.4823 42.6999 40.4075C42.7157 40.3011 42.763 40.1593 42.7157 40.1002C42.6684 40.0411 42.5069 40.0293 42.4163 40.0608C42.3296 40.0923 42.2035 40.2184 42.2154 40.2775C42.2429 40.4035 42.3375 40.5256 42.4281 40.6241C42.4636 40.6675 42.566 40.6517 42.6369 40.6596ZM40.7341 39.1153C40.9153 39.1311 41.2423 38.9498 41.2423 38.8435C41.2462 38.741 41.2108 38.5874 41.1399 38.5441C41.069 38.5007 40.8877 38.4377 40.8326 38.6071C40.7814 38.7647 40.7656 38.9341 40.7341 39.1153ZM42.3887 21.025C42.3848 21.285 42.5739 21.4426 42.7196 21.612C42.759 21.6553 42.9087 21.5962 43.0033 21.5844C42.9954 21.2653 42.6605 20.9698 42.3887 21.025ZM42.8496 38.8986C42.9993 38.871 43.1333 38.8435 43.2672 38.8159C43.4327 38.7844 43.3893 38.6583 43.3499 38.5756C43.2987 38.4732 43.2081 38.3904 43.1333 38.2998C43.0427 38.3392 42.9521 38.3825 42.8536 38.4259C42.8496 38.5677 42.8496 38.7095 42.8496 38.8986ZM43.9094 31.5593C43.9645 31.3741 43.8739 31.2481 43.7675 31.1259C43.7242 31.0787 43.6494 31.0077 43.61 31.0196C43.4721 31.059 43.3302 31.2678 43.3618 31.3544C43.3696 31.3702 43.3815 31.3899 43.3933 31.3978C43.5509 31.5002 43.7084 31.5987 43.9094 31.5593ZM37.8307 28.4077C37.7913 28.321 37.7598 28.2422 37.7164 28.1713C37.6337 28.0334 37.3619 28.0019 37.2555 28.1201C37.2319 28.1437 37.2279 28.2067 37.2397 28.2422C37.3146 28.3958 37.6534 28.4983 37.8307 28.4077ZM41.8293 22.065C41.8293 22.1438 41.8293 22.2068 41.8293 22.2699C41.8293 22.3408 41.8293 22.4078 41.8293 22.4747C42.176 22.5181 42.2429 22.4826 42.3414 22.1911C42.1799 22.1556 42.0223 22.1162 41.8293 22.065ZM43.8503 40.0687C43.8503 39.8953 43.7439 39.7377 43.6494 39.7338C43.5903 39.7338 43.3381 39.9544 43.3657 39.9977C43.4287 40.0962 43.5075 40.242 43.5942 40.2499C43.673 40.2578 43.7754 40.1238 43.8503 40.0687ZM44.1063 37.0707C44.1063 36.8973 44.1063 36.7437 44.1063 36.594C43.8936 36.5388 43.74 36.5782 43.6612 36.8107C43.8227 36.8737 43.8581 37.1258 44.1063 37.0707ZM36.2036 40.3878C36.18 40.3602 36.1367 40.2775 36.0815 40.2696C36.0106 40.2538 35.9121 40.2775 35.853 40.3247C35.8215 40.3523 35.8412 40.4547 35.853 40.5217C35.8648 40.5887 35.8885 40.6596 35.9279 40.7108C35.9594 40.7541 36.0185 40.7896 36.0736 40.8014C36.0933 40.8054 36.1485 40.7423 36.1564 40.699C36.18 40.6123 36.1839 40.5217 36.2036 40.3878ZM36.7828 32.0123C36.8103 31.8705 36.767 31.7523 36.6449 31.6814C36.5976 31.6538 36.507 31.6381 36.4715 31.6656C36.3336 31.772 36.2627 31.9099 36.3336 32.0872C36.4834 32.0596 36.6291 32.036 36.7828 32.0123ZM37.7479 37.0864C37.7164 37.0037 37.7125 36.9092 37.6613 36.8698C37.5904 36.8186 37.4761 36.7792 37.4013 36.7989C37.3304 36.8186 37.2319 36.921 37.2358 36.9879C37.2358 37.1416 37.4919 37.244 37.6258 37.1613C37.6613 37.1377 37.6967 37.114 37.7479 37.0864ZM36.3612 38.8041C36.4282 38.8829 36.503 39.0247 36.5661 39.0207C36.6724 39.0129 36.7985 38.9301 36.8615 38.8435C36.9088 38.7765 36.6961 38.611 36.574 38.5992C36.4321 38.5874 36.4046 38.6662 36.3612 38.8041ZM35.9673 35.2743C36.2233 35.3058 36.2233 35.3058 36.3455 35.1482C36.4282 35.0379 36.4085 34.8882 36.2785 34.833C36.2352 34.8133 36.1288 34.8764 36.0973 34.9315C36.0342 35.0261 36.0106 35.1443 35.9673 35.2743ZM42.9166 11.4441C42.8339 11.5465 42.763 11.6371 42.6881 11.7277C42.8221 11.7868 42.956 11.8538 43.0939 11.905C43.1372 11.9207 43.1924 11.901 43.283 11.8932C43.1569 11.7395 43.0505 11.6095 42.9166 11.4441ZM41.6481 23.6999C41.4669 23.6526 41.3172 23.7039 41.3211 23.822C41.325 23.9639 41.4314 24.1018 41.4944 24.2436C41.5181 24.2396 41.5417 24.2357 41.5653 24.2318C41.5929 24.0545 41.6205 23.8772 41.6481 23.6999ZM43.0821 20.5916C43.0427 20.4892 43.0111 20.3947 42.9678 20.3119C42.9521 20.2804 42.8772 20.2489 42.8575 20.2647C42.8221 20.2883 42.7787 20.3789 42.7827 20.3789C42.8693 20.4419 42.8536 20.6389 43.0821 20.5916ZM40.7656 41.089C40.7853 41.219 40.7893 41.3648 40.9626 41.3372C41.0138 41.3293 41.0493 41.1993 41.1084 41.089C40.9508 41.089 40.8641 41.089 40.7656 41.089ZM43.279 10.9083C43.279 10.8452 43.279 10.7901 43.279 10.6837C43.1569 10.7586 43.0624 10.8137 42.9678 10.8689C42.9718 10.8807 42.9757 10.8965 42.9796 10.9083C43.0742 10.9083 43.1648 10.9083 43.279 10.9083ZM39.4262 38.9104C39.4498 38.8868 39.4774 38.8632 39.501 38.8395C39.4538 38.7686 39.4025 38.7016 39.3553 38.6307C39.3119 38.678 39.2725 38.7213 39.2292 38.7686C39.2962 38.8159 39.3592 38.8632 39.4262 38.9104Z" fill="white"/>
<path d="M21.2051 60.519C21.1933 60.5112 21.1539 60.4875 21.1145 60.4599C21.1027 60.4678 21.0869 60.4718 21.0869 60.4796C21.0436 60.7909 20.9727 61.0981 20.9648 61.4094C20.9451 62.02 20.953 62.6306 20.9648 63.2412C20.9687 63.4303 20.9136 63.5052 20.7205 63.4934C20.5117 63.4816 20.299 63.4894 20.0902 63.4894C19.9956 63.4894 19.905 63.4894 19.8814 63.3634C19.8775 63.3358 19.8144 63.2925 19.7869 63.2964C19.7475 63.3003 19.7159 63.3476 19.6765 63.3752C19.6135 63.4146 19.5465 63.4894 19.4796 63.4894C18.6011 63.4973 17.7225 63.4934 16.8401 63.4934C16.6983 63.4934 16.6234 63.4422 16.6274 63.2846C16.6313 62.7134 16.6313 62.1421 16.6313 61.5709C16.6313 60.4008 16.6313 59.2269 16.6274 58.0568C16.6274 58.0371 16.6234 58.0174 16.6155 57.9859C16.3555 57.9859 16.0995 57.9859 15.8079 57.9859C15.8079 58.0608 15.8079 58.1356 15.8079 58.2105C15.8079 59.869 15.8079 61.5315 15.8079 63.19C15.8079 63.4737 15.7882 63.4894 15.5085 63.4894C14.2676 63.4855 13.0266 63.4894 11.7896 63.4855C11.5099 63.4855 11.4902 63.4579 11.4351 63.19C11.4075 63.0561 11.3287 62.934 11.2854 62.804C11.2263 62.6306 11.1278 62.4494 11.1356 62.2761C11.1632 61.6536 11.2341 61.0351 11.2814 60.4166C11.2893 60.2905 11.2814 60.1566 11.246 60.0345C11.1672 59.7469 11.2066 59.4869 11.4035 59.2663C11.4784 59.1835 11.4902 59.1166 11.4193 59.0299C11.1553 58.7108 11.1199 58.3365 11.116 57.9308C11.1081 57.1744 11.305 56.4534 11.4114 55.7207C11.4626 55.378 11.4587 55.0313 11.4784 54.6846C11.4784 54.661 11.4784 54.6294 11.4666 54.6097C11.2499 54.2946 11.3444 53.9755 11.4508 53.6603C11.4823 53.5697 11.4784 53.5146 11.3957 53.4436C11.3444 53.4042 11.3287 53.2939 11.3326 53.2191C11.376 52.7188 11.4351 52.2185 11.4784 51.7181C11.4863 51.6315 11.4784 51.529 11.439 51.4502C11.2775 51.1114 11.3208 50.7687 11.3641 50.4141C11.4154 50.0005 11.439 49.579 11.4823 49.1653C11.4902 49.0865 11.5217 48.9959 11.5769 48.9447C11.8369 48.6768 12.1008 48.4089 12.3727 48.1568C12.4357 48.0977 12.546 48.0662 12.6327 48.0662C14.8979 48.0622 17.1592 48.0622 19.4244 48.0662C19.5032 48.0662 19.5781 48.1056 19.6568 48.1253C19.6805 48.1332 19.7159 48.1489 19.7317 48.1371C20.0429 47.9756 20.102 48.3341 20.2951 48.4168C20.3817 48.4523 20.4251 48.5744 20.5038 48.6335C20.9254 48.9644 20.9845 49.4056 20.9766 49.9099C20.949 51.1351 20.9569 52.3642 20.9727 53.5894C20.9805 54.0503 21.0554 54.5113 21.0908 54.9761C21.1578 55.8192 21.2366 56.6583 21.2681 57.5014C21.2839 57.8914 21.1933 58.2853 21.1578 58.6793C21.1342 58.9432 21.2287 59.1638 21.4099 59.3569C21.4454 59.3963 21.4769 59.4711 21.4651 59.5223C21.3824 59.8493 21.2918 60.1763 21.2051 60.519ZM15.4967 51.9151C15.4967 52.9709 15.4967 54.007 15.4967 55.0549C15.9537 55.0549 16.4028 55.0549 16.8519 55.0549C16.8519 53.9991 16.8519 52.963 16.8519 51.9151C16.3949 51.9151 15.9576 51.9151 15.4967 51.9151ZM18.6089 62.5203C18.5932 62.5361 18.5774 62.5518 18.5577 62.5676C18.5814 62.6464 18.5932 62.7291 18.6326 62.7961C18.6523 62.8276 18.7232 62.8315 18.7705 62.8473C18.7823 62.7961 18.8256 62.7252 18.8059 62.7015C18.7547 62.6306 18.6759 62.5794 18.6089 62.5203Z" fill="white"/>
<path d="M34.8883 58.939C34.4825 58.5332 34.4471 58.025 34.5022 57.5089C34.5771 56.8274 34.6756 56.1498 34.7622 55.4722C34.7977 55.2082 34.8371 54.9443 34.8647 54.6764C34.8922 54.44 34.841 54.2273 34.711 54.0224C34.6677 53.9555 34.6874 53.8373 34.7031 53.7467C34.7268 53.6324 34.7701 53.5221 34.8134 53.4157C34.8647 53.2936 34.841 53.2227 34.7425 53.1203C34.6716 53.0454 34.6559 52.8248 34.715 52.7342C34.9316 52.4072 34.8528 52.0527 34.8647 51.706C34.8765 51.4381 34.8489 51.186 34.7386 50.926C34.6559 50.7329 34.6913 50.4808 34.715 50.2562C34.7622 49.8426 34.8331 49.4289 34.904 49.0153C34.9198 48.9247 34.9592 48.8301 35.0144 48.7553C35.168 48.5425 35.3374 48.3416 35.491 48.1289C35.5698 48.0186 35.6565 47.9713 35.7983 47.9713C38.2723 47.9753 40.7464 47.9753 43.2204 47.9713C43.3701 47.9713 43.4607 48.0343 43.5592 48.1407C43.8113 48.4165 44.091 48.6686 44.3432 48.9404C44.4101 49.0113 44.4613 49.1295 44.4613 49.228C44.4692 50.6266 44.4535 52.0251 44.4732 53.4197C44.481 53.9358 44.5519 54.4479 44.5992 54.964C44.6465 55.4801 44.6977 55.9922 44.741 56.5083C44.7529 56.658 44.7686 56.8077 44.7686 56.9613C44.7686 57.1386 44.8317 57.3198 44.682 57.4813C44.6386 57.5286 44.6504 57.631 44.6504 57.7098C44.6465 57.9935 44.6189 58.2771 44.6583 58.5568C44.682 58.7459 44.7765 58.939 44.8789 59.1044C44.9498 59.2226 45.0011 59.3093 44.9223 59.4353C44.7568 59.7111 44.7726 60.0223 44.7844 60.3414C44.7095 60.3335 44.6544 60.3257 44.5756 60.3138C44.5401 60.566 44.481 60.8142 44.4732 61.0663C44.4574 61.4918 44.4732 61.9172 44.4653 62.3466C44.4653 62.4215 44.4338 62.516 44.3825 62.5673C44.1068 62.8548 43.8192 63.1385 43.5356 63.4143C43.4962 63.4497 43.4371 63.4812 43.3859 63.4852C42.854 63.4891 42.3222 63.4891 41.8219 63.4891C41.7588 63.4103 41.7194 63.3433 41.6643 63.2921C41.6485 63.2803 41.5579 63.3079 41.554 63.3315C41.5146 63.5167 41.3728 63.4891 41.2467 63.4891C40.9118 63.4891 40.577 63.493 40.2421 63.4852C40.1436 63.4812 40.0451 63.4379 39.9466 63.4143C39.9191 63.4064 39.8915 63.3906 39.8639 63.3946C39.5448 63.4261 39.2296 63.4852 38.9145 63.4891C37.8705 63.5009 36.8265 63.4891 35.7865 63.493C35.6368 63.493 35.5304 63.4537 35.4201 63.3473C35.235 63.1661 34.9907 63.0282 34.8371 62.8233C34.6283 62.5436 34.4589 62.2442 34.514 61.8424C34.6204 61.0663 34.7386 60.2823 34.6362 59.4944C34.5928 59.2581 34.7504 59.132 34.8883 58.939ZM40.3957 59.5417C40.3957 56.9771 40.3957 54.4321 40.3957 51.8872C40.3642 51.8793 40.3524 51.8754 40.3406 51.8754C39.9782 51.8754 39.6197 51.8754 39.2572 51.8714C38.9539 51.8714 38.9539 51.8714 38.9539 52.1748C38.9539 54.5582 38.9539 56.9377 38.9539 59.3211C38.9539 59.392 38.9539 59.4629 38.9539 59.5417C39.4424 59.5417 39.9151 59.5417 40.3957 59.5417ZM37.0629 48.9877C37.1614 48.9759 37.2441 48.972 37.3229 48.9601C37.3978 48.9483 37.4687 48.9247 37.5396 48.9089C37.5357 48.8932 37.5278 48.8774 37.5238 48.8616C37.3347 48.8144 37.1496 48.7671 36.9132 48.708C36.9881 48.838 37.0275 48.9168 37.0629 48.9877Z" fill="white"/>
<path d="M0.249512 63.4104C0.249512 63.3198 0.249512 63.2489 0.249512 63.178C0.249512 58.2378 0.249512 53.2977 0.249512 48.3575C0.249512 48.0581 0.249512 48.0581 0.541037 48.0581C3.21598 48.0581 5.89485 48.0581 8.56979 48.062C8.6604 48.062 8.77465 48.1054 8.84162 48.1684C9.11739 48.4442 9.38134 48.7318 9.64922 49.0194C9.68074 49.0509 9.72408 49.0942 9.72801 49.1297C9.73589 49.4566 9.76741 49.7876 9.7162 50.1067C9.70044 50.2091 9.75165 50.2642 9.74771 50.343C9.73589 50.9852 9.73195 51.6273 9.74377 52.2734C9.75953 53.1283 9.77923 53.9832 9.81468 54.838C9.84226 55.4526 9.89348 56.0672 9.93681 56.6817C9.94469 56.7802 9.95651 56.8787 9.96439 56.9733C9.96833 57.0324 9.98409 57.1151 9.95257 57.1427C9.80681 57.2648 9.84226 57.4263 9.83832 57.5799C9.83438 57.7848 9.8462 57.9857 9.83438 58.1906C9.82256 58.4742 9.90923 58.7145 10.1062 58.9194C10.1377 58.9509 10.1653 59.0218 10.1535 59.0494C9.98408 59.3842 9.94469 59.7427 9.9762 60.117C9.88954 60.117 9.8265 60.117 9.73589 60.117C9.73589 60.1879 9.73589 60.2588 9.73589 60.3297C9.73589 61.0113 9.73983 61.6928 9.73195 62.3783C9.73195 62.4807 9.6768 62.6068 9.60589 62.6816C9.37346 62.9338 9.12921 63.1701 8.88102 63.4026C8.8298 63.4498 8.74707 63.4892 8.6801 63.4892C5.94607 63.4695 3.2081 63.4459 0.474065 63.4223C0.407093 63.4223 0.340121 63.4144 0.249512 63.4104ZM5.91061 59.5418C5.91061 57.0008 5.91061 54.4795 5.91061 51.9622C5.46151 51.9622 5.02422 51.9622 4.59481 51.9622C4.59481 54.4953 4.59481 57.0166 4.59481 59.5418C5.03998 59.5418 5.47333 59.5418 5.91061 59.5418ZM3.90539 60.3613C3.87388 60.377 3.83842 60.3967 3.80691 60.4125C3.85024 60.5031 3.89357 60.5976 3.93691 60.6882C3.98812 60.6607 4.0354 60.6331 4.08661 60.6094C4.02358 60.5228 3.96449 60.444 3.90539 60.3613Z" fill="white"/>
<path d="M27.7715 57.7293C27.7715 57.8318 27.7715 57.9106 27.7715 57.9854C27.7715 59.4864 27.7715 60.9913 27.7715 62.4922C27.7715 62.6144 27.807 62.7522 27.6258 62.7877C27.6179 62.7877 27.6139 62.8822 27.6258 62.9256C27.6691 63.0674 27.7321 63.2013 27.7636 63.3432C27.7715 63.3786 27.6809 63.4732 27.6376 63.4732C26.4991 63.4811 25.3566 63.485 24.2181 63.485C24.0959 63.485 23.9581 63.5205 23.9502 63.3195C23.9502 63.288 23.8517 63.2486 23.7926 63.2289C23.5602 63.1541 23.3947 63.0359 23.3711 62.7601C23.3593 62.638 23.3002 62.4883 23.2135 62.4134C22.8944 62.1337 22.922 61.7792 22.9495 61.4207C22.9929 60.8849 23.052 60.3531 23.0914 59.8173C23.1032 59.6715 23.0599 59.5179 23.0323 59.3721C22.9732 59.057 22.9968 58.7694 23.2844 58.5724C23.2844 58.5488 23.2883 58.533 23.2805 58.5251C22.7683 57.8278 22.9023 57.0439 23.0008 56.2757C23.0914 55.5705 23.2253 54.8692 23.3277 54.168C23.3435 54.0616 23.308 53.9277 23.2529 53.8332C23.0874 53.5416 23.0992 53.254 23.2293 52.9586C23.2529 52.9074 23.2726 52.8128 23.245 52.7852C23.0008 52.5331 23.0874 52.2652 23.245 52.0367C23.3947 51.8201 23.4341 51.5994 23.4065 51.3552C23.3908 51.2212 23.3632 51.0834 23.308 50.9652C22.9968 50.2836 23.0914 49.6139 23.3396 48.9363C23.4144 48.7315 23.4065 48.4872 23.4065 48.2627C23.4065 48.0775 23.4656 48.0066 23.6587 48.0105C24.1787 48.0223 24.6948 48.0145 25.2148 48.0145C27.1806 48.0145 29.1425 48.0145 31.1083 48.0105C31.2501 48.0105 31.3526 48.0499 31.451 48.1524C31.9041 48.6172 32.369 49.0703 32.822 49.5351C32.885 49.6021 32.9362 49.7124 32.9362 49.803C32.9441 51.8555 32.9441 53.9119 32.9362 55.9644C32.9362 56.0629 32.8811 56.1811 32.8141 56.252C32.3493 56.7248 31.8765 57.1896 31.3998 57.6506C31.3486 57.7018 31.2541 57.7254 31.1792 57.7293C30.1352 57.7333 29.0913 57.7333 28.0512 57.7333C27.9606 57.7293 27.8818 57.7293 27.7715 57.7293ZM29.0598 55.0544C29.0598 54.0026 29.0598 52.9625 29.0598 51.9264C28.6067 51.9264 28.1655 51.9264 27.7203 51.9264C27.7203 52.9783 27.7203 54.0144 27.7203 55.0544C28.1773 55.0544 28.6225 55.0544 29.0598 55.0544ZM23.4814 48.9442C23.4656 48.956 23.4499 48.9678 23.438 48.9797C23.4735 49.0703 23.505 49.1609 23.5523 49.2436C23.572 49.2751 23.635 49.2791 23.6784 49.2948C23.6902 49.2436 23.7256 49.1688 23.702 49.1412C23.6429 49.0624 23.5562 49.0072 23.4814 48.9442Z" fill="white"/>
<path d="M52.093 51.9938C51.5179 51.9938 50.9978 51.9938 50.4463 51.9938C50.4463 52.0805 50.4463 52.1554 50.4463 52.2302C50.4463 53.5736 50.4424 54.9209 50.4502 56.2643C50.4502 56.4613 50.4463 56.6386 50.2651 56.7686C50.2257 56.7961 50.2099 56.8513 50.1705 56.9143C50.2572 56.9143 50.3242 56.9143 50.4187 56.9143C50.4384 57.2058 50.4621 57.4974 50.4778 57.7928C50.4778 57.8165 50.4778 57.8559 50.4621 57.8677C50.2611 58.0213 50.3636 58.2025 50.403 58.3877C50.4345 58.5335 50.4345 58.6832 50.4424 58.8329C50.4424 58.8644 50.4227 58.9156 50.399 58.9274C50.1666 59.022 50.2414 59.1914 50.2887 59.3568C50.3045 59.412 50.3321 59.4671 50.3557 59.5183C50.4187 59.6484 50.4581 59.7587 50.3596 59.9084C50.269 60.0423 50.2296 60.2275 50.3754 60.3811C50.0405 60.4757 50.0169 60.5466 50.2021 60.842C50.206 60.846 50.206 60.8538 50.2099 60.8578C50.6157 61.2754 50.4699 61.7875 50.4345 62.276C50.4266 62.3745 50.3596 62.4691 50.3045 62.5557C50.1036 62.8669 50.1036 62.8669 50.336 63.186C50.1548 63.3397 49.946 63.4461 49.7096 63.4539C48.8508 63.4776 47.992 63.4855 47.1332 63.4933C47.0583 63.4933 46.9716 63.4539 46.9165 63.3988C46.6919 63.186 46.4871 62.9576 46.2586 62.7488C46.1089 62.6148 46.0301 62.4612 46.0104 62.2642C45.9789 61.9648 45.9158 61.6693 45.9001 61.3699C45.8922 61.1966 45.9355 61.0232 45.971 60.8499C46.101 60.2235 46.0577 59.6011 45.9158 58.9826C45.9001 58.9156 45.908 58.8211 45.9474 58.7698C46.0498 58.6398 46.0577 58.5059 45.9946 58.368C45.7819 57.9031 45.9868 57.458 46.0577 57.0089C46.0734 56.8986 46.2389 56.8158 46.3334 56.7173C46.3846 56.6622 46.424 56.6031 46.4989 56.5085C46.3886 56.4967 46.3216 56.4928 46.2468 56.4849C46.2231 56.5992 46.2586 56.7528 46.0498 56.737C45.9828 56.3667 45.9001 56.0003 45.8528 55.6261C45.7937 55.1573 45.778 54.6885 45.7189 54.2197C45.6677 53.7824 45.7228 53.3766 45.9474 52.9945C46.0025 52.8999 46.0695 52.7936 45.904 52.7108C45.8449 52.6793 45.8095 52.5533 45.8055 52.4705C45.7977 52.3011 45.8292 52.1317 45.8331 51.9623C45.8371 51.6905 45.8489 51.4147 45.8331 51.1429C45.8055 50.6662 45.7425 50.1895 45.7267 49.7129C45.7189 49.5316 45.7464 49.311 45.8449 49.1731C46.1089 48.8028 46.4201 48.468 46.7195 48.1213C46.7471 48.0858 46.8101 48.0622 46.8574 48.0661C47.5074 48.0858 48.1535 48.1095 48.8035 48.1331C48.8232 48.1331 48.839 48.1489 48.8626 48.1567C48.839 48.2513 48.8114 48.3419 48.7838 48.4443C48.9966 48.4798 49.0872 48.3222 49.1738 48.2001C49.2526 48.0898 49.3314 48.0543 49.4614 48.0543C51.1003 48.0583 52.743 48.0543 54.3819 48.0622C54.4725 48.0622 54.5828 48.1095 54.6498 48.1725C54.9374 48.4404 55.2171 48.7201 55.4889 49.0037C55.5441 49.0628 55.5874 49.1613 55.5874 49.2401C55.5795 50.3156 55.5637 51.3911 55.5559 52.4666C55.5559 52.573 55.5125 52.6084 55.418 52.6399C55.0477 52.7581 54.6774 52.8881 54.311 53.0142C54.2479 53.0339 54.1731 53.0418 54.1298 53.0812C53.917 53.2703 53.6964 53.1875 53.4719 53.1245C53.0267 52.9984 52.5815 52.9275 52.0773 53.0181C52.093 52.6714 52.093 52.3445 52.093 51.9938ZM48.9335 60.8735C48.6105 60.7987 48.3465 60.7357 48.0865 60.6726C48.0432 60.7987 47.988 60.8932 47.9802 60.9878C47.9683 61.0784 47.9999 61.1769 48.0196 61.3069C48.315 61.0942 48.6656 61.1375 48.9335 60.8735Z" fill="white"/>
<path d="M62.9917 58.7265C62.5505 59.2741 62.6135 59.9123 62.6096 60.5387C62.6096 60.649 62.5741 60.7593 62.5544 60.8893C62.5702 60.9563 62.6096 61.0508 62.6096 61.1493C62.6135 61.8466 62.6135 62.54 62.6135 63.2373C62.6135 63.4697 62.5899 63.4973 62.3496 63.4854C61.9399 63.4697 61.5262 63.4342 61.1165 63.4263C60.8053 63.4224 60.4901 63.45 60.1789 63.4539C59.5958 63.4657 59.0128 63.4697 58.4297 63.4894C58.2603 63.4933 58.2209 63.4342 58.2209 63.2727C58.2249 61.756 58.2012 60.2432 58.2328 58.7265C58.2485 57.974 58.1185 57.261 57.9255 56.544C57.4567 54.8027 56.9997 53.0575 56.5309 51.2926C56.6136 51.2729 56.7003 51.2571 56.783 51.2335C56.9209 51.1981 56.9406 51.1075 56.8421 51.0247C56.7515 50.9459 56.6254 50.9065 56.527 50.8356C56.46 50.7883 56.3812 50.7253 56.3615 50.6544C56.133 49.8389 55.9203 49.0195 55.6957 48.204C55.6484 48.0346 55.6957 48.0031 55.8533 48.0031C56.8776 48.007 57.9018 48.007 58.9222 48.0031C59.0443 48.0031 59.0916 48.0386 59.1192 48.1607C59.4658 49.5435 59.8204 50.9262 60.175 52.3051C60.1789 52.3169 60.175 52.3326 60.171 52.3445C60.108 52.4351 59.9189 52.2263 59.911 52.4587C60.0292 52.506 60.1474 52.5533 60.2656 52.6045C60.4468 52.439 60.4665 52.3366 60.3522 52.1199C60.305 52.0332 60.3759 51.6156 60.4625 51.5802C60.5256 51.5526 60.6122 51.5763 60.7147 51.5763C60.7107 51.5093 60.7068 51.4423 60.7029 51.3753C60.9668 51.202 61.0732 50.7332 60.8998 50.4692C60.6792 50.1304 60.6122 49.7759 60.7619 49.3859C60.9038 49.0195 61.0377 48.6531 61.1795 48.2907C61.2032 48.2316 61.2426 48.1764 61.2741 48.1213C61.3962 47.9086 61.5656 47.8101 61.8256 47.8573C62.8893 48.0464 63.9648 48.0149 65.0403 48.0149C65.0678 48.0149 65.0915 48.0189 65.1388 48.0228C65.0009 48.5586 64.8669 49.0825 64.733 49.6104C64.2287 51.5644 63.7205 53.5184 63.232 55.4764C63.1414 55.8428 63.1572 56.2328 63.0941 56.6031C63.0547 56.8434 62.9405 57.0679 62.8854 57.3043C62.8223 57.5643 62.7908 57.8322 62.7435 58.0922C62.6923 58.3483 62.7908 58.5413 62.9917 58.7265ZM61.2504 60.8144C60.9156 60.6963 60.6004 60.582 60.2734 60.4678C60.2459 60.4914 60.2065 60.5269 60.1986 60.5308C60.2616 60.716 60.3168 60.8775 60.3798 61.0626C60.5886 61.0035 60.7974 60.8066 60.9904 60.976C61.081 60.9169 61.152 60.8735 61.2504 60.8144ZM58.8119 59.7665C59.0719 59.6956 59.324 59.6286 59.6077 59.5499C59.4146 59.4514 59.2728 59.2898 59.0364 59.345C58.9498 59.3647 58.8434 59.3726 58.8158 59.2347C58.8119 59.215 58.7094 59.1835 58.6819 59.2032C58.6425 59.2308 58.5991 59.3095 58.6149 59.345C58.6701 59.4986 58.7488 59.6405 58.8119 59.7665ZM58.4455 52.4154C58.4494 52.3878 58.4494 52.3563 58.4534 52.3287C58.1422 52.2342 57.8309 52.1357 57.4606 52.0214C57.5355 52.2381 57.5985 52.4232 57.6497 52.573C57.9412 52.5178 58.1934 52.4666 58.4455 52.4154Z" fill="white"/>
<path d="M66.7247 52.207C66.8232 52.2504 66.8665 52.274 66.9217 52.2976C66.9295 52.2464 66.9453 52.2031 66.9453 52.1597C66.9492 51.6555 66.9492 51.1512 66.9532 50.643C66.9532 49.8945 66.9532 49.146 66.9532 48.4014C66.9532 48.1848 66.9965 48.1375 67.2171 48.1375C68.2217 48.1375 69.2223 48.1375 70.2269 48.1335C70.3963 48.1335 70.4672 48.2045 70.4554 48.3699C70.4278 48.8387 70.483 49.2918 70.6327 49.7409C70.6878 49.9103 70.6524 50.1151 70.6406 50.3042C70.5854 51.0685 70.5145 51.8328 70.4672 52.597C70.4554 52.8216 70.5224 53.054 70.5184 53.2786C70.5106 53.6292 70.4633 53.9798 70.4554 54.3344C70.4515 54.5195 70.4751 54.7204 70.5421 54.8898C70.7588 55.4296 70.6366 55.9929 70.6642 56.5405C70.6681 56.5799 70.6366 56.6429 70.6051 56.6587C70.4081 56.7414 70.4515 56.9069 70.4515 57.0605C70.4593 57.4623 70.4633 57.8602 70.4751 58.2621C70.479 58.4315 70.416 58.5103 70.2466 58.4906C70.1008 58.4748 69.9236 58.5497 69.8369 58.3487C69.833 58.3369 69.7227 58.3684 69.6675 58.3842C69.5533 58.4157 69.439 58.4787 69.3248 58.4827C69.0096 58.4984 68.6944 58.4945 68.3793 58.4827C68.265 58.4787 68.1508 58.4197 68.0365 58.396C67.9774 58.3842 67.8908 58.3645 67.8553 58.3921C67.6229 58.5733 67.3629 58.463 67.1147 58.4748C67.0714 58.4787 66.9847 58.3527 66.9768 58.2818C66.9532 58.0493 66.9374 57.809 66.9492 57.5766C66.9689 57.2023 66.898 56.8517 66.7759 56.5011C66.7444 56.4144 66.772 56.3081 66.7838 56.2135C66.7995 56.0914 66.8389 55.9693 66.8389 55.8471C66.8389 55.3705 66.8429 54.8938 66.8153 54.4171C66.8074 54.2753 66.7365 54.1256 66.6538 54.0034C66.5395 53.834 66.5041 53.6725 66.5868 53.4834C66.7207 53.1683 66.7247 52.8373 66.7129 52.5025C66.7207 52.4158 66.7247 52.3331 66.7247 52.207Z" fill="white"/>
<path d="M61.5197 5.25499C61.4291 4.99498 61.3228 4.73891 61.2519 4.47496C61.0825 3.85252 60.9367 3.22219 60.7752 2.59975C60.7515 2.51702 60.7003 2.44216 60.6609 2.36337C60.6412 2.36731 60.6215 2.37125 60.5979 2.37519C60.5349 2.54065 60.4758 2.71005 60.4127 2.87551C60.1646 3.51372 59.9242 4.15192 59.6682 4.78224C59.5303 5.1171 59.5027 5.10529 59.1482 5.07377C58.3721 5.0068 57.592 4.95558 56.816 4.89649C56.7529 4.89255 56.6899 4.89649 56.5678 4.89649C56.8475 5.1565 57.0838 5.38893 57.336 5.59773C57.6669 5.87349 58.0096 6.12956 58.3445 6.40533C58.3918 6.44473 58.4075 6.51958 58.443 6.58655C57.9387 6.58655 57.4739 6.62594 57.0169 6.57473C56.4811 6.51564 55.9532 6.38957 55.4253 6.26745C55.2283 6.22017 55.0353 6.11774 54.858 6.01138C54.7713 5.96016 54.7004 5.8538 54.661 5.75925C54.598 5.60955 54.7398 5.58591 54.8344 5.53075C54.8619 5.515 54.8777 5.4559 54.8816 5.41257C54.9053 5.09741 54.9407 4.78618 54.9447 4.47102C54.9486 4.18738 54.7713 4.00616 54.5428 3.86039C54.4798 3.821 54.4207 3.77766 54.3262 3.71463C54.7122 3.63584 54.7319 3.34038 54.791 3.07249C54.8029 3.02128 54.791 2.96612 54.8068 2.91491C54.8344 2.83218 54.8738 2.75339 54.9053 2.67066C54.9801 2.71005 55.051 2.74551 55.1456 2.79278C55.4017 2.4658 55.5632 2.08761 55.575 1.65032C55.5789 1.44546 55.6144 1.24455 55.6065 1.04363C55.5986 0.838777 55.6814 0.736349 55.8823 0.720591C55.898 0.570889 55.9059 0.429066 55.9296 0.287243C55.9571 0.125723 56.0399 0.0154159 56.225 0.0193554C56.4614 0.0232949 56.7175 -0.035798 56.9341 0.0351135C57.2572 0.141481 57.5842 0.121783 57.9072 0.153299C58.506 0.212392 59.1127 0.22815 59.7076 0.306941C60.2433 0.377852 60.7712 0.492099 61.2991 0.606345C61.6261 0.677257 61.8546 0.909689 62.0161 1.18152C62.0792 1.29182 62.0358 1.4691 62.024 1.61486C61.9492 2.47368 61.8704 3.33644 61.7955 4.19525C61.7758 4.43557 61.7758 4.67982 61.7482 4.92013C61.7325 5.03437 61.6655 5.14468 61.6222 5.25893C61.5828 5.25499 61.5513 5.25499 61.5197 5.25499ZM56.0044 3.4428C56.0044 3.60039 56.0399 3.72251 56.2408 3.71857C56.5008 3.71463 56.6781 3.6122 56.6702 3.45856C56.6584 3.10795 56.6072 3.04885 56.3393 3.04885C56.1147 3.04491 56.0044 3.17492 56.0044 3.4428Z" fill="white"/>
<path d="M70.3843 62.5787C70.2189 62.0784 70.0535 61.5821 69.888 61.0819C69.8723 61.0819 69.8565 61.0819 69.8408 61.0779C69.8211 61.1252 69.7974 61.1764 69.7817 61.2237C69.6753 61.5664 69.569 61.9051 69.4587 62.2478C69.3838 62.4841 69.2302 62.6141 68.9742 62.6102C68.8166 62.6062 68.6433 62.6811 68.5685 62.5393C68.2888 62.5747 68.0407 62.6062 67.761 62.6417C68.1037 62.9095 68.4346 63.1734 68.7654 63.4374C68.7576 63.4571 68.7536 63.4728 68.7457 63.4925C68.0643 63.4177 67.3514 63.654 66.6739 63.2168C66.9378 63.0277 66.6975 62.8111 66.7605 62.6141C66.8432 62.3384 66.603 62.2281 66.4927 62.0981C66.5478 61.9603 66.6148 61.85 66.6384 61.7279C66.666 61.5979 66.6502 61.464 66.8511 61.5388C66.8944 61.5546 66.9575 61.5152 66.9575 61.4758C66.9929 61.3773 67.0362 61.2788 67.0559 61.1764C67.0717 61.0976 67.0481 61.011 67.052 60.9243C67.0559 60.7353 66.9378 60.5226 67.1583 60.3689C67.182 60.3532 67.182 60.2823 67.178 60.239C67.1623 60.0617 67.2568 60.0105 67.4144 60.0105C68.2258 60.0144 69.0412 60.0144 69.8526 60.0144C70.1559 60.0144 70.3607 60.1956 70.5537 60.3926C70.5773 60.4162 70.5852 60.4635 70.5813 60.4989C70.5655 60.6959 70.5498 60.8889 70.534 61.0386C70.4158 61.1134 70.3292 61.1685 70.2386 61.2197C70.3252 61.2473 70.4158 61.2788 70.5143 61.3103C70.5852 61.7239 70.5498 62.4447 70.3843 62.5787ZM68.7063 62.1533C68.6079 62.1139 68.5409 62.0863 68.4306 62.043C68.4582 62.1808 68.4779 62.2754 68.5055 62.4132C68.5842 62.3108 68.6354 62.2439 68.7063 62.1533Z" fill="white"/>
</svg>
