<svg width="87" height="32" viewBox="0 0 87 32" fill="none" xmlns="http://www.w3.org/2000/svg">
<path d="M9.61315 12.6883L6.3873 0H0.365723V31.5703H6.21526V18.3658L9.61315 31.5703H16.1079V0H9.61315V12.6883Z" fill="white"/>
<path d="M25.0541 0.00012207H18.7314V31.5704H25.0541V0.00012207Z" fill="white"/>
<path d="M53.657 0.00012207L50.4742 13.5487H50.4311V0.00012207H44.0225V31.5704H50.4311V18.538H50.7752L53.2269 31.5704H60.1517L56.4097 14.5379L60.1947 0.00012207H53.657Z" fill="white"/>
<path d="M68.2812 0.00012207H61.9585V31.5704H68.2812V0.00012207Z" fill="white"/>
<path d="M78.5181 25.6779L80.3246 18.8391L81.2279 19.7423L86.4752 0.00012207H71.2062L72.3245 5.89267H78.3031L75.9805 14.1938L75.0772 13.2476L70.0449 31.5704H85.2279L83.9376 25.6779H78.5181Z" fill="white"/>
<path d="M34.9469 25.6779L36.7533 18.8391L37.6566 19.7423L42.9039 0.00012207H27.6349L28.7532 5.89267H34.7318L32.4092 14.1938L31.506 13.2476L26.4736 31.5704H41.6566L40.3663 25.6779H34.9469Z" fill="white"/>
</svg>
