<svg width="81" height="79" viewBox="0 0 81 79" fill="none" xmlns="http://www.w3.org/2000/svg">
<path d="M16.1284 8.25339C22.8845 3.06763 31.357 0 40.5599 0C49.7628 0 58.2353 3.06763 64.9914 8.25339H16.1284Z" fill="white"/>
<path d="M8.3833 16.1055C10.4284 13.33 12.8752 10.8102 15.5776 8.65552H65.4997C68.2021 10.8102 70.6489 13.33 72.694 16.1055H8.3833Z" fill="white"/>
<path d="M3.88672 23.9573C4.87274 21.6201 6.1144 19.4289 7.50214 17.3473H73.5657C74.99 19.4289 76.1951 21.6201 77.1812 23.9573H3.88672Z" fill="white"/>
<path d="M1.48096 31.8088C1.84615 29.8367 2.39394 27.9012 3.05129 26.0387H78.0257C78.7195 27.9012 79.2308 29.8367 79.6325 31.8088H1.48096Z" fill="white"/>
<path d="M0.753418 39.6607C0.753418 39.5146 0.753418 39.3686 0.753418 39.259C0.753418 37.7252 0.826457 36.1914 1.00905 34.7306H80.1101C80.2927 36.2279 80.3658 37.7252 80.3658 39.259C80.3658 39.4051 80.3658 39.5512 80.3658 39.6607H0.753418Z" fill="white"/>
<path d="M1.62708 47.5123C1.33492 46.1611 1.1158 44.7734 0.969727 43.3856H80.1438C79.9977 44.7734 79.7786 46.1611 79.4865 47.5123H1.62708Z" fill="white"/>
<path d="M4.25318 55.3639C3.77842 54.3049 3.30367 53.1728 2.93848 52.0406H78.205C77.8033 53.1728 77.3651 54.2683 76.8903 55.3639H4.25318Z" fill="white"/>
<path d="M9.04238 63.2157C8.42155 62.4123 7.80072 61.5724 7.25293 60.7324H73.9009C73.3531 61.5724 72.7322 62.4123 72.1114 63.2157H9.04238Z" fill="white"/>
<path d="M17.2176 71.0672C16.4872 70.5559 15.7569 69.9716 15.063 69.4238H66.0076C65.3137 70.0081 64.5833 70.5559 63.8529 71.0672H17.2176Z" fill="white"/>
<path d="M46.3676 78.1152C44.4686 78.3709 42.533 78.517 40.561 78.517C38.5889 78.517 36.6534 78.3709 34.7544 78.1152H46.3676Z" fill="white"/>
</svg>
