<svg width="73" height="90" viewBox="0 0 73 90" fill="none" xmlns="http://www.w3.org/2000/svg">
<path d="M5.50321 60.3434H0.418673C0.250589 60.3434 0.103516 60.4694 0.103516 60.6585V72.1513C0.103516 72.3194 0.229578 72.4454 0.418673 72.4454H5.54523C9.55823 72.4454 12.1635 70.0712 12.1635 66.3944C12.1425 62.7176 9.53722 60.3434 5.50321 60.3434ZM5.50321 69.2518H3.75934V63.537H5.52422C7.33112 63.537 8.42366 64.6085 8.42366 66.3734C8.42366 67.8021 7.41516 69.2518 5.50321 69.2518Z" fill="white"/>
<path d="M34.7468 63.4526C33.3391 63.4526 32.2045 64.23 31.6793 64.9864C31.3011 63.9569 30.4607 63.4526 29.158 63.4526C27.7293 63.4526 26.6368 64.188 26.2586 64.6712V63.9779C26.2586 63.8098 26.1325 63.6627 25.9434 63.6627H23.2961C23.128 63.6627 23.002 63.7888 23.002 63.9779V72.13C23.002 72.298 23.128 72.4241 23.2961 72.4241H25.9434C26.1115 72.4241 26.2586 72.277 26.2586 72.13V67.0244C26.4477 66.7933 26.8469 66.3311 27.5822 66.3311C28.2336 66.3311 28.5697 66.6882 28.5697 67.3186V72.13C28.5697 72.298 28.7168 72.4241 28.8849 72.4241H31.5322C31.7003 72.4241 31.8474 72.277 31.8474 72.13V67.0244C32.0365 66.7933 32.4357 66.3311 33.192 66.3311C33.8223 66.3311 34.2005 66.6882 34.2005 67.3186V72.13C34.2005 72.298 34.3266 72.4241 34.5157 72.4241H37.163C37.3311 72.4241 37.4782 72.277 37.4782 72.13V66.0789C37.4572 64.3981 36.4907 63.4526 34.7468 63.4526Z" fill="white"/>
<path d="M41.7457 63.6838H39.0984C38.9303 63.6838 38.7832 63.8099 38.7832 63.999V72.1511C38.7832 72.3191 38.9303 72.4452 39.0984 72.4452H41.7457C41.9138 72.4452 42.0608 72.2981 42.0608 72.1511V63.999C42.0398 63.8099 41.9138 63.6838 41.7457 63.6838Z" fill="white"/>
<path d="M40.5102 59.3776C39.5019 59.3776 38.6826 60.1968 38.6826 61.2052C38.6826 62.2135 39.5019 63.0328 40.5102 63.0328C41.5186 63.0328 42.3379 62.2135 42.3379 61.2052C42.3379 60.1968 41.5186 59.3776 40.5102 59.3776Z" fill="white"/>
<path d="M49.7099 63.4526C48.008 63.4526 47.1046 64.209 46.7054 64.6712V63.9779C46.7054 63.8098 46.5583 63.6627 46.3902 63.6627H43.7429C43.5748 63.6627 43.4487 63.7888 43.4487 63.9779V72.13C43.4487 72.298 43.5958 72.4241 43.7429 72.4241H46.3902C46.5583 72.4241 46.7054 72.277 46.7054 72.13V67.0244C46.9155 66.7933 47.3147 66.3311 48.092 66.3311C48.9325 66.3311 49.3527 66.7513 49.3527 67.5707V72.109C49.3527 72.277 49.4787 72.4031 49.6678 72.4031H52.3151C52.4832 72.4031 52.6303 72.256 52.6303 72.109V66.205C52.6303 64.4822 51.5378 63.4526 49.7099 63.4526Z" fill="white"/>
<path d="M17.3962 63.4111C14.833 63.4111 12.7739 65.4912 12.7739 68.0334C12.7739 70.5967 14.854 72.6557 17.3962 72.6557C19.9595 72.6557 22.0185 70.5967 22.0185 68.0334C22.0185 65.4912 19.9595 63.4111 17.3962 63.4111ZM17.3962 69.5462C16.5348 69.5462 15.8204 68.8318 15.8204 67.9704C15.8204 67.109 16.5348 66.3946 17.3962 66.3946C18.2577 66.3946 18.972 67.109 18.972 67.9704C18.993 68.8528 18.2787 69.5462 17.3962 69.5462Z" fill="white"/>
<path d="M58.2185 63.4314C55.6762 63.4314 53.5962 65.4904 53.5962 68.0537C53.5962 70.617 55.6762 72.676 58.2185 72.676C60.7818 72.676 62.8408 70.617 62.8408 68.0537C62.8408 65.4904 60.7608 63.4314 58.2185 63.4314ZM58.2185 69.5665C57.3571 69.5665 56.6427 68.8521 56.6427 67.9907C56.6427 67.1292 57.3571 66.4149 58.2185 66.4149C59.1009 66.4149 59.7943 67.1292 59.7943 67.9907C59.7943 68.8521 59.0799 69.5665 58.2185 69.5665Z" fill="white"/>
<path d="M65.3837 60.847C65.3837 60.826 65.3837 60.826 65.3837 60.826C65.1736 59.9227 64.1863 59.2505 63.22 59.4606C62.2326 59.6706 61.5814 60.5739 61.7705 61.4983C61.9385 62.2545 62.6107 62.8007 63.388 62.8427C63.346 63.1578 63.0519 63.4309 62.8418 63.557C62.6948 63.641 62.7788 63.8091 62.7788 63.8091L62.9889 64.1032C63.0519 64.2082 63.1359 64.2502 63.241 64.2082C65.2577 63.3889 65.5938 61.6663 65.3837 60.847Z" fill="white"/>
<path d="M67.7354 66.2893C67.7354 65.9531 68.1556 65.827 68.6809 65.827C69.7314 65.827 70.3407 66.1212 71.013 66.5624C71.0761 66.6044 71.1601 66.6254 71.2441 66.6044C71.3282 66.5834 71.3912 66.5414 71.4332 66.4574L72.3367 64.9026C72.4207 64.7555 72.3787 64.5664 72.2316 64.4824C71.4963 64.0412 70.4247 63.4739 68.5548 63.4739C65.8444 63.4739 64.4157 64.7555 64.6469 66.5624C65.0671 69.777 70.0676 68.6635 69.9835 69.777C69.9625 70.0291 69.5213 70.2182 68.7649 70.2182C67.7774 70.2182 66.6639 69.714 65.9495 69.2938C65.8865 69.2518 65.8024 69.2307 65.7184 69.2518C65.6343 69.2728 65.5713 69.3148 65.5293 69.3988L64.4998 71.1217C64.4157 71.2688 64.4578 71.4368 64.5838 71.5209C65.5713 72.1932 67.1891 72.6344 68.5758 72.6344C71.2862 72.6344 72.8409 71.4789 72.8409 69.5669C72.8199 66.0582 67.7564 67.1507 67.7354 66.2893Z" fill="white"/>
<path d="M63.3506 15.9058L48.6012 1.15642C47.9709 0.526109 47.1515 0.189941 46.2691 0.189941C45.3866 0.189941 44.5672 0.526109 43.9369 1.15642L31.5617 13.5316L10.9715 34.1219C9.68984 35.4035 9.68984 37.5045 10.9715 38.7862L25.7208 53.5355C26.3511 54.1658 27.1706 54.502 28.053 54.502C28.9354 54.502 29.7548 54.1658 30.3852 53.5355L48.8534 35.0673L63.3506 20.5701C64.6322 19.2885 64.6322 17.1874 63.3506 15.9058Z" fill="white"/>
<path d="M62.3016 16.9561L47.5522 2.20679C46.8379 1.49243 45.6823 1.49243 44.9679 2.20679L29.021 18.1537L46.3546 35.4874L62.3016 19.5404C63.0159 18.8261 63.0159 17.6705 62.3016 16.9561ZM49.3381 21.2213C48.4977 22.0617 47.4052 22.4819 46.3126 22.4819C45.2201 22.4819 44.1275 22.0617 43.2871 21.2213C42.4467 20.3808 42.0265 19.2883 42.0265 18.1958C42.0265 17.1032 42.4467 16.0107 43.2871 15.1703C44.1275 14.3298 45.2201 13.9096 46.3126 13.9096C47.4052 13.9096 48.4977 14.3298 49.3381 15.1703C50.1785 16.0107 50.5988 17.1032 50.5988 18.1958C50.5988 19.2883 50.1785 20.3808 49.3381 21.2213Z" fill="black"/>
<path d="M12.0245 35.1719C11.3102 35.8863 11.3102 37.0419 12.0245 37.7562L26.7739 52.5056C27.1311 52.8628 27.5933 53.0308 28.0555 53.0308C28.5178 53.0308 28.98 52.8628 29.3372 52.5056L45.2841 36.5376L27.9505 19.204L12.0245 35.1719ZM24.7989 39.4161C23.9585 40.2565 22.8659 40.6557 21.7734 40.6557C20.6809 40.6557 19.5883 40.2355 18.7479 39.4161C17.9075 38.5756 17.5083 37.4831 17.5083 36.3905C17.5083 35.298 17.9285 34.2055 18.7479 33.365C19.5883 32.5246 20.6809 32.1254 21.7734 32.1254C22.8659 32.1254 23.9585 32.5456 24.7989 33.365C25.6393 34.2055 26.0385 35.298 26.0385 36.3905C26.0385 37.4831 25.6393 38.5756 24.7989 39.4161ZM31.2911 33.5331C32.1316 32.6927 33.2241 32.2725 34.3167 32.2725C35.4092 32.2725 36.5017 32.6927 37.3422 33.5331C38.1826 34.3735 38.6028 35.4661 38.6028 36.5586C38.6028 37.6512 38.1826 38.7437 37.3422 39.5841C36.5017 40.4246 35.4092 40.8448 34.3167 40.8448C33.2241 40.8448 32.1316 40.4246 31.2911 39.5841C30.4507 38.7437 30.0305 37.6512 30.0305 36.5586C30.0515 35.4661 30.4507 34.3735 31.2911 33.5331Z" fill="black"/>
<path d="M30.4648 88.4548C30.4648 88.6229 30.5909 88.749 30.759 88.749H37.7345C37.9236 88.749 38.0496 88.6229 38.0496 88.4548V86.2487C38.0496 86.0807 37.9026 85.9546 37.7345 85.9546H34.772C34.772 85.9546 37.3143 83.0552 37.7555 82.5299C37.8815 82.3828 38.0496 82.2357 38.0496 81.8576C38.0496 81.7735 38.0496 80.3448 38.0496 80.3448C38.0496 80.1767 37.9236 80.0507 37.7345 80.0507H30.78C30.6119 80.0507 30.4859 80.1767 30.4859 80.3448V82.2147V82.5719C30.4859 82.74 30.6119 82.8661 30.78 82.8661H31.1582H33.7845C33.7845 82.8661 30.717 86.3748 30.6749 86.4378C30.5489 86.5849 30.4859 86.774 30.4859 87.0051V88.4548H30.4648Z" fill="white"/>
<path d="M39.1641 88.4548C39.1641 88.6229 39.2901 88.749 39.4792 88.749H46.4547C46.6228 88.749 46.7488 88.6229 46.7488 88.4548V86.2487C46.7488 86.0807 46.6228 85.9546 46.4337 85.9546H43.5132C43.5132 85.9546 46.0135 83.0552 46.4757 82.5299C46.6018 82.3828 46.7699 82.2357 46.7699 81.8576C46.7699 81.7735 46.7699 80.3448 46.7699 80.3448C46.7699 80.1767 46.6438 80.0507 46.4757 80.0507H39.4792C39.3111 80.0507 39.1641 80.1767 39.1641 80.3448V82.2147V82.5719C39.1641 82.74 39.2901 82.8661 39.4792 82.8661H39.8574H42.4837C42.4837 82.8661 39.4162 86.3748 39.3742 86.4378C39.2481 86.5849 39.1851 86.774 39.1851 87.0051V88.4548H39.1641Z" fill="white"/>
<path d="M52.293 86.06C51.3265 86.06 50.5491 85.2826 50.5491 84.3161C50.5491 83.3496 51.3265 82.5722 52.293 82.5722C53.2595 82.5722 54.0369 83.3496 54.0369 84.3161C54.0369 85.2826 53.2595 86.06 52.293 86.06ZM56.9783 80.0089H54.331C54.1629 80.0089 54.0158 80.156 54.0158 80.3241V80.8284C53.3015 80.177 52.398 79.7778 51.3895 79.7778C49.1204 79.7778 47.2715 81.8369 47.2715 84.4001C47.2715 86.9424 49.1204 89.0224 51.3895 89.0224C52.377 89.0224 53.3015 88.6232 54.0158 87.9719V88.4552C54.0158 88.6232 54.1629 88.7493 54.331 88.7493H56.9783C57.1464 88.7493 57.2935 88.6232 57.2935 88.4552V80.3241C57.2935 80.156 57.1464 80.0089 56.9783 80.0089Z" fill="white"/>
<path d="M29.0572 80.0299H26.4099C26.2418 80.0299 26.1157 80.177 26.1157 80.3241V88.4341C26.1157 88.6022 26.2628 88.7282 26.4099 88.7282H29.0572C29.2253 88.7282 29.3513 88.6022 29.3513 88.4341V80.3241C29.3723 80.177 29.2253 80.0299 29.0572 80.0299Z" fill="white"/>
<path d="M27.7349 75.7439C26.7265 75.7439 25.9072 76.5632 25.9072 77.5715C25.9072 78.5799 26.7265 79.3992 27.7349 79.3992C28.7432 79.3992 29.5625 78.5799 29.5625 77.5715C29.5625 76.5632 28.7432 75.7439 27.7349 75.7439Z" fill="white"/>
<path d="M20.024 82.5516H19.3516V79.7993H20.045C21.4107 79.7993 21.7889 80.4716 21.7889 81.0809C21.7889 81.8373 21.4527 82.5516 20.024 82.5516ZM23.4277 77.6142C22.3141 76.8368 21.1585 76.6687 19.3516 76.6687H15.969C15.8009 76.6687 15.6748 76.7948 15.6748 76.9628V88.4766C15.6748 88.6447 15.8009 88.7707 15.969 88.7707H18.7213H19.0575C19.2256 88.7707 19.3516 88.6447 19.3516 88.4766V88.1194V85.5771C20.9274 85.5771 22.5452 85.5561 23.7218 84.5266C24.5412 83.8123 25.1715 82.6567 25.1715 81.0809C25.1715 79.8833 24.5622 78.3916 23.4277 77.6142Z" fill="white"/>
<path d="M58.37 81.3537C58.0129 81.3537 57.6978 81.0596 57.6978 80.7025C57.6978 80.3244 57.9919 80.0303 58.37 80.0303C58.7481 80.0303 59.0422 80.3244 59.0422 80.7025C59.0422 81.0386 58.7481 81.3537 58.37 81.3537ZM58.37 80.1143C58.0549 80.1143 57.8028 80.3664 57.8028 80.6815C57.8028 80.9966 58.0549 81.2487 58.37 81.2487C58.6851 81.2487 58.9372 80.9966 58.9372 80.6815C58.9372 80.3664 58.6851 80.1143 58.37 80.1143ZM58.5591 81.0596L58.37 80.7655H58.2439V81.0596H58.1389V80.3034H58.454C58.5801 80.3034 58.7061 80.3874 58.7061 80.5344C58.7061 80.7025 58.559 80.7655 58.517 80.7655L58.7271 81.0596H58.5591ZM58.433 80.4084H58.2229V80.6815H58.433C58.496 80.6815 58.5801 80.6185 58.5801 80.5555C58.559 80.4504 58.496 80.4084 58.433 80.4084Z" fill="white"/>
</svg>
