<svg width="90" height="84" viewBox="0 0 90 84" fill="none" xmlns="http://www.w3.org/2000/svg">
<path fill-rule="evenodd" clip-rule="evenodd" d="M45.0276 0C65.0481 0 81.2775 16.2294 81.2775 36.2499C81.2918 44.5255 78.4618 52.5547 73.2616 58.9924C40.2432 56.459 27.511 57.428 16.5818 58.7088C11.5221 52.3174 8.7746 44.4016 8.78666 36.2499C8.78409 16.2294 25.0135 0 45.0276 0Z" fill="white"/>
<path fill-rule="evenodd" clip-rule="evenodd" d="M0.924316 66.1424H2.46435V70.7369L7.24232 66.1424H9.40222L3.95434 71.3901L9.43944 77.436H7.46306L2.46692 71.942V77.436H0.926882V66.1424H0.924316ZM11.1784 66.1424H13.6271C14.8462 66.1424 15.8374 66.4453 16.6006 67.0511C16.9643 67.3183 17.2588 67.6685 17.4597 68.0725C17.6606 68.4766 17.7621 68.9228 17.7556 69.374C17.7632 70.1088 17.5006 70.8208 17.0177 71.3747C16.5249 71.9522 15.7549 72.3595 14.7076 72.5965L17.9687 77.436H16.1989L13.0662 72.7826H12.721V77.436H11.181V66.1424H11.1784ZM12.7184 67.5041V71.444C14.9943 71.4928 16.1318 70.8331 16.1309 69.4651C16.1486 69.0368 16.0063 68.6174 15.7318 68.2882C15.4516 67.9756 15.0804 67.7588 14.6704 67.6684C14.2255 67.5597 13.5749 67.5049 12.7184 67.5041ZM19.5446 71.7097C19.5446 70.0798 20.159 68.6839 21.3876 67.5221C22.5759 66.3769 24.1702 65.7501 25.8203 65.7792C26.6265 65.7687 27.4267 65.9187 28.1743 66.2205C28.9219 66.5224 29.6019 66.9701 30.1748 67.5375C31.3897 68.7096 31.9976 70.1003 31.9984 71.7097C32.0144 72.5151 31.863 73.315 31.5537 74.0589C31.2444 74.8027 30.784 75.4742 30.2017 76.0308C28.9962 77.2055 27.5195 77.7928 25.7715 77.7928C24.0433 77.7928 22.5747 77.1999 21.3657 76.0141C20.78 75.4614 20.3158 74.7928 20.0027 74.0508C19.6896 73.3088 19.5345 72.5098 19.5472 71.7045L19.5446 71.7097ZM30.3647 71.7982C30.3756 71.2087 30.2612 70.6236 30.0291 70.0816C29.7971 69.5395 29.4526 69.053 29.0184 68.654C28.1201 67.8044 27.0138 67.3788 25.6997 67.377C25.1048 67.3669 24.514 67.4769 23.9627 67.7005C23.4114 67.9241 22.9109 68.2567 22.4913 68.6784C22.0664 69.0765 21.7291 69.5587 21.5006 70.0943C21.2722 70.6298 21.1576 71.207 21.1643 71.7892C21.1554 72.3779 21.2731 72.9617 21.5096 73.5008C21.7461 74.04 22.0958 74.522 22.5349 74.9142C23.4486 75.7655 24.5673 76.1933 25.8909 76.1976C26.4773 76.2044 27.059 76.0924 27.6009 75.8683C28.1429 75.6442 28.6338 75.3127 29.0441 74.8937C29.4675 74.4959 29.8038 74.0146 30.0317 73.4803C30.2597 72.946 30.3744 72.3702 30.3685 71.7892L30.3647 71.7982ZM34.0184 66.1424H35.5585V70.7369L40.3364 66.1424H42.4963L37.0433 71.3953L42.5323 77.436H40.5572L35.561 71.942V77.436H34.021V66.1424H34.0184ZM48.917 66.1424H55.1811V67.6825H50.4609V70.4777H55.1811V72.0177H50.4609V77.436H48.9209V66.1424H48.917ZM56.9573 66.1424H58.4973V77.436H56.9573V66.1424ZM61.2091 66.1424H62.7491V75.896H66.417V77.436H61.2065V66.1424H61.2091ZM77.264 65.6702L80.362 77.436H78.8669L76.9701 70.2223L73.7617 77.8724L70.5391 70.2017L68.6487 77.436H67.1446L70.2247 65.6715L73.7617 74.0903L77.2691 65.6715L77.264 65.6702ZM88.8553 67.3924L87.6066 68.3935C87.3385 68.1023 87.037 67.8438 86.7082 67.6234C86.4426 67.4566 86.055 67.3668 85.5468 67.3668C84.9924 67.3668 84.5458 67.4951 84.2005 67.7428C84.041 67.8478 83.9103 67.9911 83.8206 68.1598C83.7309 68.3284 83.685 68.5169 83.6872 68.7079C83.6908 68.8817 83.733 69.0525 83.811 69.2079C83.8889 69.3633 84.0005 69.4994 84.1376 69.6062C84.4405 69.8693 84.9513 70.1542 85.6777 70.4687C86.2651 70.7099 86.8309 71.0006 87.3692 71.3375C87.7448 71.5811 88.0807 71.8811 88.3651 72.2269C88.6134 72.5346 88.8086 72.8816 88.9426 73.2536C89.071 73.6201 89.1352 74.0061 89.1325 74.3945C89.1382 74.8434 89.0497 75.2886 88.8729 75.7012C88.6961 76.1139 88.4348 76.485 88.1058 76.7905C87.7794 77.1133 87.3915 77.3674 86.9652 77.5378C86.5389 77.7082 86.0828 77.7914 85.6238 77.7826C84.7281 77.799 83.8505 77.5292 83.1187 77.0125C82.3957 76.4941 81.8396 75.7185 81.4503 74.6858L82.9903 74.2469C83.5499 75.5174 84.4054 76.1527 85.5571 76.1527C86.0687 76.17 86.5676 75.9915 86.9521 75.6535C87.1317 75.4964 87.2746 75.3017 87.3707 75.0833C87.4667 74.8648 87.5135 74.6279 87.5078 74.3893C87.5015 74.0619 87.4008 73.7433 87.2177 73.4717C87.0325 73.1717 86.7874 72.9131 86.4978 72.712C86.0633 72.436 85.603 72.203 85.1233 72.0164C84.6203 71.8143 84.1341 71.5727 83.6692 71.2939C83.3349 71.0855 83.0356 70.8256 82.7824 70.5239C82.5531 70.2584 82.368 69.9576 82.2344 69.6332C82.118 69.3316 82.0597 69.0107 82.0625 68.6874C82.0625 67.8788 82.3871 67.1897 83.0365 66.6199C83.6907 66.0499 84.5344 65.7455 85.4018 65.7664C86.0469 65.7724 86.6842 65.9086 87.2755 66.1668C87.9012 66.4273 88.447 66.8483 88.8579 67.3873L88.8553 67.3924Z" fill="white"/>
<path fill-rule="evenodd" clip-rule="evenodd" d="M2.69195 80.958V81.275C2.50315 81.1756 2.29429 81.1203 2.08106 81.1132C1.85736 81.1074 1.64047 81.1905 1.47789 81.3443C1.39922 81.4158 1.33667 81.5033 1.29441 81.6009C1.25215 81.6984 1.23113 81.8039 1.23276 81.9102C1.23115 82.0184 1.2533 82.1256 1.29765 82.2243C1.342 82.323 1.40747 82.4107 1.48944 82.4813C1.6613 82.6357 1.88606 82.718 2.117 82.711C2.32191 82.7044 2.52165 82.6452 2.69708 82.5391V82.8586C2.51129 82.9582 2.30341 83.0094 2.09262 83.0075C1.94202 83.0105 1.79233 82.9835 1.65222 82.9282C1.51211 82.8729 1.38437 82.7904 1.2764 82.6854C1.16813 82.5868 1.08196 82.4664 1.02356 82.3322C0.965165 82.1979 0.935866 82.0528 0.93759 81.9064C0.935676 81.7619 0.964293 81.6186 1.02157 81.4859C1.07885 81.3532 1.1635 81.2341 1.26998 81.1364C1.37615 81.0328 1.50184 80.9513 1.63976 80.8966C1.77767 80.842 1.92505 80.8153 2.07336 80.8181C2.28815 80.8212 2.50018 80.867 2.69708 80.9528L2.69195 80.958ZM4.53743 80.8887H4.9866C5.18036 80.8803 5.37111 80.9387 5.5269 81.0542C5.59295 81.1028 5.64641 81.1664 5.6828 81.2399C5.71919 81.3134 5.73747 81.3945 5.73609 81.4764C5.73736 81.61 5.68939 81.7393 5.60134 81.8396C5.48966 81.9571 5.34281 82.035 5.18296 82.0617L5.77587 82.942H5.45375L4.88394 82.0963H4.82105V82.942H4.53743V80.8887ZM4.8172 81.1364V81.8525C5.23173 81.8614 5.43835 81.7408 5.43835 81.4931C5.44188 81.418 5.41818 81.3442 5.37161 81.2852C5.32067 81.2286 5.25341 81.1891 5.17911 81.1723C5.06205 81.1495 4.94284 81.1396 4.82362 81.1428L4.8172 81.1364ZM7.59055 80.8887H8.72889V81.1697H7.87161V81.6831H8.72889V81.9628H7.87161V82.6661H8.72889V82.9472H7.59055V80.8938V80.8887ZM11.2956 80.8091L12.2646 82.942H11.9732L11.7345 82.4171H10.8631L10.6257 82.942H10.3344L11.2956 80.8091ZM11.2956 81.4508L10.9684 82.1836H11.628L11.2969 81.4559L11.2956 81.4508ZM13.7006 80.8848H14.9609V81.1659H14.4707V82.9382H14.1896V81.1697H13.7019V80.8887L13.7006 80.8848ZM16.7345 80.8848H17.0143V82.9382H16.7345V80.8848ZM18.7622 80.8848H19.0574L19.6991 82.3401L20.3536 80.8848H20.6488L19.6965 83.0036L18.761 80.8848H18.7622ZM22.3736 80.8848H23.512V81.1659H22.6534V81.6792H23.512V81.959H22.6534V82.6623H23.512V82.9433H22.3736V80.8899V80.8848ZM27.1927 80.8848H27.5161C27.7008 80.8772 27.8834 80.926 28.0397 81.0247C28.1006 81.0611 28.1512 81.1125 28.1865 81.1741C28.2218 81.2357 28.2406 81.3054 28.2412 81.3763C28.2368 81.4687 28.207 81.558 28.1552 81.6345C28.1033 81.711 28.0314 81.7718 27.9473 81.8101C28.2536 81.9136 28.4067 82.0925 28.4067 82.3466C28.4073 82.4325 28.3857 82.5172 28.3438 82.5923C28.302 82.6674 28.2414 82.7304 28.168 82.7752C27.9753 82.8927 27.7517 82.9495 27.5263 82.9382H27.1888V80.8848H27.1927ZM27.4724 81.1325V81.7395C27.5962 81.7447 27.7187 81.7139 27.8254 81.651C27.8643 81.6257 27.8959 81.5908 27.9173 81.5496C27.9387 81.5085 27.949 81.4625 27.9473 81.4161C27.9483 81.3747 27.9386 81.3338 27.9193 81.2972C27.9 81.2605 27.8716 81.2295 27.8369 81.2069C27.7489 81.151 27.6458 81.1237 27.5417 81.1287C27.5187 81.1272 27.4955 81.1272 27.4724 81.1287V81.1325ZM27.4724 81.9834V82.6969H27.4942C27.733 82.6969 27.8959 82.6584 27.9819 82.5814C28.019 82.5533 28.0497 82.5176 28.0718 82.4766C28.094 82.4357 28.1071 82.3904 28.1103 82.344C28.1112 82.292 28.0982 82.2407 28.0724 82.1955C28.0467 82.1504 28.0092 82.113 27.964 82.0873C27.8427 82.017 27.7035 81.9836 27.5635 81.9911L27.4724 81.9834ZM30.9696 80.8052L31.9373 82.942H31.6446L31.4072 82.4171H30.5384L30.301 82.942H30.0122L30.9734 80.8091L30.9696 80.8052ZM30.9696 81.4469L30.6436 82.1836H31.3033L30.9722 81.4559L30.9696 81.4469ZM33.648 80.7988L35.1662 82.3568V80.881H35.446V83.0293L33.9278 81.4752V82.9343H33.648V80.8065V80.7988ZM37.3377 80.881H37.8407C38.236 80.881 38.5286 80.9849 38.7211 81.1941C38.9063 81.3855 39.0098 81.6414 39.0099 81.9076C39.0098 82.0407 38.9835 82.1725 38.9324 82.2954C38.8813 82.4183 38.8064 82.5299 38.7121 82.6238C38.5136 82.83 38.2245 82.9335 37.8446 82.9343H37.3402V80.881H37.3377ZM37.6187 81.1556V82.6533H37.6341C37.7912 82.6569 37.9483 82.6475 38.1038 82.6251C38.2115 82.6041 38.3135 82.5603 38.4028 82.4967C38.4984 82.4317 38.5757 82.3434 38.6274 82.24C38.6832 82.134 38.7119 82.0159 38.7109 81.8961C38.7135 81.7434 38.6686 81.5936 38.5825 81.4675C38.5064 81.3503 38.3949 81.2604 38.2642 81.2108C38.1026 81.1617 37.9339 81.1396 37.765 81.1453L37.6187 81.1556ZM42.5494 81.8935C42.5479 81.7502 42.5771 81.6081 42.6348 81.4769C42.6926 81.3457 42.7776 81.2283 42.8844 81.1325C43.1004 80.9242 43.3903 80.8102 43.6903 80.8155C43.8369 80.8135 43.9824 80.8407 44.1184 80.8956C44.2543 80.9505 44.378 81.0319 44.4821 81.1351C44.5874 81.2312 44.6713 81.3484 44.7284 81.4791C44.7854 81.6097 44.8144 81.751 44.8133 81.8935C44.816 82.04 44.7883 82.1854 44.732 82.3206C44.6757 82.4558 44.5919 82.5778 44.486 82.679C44.2706 82.8871 43.9828 83.0035 43.6833 83.0035C43.3837 83.0035 43.0959 82.8871 42.8805 82.679C42.774 82.5786 42.6896 82.4571 42.6326 82.3224C42.5756 82.1876 42.5473 82.0424 42.5494 81.8961V81.8935ZM44.5168 81.9089C44.5186 81.8018 44.4977 81.6956 44.4554 81.5971C44.4132 81.4987 44.3505 81.4103 44.2717 81.3378C44.1914 81.2612 44.0968 81.2013 43.9933 81.1614C43.8898 81.1215 43.7794 81.1025 43.6685 81.1055C43.5605 81.1037 43.4532 81.1237 43.3531 81.1643C43.253 81.2048 43.1621 81.2652 43.0858 81.3417C43.0085 81.4144 42.947 81.5023 42.9053 81.6C42.8635 81.6976 42.8424 81.8028 42.8433 81.9089C42.8418 82.016 42.8632 82.1221 42.9062 82.2202C42.9491 82.3183 43.0126 82.406 43.0923 82.4775C43.2578 82.6316 43.477 82.7149 43.7031 82.7098C43.8096 82.7108 43.9152 82.6904 44.0136 82.6496C44.112 82.6088 44.2011 82.5485 44.2755 82.4723C44.3522 82.3999 44.4131 82.3126 44.4546 82.2157C44.4961 82.1188 44.5173 82.0144 44.5168 81.9089ZM46.6266 80.8822H47.765V81.1633H46.9064V81.6766H47.765V81.9564H46.9064V82.9408H46.6266V80.8874V80.8822ZM53.3784 81.2095L53.1705 81.4136C53.0755 81.3162 52.9619 81.2389 52.8365 81.1862C52.711 81.1336 52.5763 81.1066 52.4403 81.1068C52.3293 81.1034 52.2188 81.1222 52.1152 81.1621C52.0117 81.202 51.9171 81.2622 51.8371 81.3391C51.7614 81.4119 51.701 81.4991 51.6595 81.5956C51.6181 81.6921 51.5963 81.7959 51.5956 81.9009C51.5949 82.0059 51.6152 82.11 51.6554 82.2071C51.6955 82.3041 51.7547 82.3921 51.8294 82.4659C51.9135 82.5491 52.014 82.6138 52.1245 82.656C52.2349 82.6982 52.353 82.7169 52.4711 82.711C52.8818 82.711 53.1384 82.5327 53.2411 82.1759H52.6828V81.8961H53.5607C53.5634 82.0084 53.5539 82.1208 53.5324 82.2311C53.5077 82.3288 53.4683 82.4223 53.4156 82.5083C53.3535 82.6114 53.2736 82.7027 53.1795 82.7778C53.0862 82.8554 52.9784 82.9138 52.8625 82.9497C52.7315 82.9867 52.5957 83.004 52.4595 83.0011C52.3026 83.0083 52.1459 82.9824 51.9997 82.9249C51.8535 82.8674 51.7212 82.7796 51.6112 82.6674C51.5098 82.5666 51.4294 82.4465 51.3748 82.3143C51.3202 82.1822 51.2923 82.0404 51.293 81.8974C51.2909 81.7536 51.3187 81.6109 51.3746 81.4784C51.4305 81.3458 51.5133 81.2263 51.6176 81.1274C51.7207 81.0243 51.8435 80.9431 51.9787 80.8887C52.1139 80.8342 52.2586 80.8076 52.4044 80.8104C52.5747 80.8082 52.7441 80.836 52.9049 80.8925C53.0793 80.9633 53.2374 81.069 53.3694 81.2031L53.3784 81.2095ZM55.3818 80.8822H56.5214V81.1633H55.6628V81.6766H56.5214V81.9564H55.6628V82.6597H56.5214V82.9408H55.3843V80.8874L55.3818 80.8822ZM58.2347 81.8948C58.2332 81.7514 58.2623 81.6094 58.3201 81.4782C58.3779 81.3469 58.4629 81.2295 58.5696 81.1338C58.6766 81.0306 58.8028 80.9495 58.9411 80.8951C59.0793 80.8407 59.227 80.8141 59.3756 80.8168C59.5222 80.8148 59.6677 80.842 59.8037 80.8969C59.9396 80.9518 60.0633 81.0332 60.1674 81.1364C60.2727 81.2325 60.3566 81.3497 60.4137 81.4804C60.4707 81.611 60.4996 81.7522 60.4985 81.8948C60.5013 82.0413 60.4736 82.1867 60.4173 82.3219C60.3609 82.457 60.2772 82.5791 60.1713 82.6802C59.9559 82.8884 59.6681 83.0048 59.3685 83.0048C59.069 83.0048 58.7812 82.8884 58.5658 82.6802C58.4593 82.5798 58.3749 82.4584 58.3179 82.3236C58.2609 82.1889 58.2326 82.0437 58.2347 81.8974V81.8948ZM60.2021 81.9102C60.2039 81.8031 60.1829 81.6968 60.1407 81.5984C60.0984 81.5 60.0358 81.4116 59.957 81.3391C59.8767 81.2625 59.7821 81.2026 59.6786 81.1627C59.5751 81.1228 59.4647 81.1038 59.3538 81.1068C59.2458 81.105 59.1385 81.125 59.0384 81.1655C58.9383 81.2061 58.8474 81.2665 58.7711 81.343C58.6938 81.4157 58.6323 81.5036 58.5906 81.6012C58.5488 81.6989 58.5277 81.8041 58.5286 81.9102C58.5271 82.0173 58.5485 82.1234 58.5914 82.2215C58.6344 82.3195 58.6978 82.4073 58.7775 82.4787C58.9426 82.6329 59.1614 82.7163 59.3871 82.711C59.4938 82.7122 59.5997 82.6918 59.6983 82.651C59.7968 82.6102 59.8862 82.5499 59.9608 82.4736C60.0374 82.4012 60.0984 82.3139 60.1399 82.217C60.1814 82.12 60.2026 82.0156 60.2021 81.9102ZM62.3838 80.8835H62.8291C63.0229 80.8751 63.2136 80.9336 63.3694 81.0491C63.4355 81.0976 63.4889 81.1613 63.5253 81.2348C63.5617 81.3082 63.58 81.3893 63.5786 81.4713C63.5817 81.604 63.536 81.7332 63.4503 81.8345C63.3386 81.9519 63.1917 82.0299 63.0319 82.0565L63.6248 82.9369H63.3027L62.7329 82.0912H62.6713V82.9369H62.3902V80.8835H62.3838ZM62.6649 81.1312V81.8473C63.0781 81.8563 63.2847 81.7357 63.2847 81.488C63.2881 81.4099 63.2619 81.3334 63.2116 81.2737C63.1608 81.2167 63.0935 81.1772 63.0191 81.1607C62.9024 81.138 62.7836 81.1281 62.6649 81.1312ZM67.4467 81.2108L67.2298 81.42C67.1347 81.3226 67.0212 81.2453 66.8957 81.1927C66.7703 81.14 66.6356 81.113 66.4995 81.1132C66.3886 81.1098 66.2781 81.1286 66.1745 81.1685C66.0709 81.2084 65.9763 81.2686 65.8964 81.3455C65.8213 81.4189 65.7617 81.5066 65.721 81.6033C65.6803 81.7001 65.6593 81.804 65.6593 81.9089C65.6593 82.0139 65.6803 82.1178 65.721 82.2146C65.7617 82.3113 65.8213 82.3989 65.8964 82.4723C65.9804 82.5556 66.0808 82.6204 66.1913 82.6626C66.3018 82.7048 66.4199 82.7235 66.538 82.7175C66.9487 82.7175 67.208 82.5391 67.3081 82.1823H66.7498V81.9025H67.6276C67.63 82.0148 67.621 82.127 67.6007 82.2375C67.576 82.3355 67.5362 82.429 67.4826 82.5147C67.4209 82.6181 67.3409 82.7094 67.2465 82.7842C67.1534 82.8615 67.0462 82.9199 66.9308 82.9562C66.7997 82.9931 66.6639 83.0104 66.5278 83.0075C66.3707 83.0148 66.2138 82.9888 66.0674 82.9313C65.921 82.8738 65.7884 82.7861 65.6782 82.6738C65.5769 82.5729 65.4968 82.4528 65.4423 82.3207C65.3879 82.1885 65.3603 82.0468 65.3612 81.9038C65.3589 81.7599 65.3865 81.6172 65.4424 81.4846C65.4983 81.352 65.5812 81.2325 65.6859 81.1338C65.7887 81.0308 65.9113 80.9496 66.0462 80.8951C66.1812 80.8407 66.3258 80.814 66.4713 80.8168C66.6417 80.8144 66.8111 80.8422 66.9718 80.8989C67.1464 80.9694 67.3046 81.0751 67.4364 81.2095L67.4467 81.2108ZM69.468 80.8835H69.7477V82.9369H69.468V80.8835ZM73.5478 80.8835H73.8725C74.056 80.8782 74.2368 80.9288 74.391 81.0285C74.4521 81.0649 74.5028 81.1163 74.5383 81.1779C74.5738 81.2394 74.5929 81.3091 74.5937 81.3802C74.589 81.4724 74.5592 81.5616 74.5074 81.6381C74.4555 81.7146 74.3838 81.7754 74.2998 81.814C74.6053 81.9175 74.758 82.0963 74.758 82.3504C74.7586 82.4364 74.7369 82.5211 74.6951 82.5962C74.6533 82.6713 74.5927 82.7343 74.5193 82.7791C74.3266 82.8966 74.103 82.9534 73.8776 82.942H73.5439V80.8887L73.5478 80.8835ZM73.8288 81.1312V81.7383C73.9522 81.7437 74.0744 81.7129 74.1805 81.6497C74.2205 81.6251 74.2534 81.5905 74.2759 81.5493C74.2984 81.5081 74.3097 81.4618 74.3088 81.4148C74.3096 81.3735 74.2998 81.3326 74.2805 81.2961C74.2612 81.2595 74.233 81.2284 74.1984 81.2057C74.1099 81.15 74.0065 81.1227 73.902 81.1274C73.8793 81.1259 73.8566 81.1259 73.834 81.1274L73.8288 81.1312ZM73.8288 81.9821V82.6969H73.8507C74.0894 82.6969 74.2511 82.6584 74.3383 82.5814C74.3755 82.5534 74.4062 82.5176 74.4283 82.4767C74.4505 82.4357 74.4636 82.3905 74.4667 82.344C74.4677 82.292 74.4546 82.2407 74.4288 82.1955C74.4031 82.1504 74.3656 82.113 74.3204 82.0873C74.1992 82.0167 74.06 81.9833 73.92 81.9911L73.8288 81.9821ZM76.6176 80.8835H76.8987V82.9369H76.6176V80.8835ZM78.7582 80.8835H80.1443L79.1651 82.661H80.125V82.942H78.7133L79.6784 81.1697H78.7544V80.8887L78.7582 80.8835ZM81.9294 80.8835H82.2105V82.9369H81.9294V80.8835ZM84.1189 80.8835H84.3999V82.1451C84.3886 82.3005 84.4342 82.4546 84.5283 82.5789C84.5771 82.6313 84.6369 82.6722 84.7035 82.6986C84.7701 82.725 84.8418 82.7363 84.9133 82.7316C84.9837 82.7364 85.0545 82.7263 85.1208 82.702C85.1871 82.6777 85.2476 82.6396 85.2983 82.5904C85.3941 82.4813 85.443 82.3388 85.4343 82.1938V80.8887H85.7102V82.1836C85.7157 82.2932 85.6995 82.4027 85.6625 82.506C85.6255 82.6093 85.5684 82.7043 85.4946 82.7855C85.4202 82.8613 85.3307 82.9205 85.2318 82.9594C85.133 82.9984 85.0271 83.016 84.921 83.0113C84.8128 83.0165 84.7048 82.9989 84.604 82.9595C84.5032 82.9202 84.4118 82.86 84.3357 82.7829C84.1767 82.5954 84.0974 82.3531 84.115 82.1079V80.8925L84.1189 80.8835ZM87.5916 80.8835H87.8727V81.7203L88.7402 80.8835H89.133L88.1422 81.8384L89.1394 82.9369H88.7813L87.8727 81.9372V82.9369H87.5916V80.8835Z" fill="white"/>
<path fill-rule="evenodd" clip-rule="evenodd" d="M46.2142 57.2684C50.4172 57.2607 67.1164 54.5451 87.6528 60.6898C73.9045 59.0085 60.0648 58.1864 46.2142 58.2284H45.0284H43.8438C29.9932 58.1864 16.1535 59.0084 2.40527 60.6898C22.9391 54.5451 39.6408 57.2607 43.8438 57.2684C44.1621 57.2684 44.56 57.2607 45.0284 57.2466C45.4981 57.2607 45.8959 57.2697 46.2142 57.2684Z" fill="white"/>
<path fill-rule="evenodd" clip-rule="evenodd" d="M49.4927 37.9533L53.2683 43.8401L56.6051 41.7007L52.8294 35.8126L49.4927 37.9533Z" fill="white"/>
<path d="M59.9217 38.9612L54.7421 34.2448L54.6971 34.2012L54.6663 34.2397L53.9605 35.0007L53.9297 35.0379L53.9759 35.0816L59.1543 39.7979L59.2005 39.8403L59.2313 39.8031L59.9371 39.042L59.9679 39.0035L59.9217 38.9612Z" fill="#000003"/>
<path d="M50.0298 18.0398C50.0485 18.0623 50.0298 17.9985 50.0298 18.0398V18.0398Z" fill="#000003"/>
<path d="M53.3776 35.3859V35.3718C52.8861 34.8263 53.144 35.0317 52.0404 34.0268L51.9865 33.978L52.2688 33.7213C51.9403 33.2208 51.7952 33.2388 51.3858 32.515C51.2986 32.4098 50.6774 31.36 50.6299 31.3125L50.105 30.3525C49.4634 29.2257 49.2144 28.5314 48.7806 27.5894C48.5021 26.8502 47.093 23.611 46.8453 23.1657L46.2896 21.9067C46.3037 21.5923 46.6015 20.8069 46.7413 20.5784C47.1264 19.9521 47.2547 20.2037 48.0247 20.0278C48.7947 19.852 48.6112 19.6839 49.5185 19.8828C49.9228 19.9714 50.6736 20.2037 51.0316 20.1998C51.3486 20.2473 51.8401 20.4039 52.1533 20.3371C52.41 20.2807 52.5781 20.0125 52.8232 19.7648C52.8976 19.6018 52.8129 19.7186 52.7655 19.4606L52.5768 19.5132L52.4485 19.4465C52.4485 19.4401 52.4279 19.426 52.4228 19.4183L52.324 19.2822C51.8363 19.3246 51.93 19.2052 51.9005 19.1539L51.9236 18.9575L51.8568 18.9639C51.8081 19.0166 51.8568 19.0191 51.7144 19.0666C51.5206 18.9627 51.586 19.0435 51.5155 18.7881L51.2729 18.8523C51.2164 18.6829 51.2511 18.6264 51.133 18.5148L51.1009 18.5494L51.0008 18.6328C50.7839 18.7381 50.8109 18.457 50.7442 18.3223C50.6611 18.3893 50.5593 18.4287 50.4528 18.4352C50.3668 18.3556 50.3707 18.3941 50.3129 18.2055L50.0563 18.2247C50.046 18.1862 50.0306 18.1079 50.0229 18.0823C50.018 18.0645 50.0141 18.0465 50.0114 18.0284C50.0031 18.0191 49.9961 18.0088 49.9908 17.9976L49.806 18.0643C49.6777 17.8076 49.8702 17.6934 49.5493 17.7178C49.507 17.7614 49.5173 17.7678 49.4518 17.8102C49.294 17.909 49.4672 17.8102 49.3004 17.8602C49.2908 17.7673 49.2657 17.6766 49.2259 17.592L48.9872 17.5997C48.9744 17.5792 48.9012 17.6626 48.9115 17.3982C48.9243 17.0787 49.1374 17.3071 49.2221 17.3443L49.2041 17.2904L49.2554 17.1197C49.3253 17.1049 49.398 17.1139 49.4621 17.1454L49.5673 17.207C49.5673 17.1967 49.5891 17.2198 49.6007 17.225L49.6276 17.2006L49.9331 16.967C50.132 17.0453 50.0332 16.9824 50.0768 17.148C50.1274 17.1286 50.1767 17.1058 50.2244 17.08L50.2411 16.908C50.5093 16.9478 50.3514 16.9349 50.5388 17.0517C50.6222 16.9606 50.6299 16.9067 50.7095 16.8194L50.9238 17.0068L51.0316 16.9734C51.0316 16.8644 51.0162 16.7694 51.0778 16.7091C51.0778 16.7091 51.0996 16.6988 51.1048 16.6962C51.2883 16.6192 51.1561 16.7065 51.2126 16.7591L51.3114 16.8425L51.3679 16.8952C51.6014 16.7219 51.4192 16.7181 51.6451 16.5576C51.7734 16.6115 51.6733 16.5576 51.7734 16.6179C51.8427 16.6667 51.8106 16.6526 51.862 16.7142C51.9274 16.6564 51.8889 16.6796 51.93 16.6321L52.0173 16.5371L52.0545 16.505L52.2457 16.7027L52.2996 16.446C52.3766 16.3715 52.3317 16.3651 52.4023 16.3651C52.451 16.5795 52.4023 16.4935 52.5935 16.6218L52.7783 16.4793L52.7693 16.2881C52.9451 16.3536 52.8874 16.4062 53.0914 16.4588C53.2082 16.111 53.0542 16.4126 53.2826 15.88C53.5393 15.2909 52.8874 15.1998 52.6512 15.0227C52.4536 14.8751 52.3291 14.8546 52.0288 14.9278C52.0198 14.9406 52.0096 14.9586 52.0031 14.9688L51.9569 15.0497C51.9492 15.0651 51.9261 15.1113 51.9172 15.1254C51.7888 15.3089 51.672 15.2935 51.3743 15.264C51.2357 15.2512 51.0984 15.2306 50.961 15.2191L50.576 15.1292C49.9729 15.1215 48.7023 14.725 48.3212 14.458C48.1659 14.4003 48.1351 14.4234 48.0645 14.2643L48.3019 14.1924C48.4803 14.1154 48.7229 14.0063 48.8153 13.8677L48.8307 13.6354L48.7806 13.5725C48.5997 13.5789 48.6998 13.5931 48.6523 13.5148C47.2739 13.3595 47.8989 13.6636 47.2816 12.3482C46.1022 9.83537 42.8617 11.7399 42.46 12.4881C41.9159 13.5045 42.3548 14.2501 42.5435 14.9701L42.333 15.1369C42.3201 15.1485 42.306 15.1652 42.2958 15.1729C42.284 15.1851 42.2715 15.1966 42.2586 15.2075L42.1828 15.2601C42.1058 15.3141 42.1597 15.2601 42.0789 15.3243C42.0127 15.3685 41.9567 15.4262 41.9146 15.4937C41.7863 15.6772 41.8222 15.7799 41.8966 15.9763L42.5447 15.948L42.7103 15.984C42.5499 16.7078 41.9852 17.8282 41.9108 18.5738C41.8761 18.7021 41.8684 18.7535 41.8427 18.8472C41.8325 18.8831 41.8158 18.9434 41.8017 18.9755C41.7375 19.1359 41.7593 19.0551 41.7272 19.1038L41.5745 19.6993L41.1715 19.6416C41.1292 19.7288 41.1241 19.5915 41.1099 19.843C41.1387 20.0578 41.149 20.2746 41.1407 20.4911C41.1215 20.7401 41.0406 21.1187 41.0458 21.3433C41.0625 22.0556 40.8789 22.1454 40.7891 22.8153C40.7869 22.89 40.7757 22.9641 40.7557 23.0361C40.6954 23.2542 40.7313 23.0938 40.6916 23.1644L40.3887 24.5081C40.3836 24.5853 40.3734 24.662 40.3579 24.7378C40.3445 24.7871 40.3233 24.8339 40.295 24.8764C40.1667 25.7478 39.9036 26.6731 39.7817 27.5984C39.7175 28.0822 39.6392 28.5699 39.5609 29.0435C39.5032 29.3951 39.353 30.2049 39.3723 30.5117L39.2157 31.2727L38.7883 34.2244C38.7716 34.3836 38.7524 34.5337 38.728 34.6916C38.7211 34.7705 38.7073 34.8486 38.6869 34.9251C38.633 35.1023 38.6395 35.0381 38.601 35.0907C38.5856 35.2704 38.4393 35.5347 38.3828 35.7888C38.3263 36.043 38.3238 36.4742 38.266 36.6872C38.2082 36.9002 38.1633 36.7321 38.1043 37.0273C38.0607 37.2506 38.1389 37.2326 37.931 37.3392C37.5999 37.5073 37.7026 37.3905 37.6603 38.0694C37.2111 38.2439 37.3048 38.3081 37.2829 38.8048C37.0019 39.0191 36.8312 38.8856 36.862 39.4195C36.7786 39.5748 36.8877 39.4439 36.7414 39.5376C36.6233 39.6146 36.7414 39.4914 36.6053 39.6158L36.3936 39.8725C36.2293 40.3717 36.1741 39.5465 35.8315 40.6169C35.594 40.6541 35.4696 40.5925 35.3733 40.7709C35.2873 40.9274 35.3117 41.0673 35.1885 41.2547C35.0127 41.3484 34.9896 41.2688 34.8458 41.4113C34.7419 41.5152 34.738 41.6192 34.5892 41.7026C34.2311 41.8964 34.2042 41.6744 33.9475 42.0876C33.9321 42.0966 33.909 42.0876 33.9 42.112C33.891 42.1364 33.8653 42.13 33.8538 42.1351C33.6189 42.248 33.7665 42.1351 33.6074 42.3353C33.5671 42.3956 33.5153 42.4474 33.455 42.4877C33.3946 42.528 33.3269 42.556 33.2557 42.5702C32.7321 42.6138 33.2314 43.0039 32.4575 43.0039C32.3895 43.0822 32.3292 43.1605 32.2804 43.2221C32.2596 43.2555 32.2345 43.2861 32.206 43.3132C32.1097 43.3954 32.1841 43.3491 32.0417 43.4069C31.7388 43.4467 31.6631 43.5737 31.613 43.8163C31.5348 43.91 31.6272 43.8689 31.468 43.9151C31.2896 43.9677 31.3179 43.8805 31.083 44.0165L30.9149 44.1128C30.6377 44.1705 30.689 44.1128 30.5222 44.2911C30.3361 44.4978 30.4195 44.4426 30.0948 44.5042L29.8689 44.6928C29.2016 45.2383 29.6302 44.5876 29.0822 45.237L28.8628 45.2447C28.4598 45.1972 28.9526 45.3396 28.3097 45.4051C28.1159 45.8466 28.0735 45.5257 27.7155 45.8106C27.2111 46.2111 27.3882 45.8697 27.0507 46.1405C26.6657 46.4498 26.8338 46.2906 26.3654 46.4472C26.0535 46.5511 26.0214 46.7655 25.7545 46.8771C25.7044 46.9362 25.7429 46.9541 25.5876 47.0157C25.5099 47.0396 25.429 47.0521 25.3477 47.0529C25.3605 47.0748 25.3887 47.1543 25.4093 47.1903C25.8623 47.2172 25.9226 47.4649 26.4231 47.3918C26.6798 47.3533 26.8389 47.4072 27.0879 47.4238C27.4575 47.4469 27.3844 47.3699 27.6603 47.3058C27.9003 47.2506 28.0312 47.3456 28.302 47.2801C28.5984 47.2082 28.4893 47.1428 28.8153 47.2275C29.3068 47.3558 29.5276 47.239 29.7534 46.9708C30.159 46.9503 30.4554 47.035 30.7455 46.8348C30.9868 46.6679 31.1716 46.5139 31.5335 46.4652C32.1572 46.3805 31.9993 46.6487 32.4318 46.1931C32.7078 45.903 32.9452 46.016 33.3687 45.9557C33.5381 45.699 33.5484 45.5989 33.9462 45.5193C33.9603 45.5116 33.9783 45.4834 33.9873 45.4962L34.1297 45.4513C34.5224 45.3961 34.3864 45.563 34.6662 45.2575L34.6995 45.2241C34.7945 45.0047 34.8612 45.0586 35.1269 45.0111C35.44 44.9559 35.3258 44.8969 35.5183 44.7365H35.7262C35.7801 44.6505 35.784 44.6338 35.8379 44.5388C35.8456 44.5517 35.8661 44.5555 35.8661 44.5773C35.8661 44.5991 35.8802 44.6094 35.8789 44.6145L35.8456 44.6877V44.6967C35.8456 44.8148 35.8802 44.7955 35.7814 44.7955L35.3964 45.613C35.6004 45.8379 35.8299 46.0382 36.0804 46.2098C35.9405 46.5948 35.5671 47.0594 35.3528 47.5149C35.1166 48.0065 35.0011 48.4338 34.729 48.8843C34.3594 49.4952 33.3173 50.6181 33.2455 51.3702L33.2249 51.605C33.1442 51.6604 33.0582 51.7076 32.9683 51.7462C32.4844 51.8835 32.4819 52.3879 32.3086 52.5663C31.6426 53.24 31.631 53.6199 31.2627 54.1807C31.1626 54.3348 30.4657 54.8455 31.5052 55.4461C32.1726 55.8312 32.2753 55.7965 33.1261 55.8992C33.5881 56.0018 33.6254 56.3843 34.1772 56.7115L34.344 56.8527C34.7521 57.2236 35.5658 57.1902 36.2293 57.189C36.5885 57.197 36.9476 57.1681 37.3009 57.103C37.7462 56.999 37.795 56.9554 37.8605 56.4728C37.7321 56.3317 37.8284 56.4164 37.7539 56.2341C37.6551 55.9929 37.4588 55.912 37.2894 55.8158L37.2509 55.7939L37.2124 55.7696L37.1354 55.7144C36.9326 55.6682 36.4667 55.5385 36.3435 55.4307C35.8866 55.0316 35.3476 53.8227 35.3335 53.0886C35.5838 52.9603 35.8597 52.7485 35.7737 52.3186C35.7134 52.2685 35.6762 52.2955 35.6454 52.2544C35.6454 51.7732 35.784 51.7693 35.9624 51.5575C36.0265 51.4805 36.0907 51.4228 36.1741 51.3278L36.3435 51.1045L36.3718 51.0712L36.4013 51.0378L36.966 50.1061C37.0596 49.8609 37.016 49.9687 37.17 49.775C37.2111 49.7211 37.2464 49.663 37.2752 49.6017C37.2855 49.5876 37.3099 49.5452 37.3214 49.5324C37.392 49.4477 37.3304 49.5131 37.4293 49.4413C37.6243 49.3412 38.7126 47.968 38.8795 47.6754C38.9222 47.5904 38.9815 47.5149 39.054 47.4534L39.1823 47.5111C39.6597 47.5188 40.1269 47.6176 40.662 47.6253C41.1972 47.633 41.6656 47.583 42.1764 47.5547C42.3625 47.4585 42.4729 47.4726 42.6898 47.4469C43.2031 47.3905 43.651 47.2698 44.2093 47.2236C44.8163 47.1723 45.3194 47.2454 45.8661 47.2236C46.0868 47.2236 46.2819 47.2403 46.3486 47.3597C46.3717 47.4033 46.4693 47.7665 46.5039 47.8846C46.5424 48.3081 46.9569 49.2629 47.1225 49.6364C47.2508 49.9264 47.4177 50.1497 47.5203 50.4064C47.6258 50.7261 47.6997 51.0553 47.7411 51.3894C47.8874 51.5473 47.8309 51.5781 47.8938 51.691L48.3763 52.0966C48.7126 52.275 48.633 52.1774 48.642 52.9102L48.6279 53.0565L48.7665 53.2567C48.9205 53.4197 48.8948 53.2452 48.977 53.4929C48.9968 53.5724 49.0123 53.6529 49.0232 53.7341C49.1181 53.7598 49.2529 53.7945 49.3017 53.8111L49.2298 53.9292L49.1977 53.9626C49.0976 54.2462 49.172 54.8186 49.2182 55.1446C49.2439 55.3268 49.276 55.5129 49.3158 55.6964C49.4184 56.1712 49.0694 56.7975 50.3065 56.7231C50.6682 56.6903 51.0207 56.5906 51.3461 56.4292C51.4911 56.2521 51.4462 56.3471 51.6489 56.2174C51.7563 56.1295 51.8784 56.0613 52.0096 56.016C53.4482 56.1546 53.6189 56.0942 54.6866 55.4872C55.0369 55.295 55.3653 55.0652 55.6659 54.8019C56.3807 54.1499 55.8661 53.1194 54.43 53.7303C53.4854 54.132 51.7721 52.7254 51.708 52.4277C51.622 52.0298 51.6938 52.017 51.4513 51.795L51.1009 51.8283C51.0239 51.913 51.2293 51.8784 50.9187 51.9079L50.9893 51.3163C50.9564 51.2882 50.9212 51.2628 50.884 51.2406L50.7724 51.1597L50.3707 51.0801L50.0422 50.0047C49.9369 49.8956 50.0422 50.1202 49.9331 49.8494C49.9331 49.8494 49.8907 49.6941 49.8869 49.6787C49.8509 49.5414 49.8112 49.4079 49.7816 49.2783C49.7893 48.7868 49.2478 47.7306 49.2683 47.1877C49.7572 47.1197 51.3833 46.6577 51.7067 46.392L50.5517 42.7986C50.4952 42.7331 50.5144 42.7986 50.4477 42.651C50.4217 42.5941 50.4027 42.5342 50.3912 42.4726C50.381 42.1556 49.7239 40.3871 49.5699 39.9354C49.2747 39.0717 48.9616 38.2529 48.71 37.4085C48.4334 36.5166 48.2148 35.6078 48.0555 34.6877C47.9734 34.1821 47.9272 33.661 47.8668 33.1477C47.8065 32.6343 47.5011 31.8476 47.4267 31.3176C47.6115 31.7026 48.4957 33.3428 48.71 33.5712C48.9462 33.8279 49.8959 35.0984 50.0434 35.2948L50.1538 35.2563H50.1615H50.1731H50.1808H50.191H50.2013L50.2359 35.2421H50.2436H50.2552H50.2667L50.2937 35.2319H50.3027H50.3104H50.3168L50.3591 35.2126H50.372H50.3822L50.4297 35.1908L50.4528 35.1805H50.4631H50.4721H50.4785H50.4862L50.5093 35.169L50.5209 35.1626H50.5324L50.544 35.1562H50.5517H50.5581H50.5658H50.576H50.5876H50.5991H50.6081H50.6158H50.6235H50.6325H50.6428L50.653 35.1497H50.6633H50.671H50.6774H50.6851H50.6954H50.7057H50.7159H50.7236H50.7313H50.7403L50.8532 35.1985L50.8674 35.2062L50.8802 35.2152L50.8917 35.2229L50.9033 35.2306L50.9136 35.2383L50.9238 35.246H50.9341L50.9431 35.2524L50.9521 35.2601H50.9598L50.9675 35.2665L50.9739 35.2729V35.2819V35.2999V35.3102V35.3166V35.323V35.3294V35.3358V35.3435V35.3499V35.3576V35.3653V35.373L50.9803 35.3807V35.3897V35.3987L50.988 35.4077L50.9957 35.4167L51.0034 35.4257L51.0124 35.4359L51.0226 35.4462L51.0329 35.4577L51.0432 35.4693C51.192 35.6233 51.1138 36.392 51.2767 36.6988L49.1759 38.0476L52.9515 43.9344L56.2883 41.795L53.6138 37.053L53.6677 36.854L56.7233 41.6179L56.7644 41.6821L57.7141 41.0725L53.864 35.0702L53.3776 35.3859Z" fill="#000003"/>
<path fill-rule="evenodd" clip-rule="evenodd" d="M54.1482 35.6917L53.8608 35.2426L53.1294 35.7122L54.1482 35.6917Z" fill="white"/>
<path fill-rule="evenodd" clip-rule="evenodd" d="M56.4932 41.0681L56.7806 41.5172L57.512 41.0488L56.4932 41.0681Z" fill="white"/>
<path fill-rule="evenodd" clip-rule="evenodd" d="M55.7451 39.9005L56.0415 40.3624L57.1361 40.347L56.832 39.8735L55.7451 39.9005Z" fill="white"/>
<path fill-rule="evenodd" clip-rule="evenodd" d="M54.9932 38.7338L55.2973 39.2086L56.3841 39.1817L56.0877 38.7197L54.9932 38.7338Z" fill="white"/>
<path fill-rule="evenodd" clip-rule="evenodd" d="M54.2549 37.5788L54.5513 38.0408L55.6369 38.0125L55.3417 37.5519L54.2549 37.5788Z" fill="white"/>
<path fill-rule="evenodd" clip-rule="evenodd" d="M53.5059 36.4105L53.8036 36.8724L54.8891 36.8455L54.5927 36.3835L53.5059 36.4105Z" fill="white"/>
<path fill-rule="evenodd" clip-rule="evenodd" d="M55.1223 34.7234L54.7271 34.3616L54.1445 35.007L55.1223 34.7234Z" fill="white"/>
<path fill-rule="evenodd" clip-rule="evenodd" d="M58.7734 39.3163L59.1687 39.6782L59.764 39.025L58.7734 39.3163Z" fill="white"/>
<path fill-rule="evenodd" clip-rule="evenodd" d="M57.751 38.3767L58.1539 38.7514L59.2048 38.4396L58.7878 38.0739L57.751 38.3767Z" fill="white"/>
<path fill-rule="evenodd" clip-rule="evenodd" d="M56.7266 37.458L57.1308 37.834L58.1804 37.5221L57.7775 37.1475L56.7266 37.458Z" fill="white"/>
<path fill-rule="evenodd" clip-rule="evenodd" d="M55.7065 36.5187L56.1095 36.8921L57.1591 36.5816L56.7433 36.2146L55.7065 36.5187Z" fill="white"/>
<path fill-rule="evenodd" clip-rule="evenodd" d="M54.6753 35.5878L55.091 35.9535L56.1368 35.6635L55.7249 35.276L54.6753 35.5878Z" fill="white"/>
<path d="M53.379 35.3713C53.5945 35.6023 53.8024 36.4466 53.6779 36.8534L52.3447 36.3838L52.858 35.5574L53.379 35.3713Z" fill="#000003"/>
</svg>
