<svg width="77" height="76" viewBox="0 0 77 76" fill="none" xmlns="http://www.w3.org/2000/svg">
<path fill-rule="evenodd" clip-rule="evenodd" d="M25.8402 0.0274058C25.8402 0.0575129 28.6024 3.63033 28.9096 3.99758L29.1009 4.22633L41.4952 4.22925L53.8895 4.23217L54.7205 5.30761C55.7354 6.62117 58.0309 9.57995 58.7493 10.5005C59.0392 10.8719 60.4255 12.6561 61.8299 14.4654C63.2344 16.2746 64.7494 18.2255 65.1965 18.8006C65.6436 19.3757 67.0766 21.2188 68.3808 22.8962C69.685 24.5737 70.7624 25.9708 70.7751 26.0008C70.7877 26.0309 70.6918 26.1878 70.562 26.3494C70.4322 26.511 69.4773 27.7217 68.44 29.0397C67.4027 30.3577 66.0364 32.0928 65.4038 32.8956C64.7713 33.6984 63.0957 35.8257 61.6803 37.623C60.265 39.4203 59.0883 40.9143 59.0654 40.943C59.0362 40.9798 59.3234 41.3804 60.0337 42.2937C60.5891 43.0078 61.2496 43.8605 61.5014 44.1885C61.7533 44.5165 61.9789 44.7797 62.0028 44.7734C62.0407 44.7634 62.6974 43.9375 65.142 40.8254C65.4713 40.4061 66.7358 38.7983 67.9518 37.2527C69.8796 34.8024 76.641 26.1992 76.7363 26.0753C76.7568 26.0487 76.4733 25.6474 76.0438 25.095C75.6438 24.5806 73.611 21.9638 71.5264 19.2799C69.4418 16.596 67.2185 13.7334 66.5856 12.9186C65.9528 12.1039 65.1984 11.1333 64.9091 10.7619C64.6198 10.3904 63.927 9.49834 63.3695 8.77943C62.8121 8.06052 62.187 7.25665 61.9804 6.99305C61.7739 6.72944 60.4673 5.04815 59.0768 3.25689L56.5487 0H41.1945C32.7496 0 25.8402 0.0123304 25.8402 0.0274058ZM3.06455 22.417C1.57735 24.3341 0.335676 25.932 0.305262 25.9679C0.258579 26.0232 0.389085 26.2118 1.14943 27.1879C1.91555 28.1715 4.66464 31.709 10.9351 39.7801C13.6379 43.2592 16.9057 47.4647 18.8333 49.945C19.931 51.3574 20.8486 52.5143 20.8725 52.516C20.8964 52.5177 21.2283 52.117 21.6101 51.6255C21.9919 51.1341 22.9964 49.8412 23.8424 48.7524C24.6884 47.6636 26.1415 45.7925 27.0715 44.5943C28.0016 43.3961 28.9992 42.1119 29.2884 41.7404C29.5775 41.369 29.9585 40.8788 30.1349 40.6512C30.3114 40.4235 31.5297 38.855 32.8423 37.1655C37.5486 31.1081 38.2762 30.1705 38.3789 30.0301C38.4362 29.9519 38.4973 29.8931 38.5146 29.8994C38.5319 29.9058 38.7366 30.1561 38.9694 30.4557C39.2022 30.7552 39.9105 31.667 40.5432 32.4817C41.176 33.2965 42.6989 35.2571 43.9275 36.8388C45.1561 38.4204 47.4401 41.3614 49.0033 43.3743C50.5664 45.3873 52.1275 47.3969 52.4724 47.8403C52.8172 48.2836 53.1163 48.6682 53.1369 48.6949C53.1612 48.7262 52.7864 49.2428 52.0782 50.1545C51.4752 50.9305 50.563 52.1047 50.051 52.7637C49.5391 53.4227 48.6403 54.5795 48.0538 55.3344C45.6369 58.445 44.8679 59.4352 42.2841 62.7631C40.7957 64.6802 39.3452 66.5477 39.0607 66.9132C38.7763 67.2787 38.5272 67.5777 38.5072 67.5777C38.4872 67.5777 37.6557 66.5434 36.6595 65.2793C35.6632 64.0152 34.4148 62.432 33.8852 61.761C33.3556 61.09 32.5285 60.0411 32.0471 59.43C31.5658 58.8189 30.6079 57.6033 29.9185 56.7286C29.2291 55.854 28.2328 54.5893 27.7045 53.9183C27.1762 53.2474 26.731 52.6942 26.7151 52.6892C26.6992 52.6842 26.5486 52.8606 26.3802 53.0814C26.2119 53.302 25.553 54.1532 24.9159 54.9729C24.2789 55.7925 23.7577 56.4756 23.7577 56.4908C23.7577 56.506 24.0846 56.9333 24.4841 57.4405C24.8836 57.9476 25.3278 58.5114 25.4711 58.6934C26.1328 59.5335 27.0474 60.6933 27.581 61.3689C27.9027 61.7763 29.9429 64.3643 32.1147 67.1202C35.4591 71.364 36.5157 72.7124 38.2854 74.9955C38.3922 75.1333 38.494 75.246 38.5117 75.246C38.5294 75.246 39.3014 74.2706 40.2273 73.0784C41.1532 71.8862 42.5352 70.1069 43.2984 69.1244C44.0616 68.1419 44.9521 66.9949 45.2775 66.5755C45.6028 66.1562 46.2279 65.3523 46.6666 64.7892C47.1052 64.226 48.0423 63.0202 48.7489 62.1096C49.4555 61.199 51.4271 58.6599 53.1304 56.4672C54.8336 54.2745 56.8775 51.6431 57.6724 50.6195C58.4672 49.596 59.1176 48.7458 59.1176 48.7302C59.1176 48.7146 58.9453 48.4835 58.7347 48.2166C58.5241 47.9497 58.1394 47.4569 57.8798 47.1214C57.6202 46.7859 57.086 46.0996 56.6927 45.5964C56.2994 45.0932 54.2108 42.407 52.0512 39.6273C49.8918 36.8475 47.683 34.0045 47.1429 33.3096C41.3362 25.8377 39.4427 23.4 38.9739 22.7927C38.7404 22.4902 38.533 22.2427 38.5131 22.2427C38.4802 22.2427 37.9227 22.953 35.2128 26.4472C34.7203 27.0823 33.9287 28.1018 33.4536 28.7129C32.1315 30.4136 30.6982 32.2583 27.9017 35.8584C24.6867 39.9975 23.9091 40.9984 22.2509 43.1321C21.5164 44.0773 20.896 44.8516 20.8723 44.8529C20.8485 44.8542 20.5851 44.5406 20.2868 44.156C19.768 43.4872 18.9031 42.3738 15.4491 37.928C14.5926 36.8257 13.3819 35.267 12.7586 34.4642C12.1353 33.6614 11.13 32.3673 10.5246 31.5885C6.97509 27.0221 6.22959 26.058 6.22959 26.0338C6.22959 26.0075 6.84862 25.205 9.28837 22.0684C10.5152 20.4912 15.8682 13.6001 18.9851 9.58548C19.9061 8.39928 21.2205 6.70714 21.9061 5.82519C22.6666 4.84686 23.1403 4.20132 23.1213 4.16951C23.0816 4.10311 20.3941 0.638785 20.2694 0.49326L20.1763 0.384552C14.4715 7.72801 8.76439 15.0696 3.06455 22.417ZM38.7788 11.1289C37.6267 11.5197 36.6731 11.8504 36.6597 11.8639C36.6388 11.8848 36.0385 16.6079 36.0539 16.6302C36.057 16.6347 36.3631 16.2524 36.7342 15.7806C37.486 14.8247 40.8412 10.5531 40.9072 10.4678C40.9304 10.4378 40.9323 10.4145 40.9114 10.4158C40.8907 10.4172 39.931 10.7381 38.7788 11.1289Z" fill="white"/>
</svg>
