<svg width="110" height="28" viewBox="0 0 110 28" fill="none" xmlns="http://www.w3.org/2000/svg">
<path fill-rule="evenodd" clip-rule="evenodd" d="M29.1842 21.1086C29.1842 22.623 29.1104 24.2666 27.3929 25.781C25.8785 27.1106 23.9763 27.3323 22.5728 27.3323C21.1692 27.3323 19.2671 27.1106 17.7527 25.781C16.0537 24.2666 15.9613 22.623 15.9613 21.1086V6.22363C15.9613 4.70927 16.0352 3.06564 17.7527 1.55129C19.2671 0.221613 21.1692 0 22.5728 0C23.9763 0 25.8785 0.221613 27.3929 1.55129C29.0919 3.06564 29.1842 4.70927 29.1842 6.22363V21.1086ZM20.3013 20.9424C20.3013 21.5519 20.3382 22.2721 20.726 22.8077C21.2616 23.5279 22.0926 23.6018 22.5913 23.6018C23.0899 23.6018 23.9209 23.5279 24.4565 22.8077C24.8443 22.2721 24.8813 21.5519 24.8813 20.9424V6.37137C24.8813 5.76194 24.8443 5.04169 24.4565 4.50613C23.9209 3.78589 23.0899 3.71202 22.5913 3.71202C22.0926 3.71202 21.2616 3.78589 20.726 4.50613C20.3382 5.04169 20.3013 5.76194 20.3013 6.37137V20.9424ZM8.99905 26.943L4.47446 11.2639L4.32672 11.3008L4.51139 14.2926V26.9245H0.189941V0.386367H4.97309L9.40534 15.3822H9.51615L9.29454 12.5566V0.367899H13.616V26.943H8.99905ZM36.0556 0.387869H31.7341V26.9629H36.0556V0.387869ZM37.9515 26.9445V22.7708L45.8372 4.09988H39.2627V0.387869H50.4542V4.30303L42.5684 23.2325H50.4542V26.9445H37.9515ZM63.6471 0.387869H52.5665V26.926H64.2196V23.214H56.8879V14.1833H62.1327V10.4713H56.8879V4.09988H63.6471V0.387869ZM82.166 26.9445L79.045 6.94391H78.8603L79.0819 10.4713V26.9445H74.7604V0.387869H81.5935L84.1421 17.5444H84.2898L86.8383 0.387869H93.6714V26.9629H89.35V10.4713L89.5716 6.94391H89.3869L86.2658 26.9445H82.166ZM107.672 25.6147C109.038 24.322 109.26 22.8815 109.26 21.4041H109.297V16.9349H104.976V21.3117C104.976 21.8288 104.976 22.4013 104.551 22.9369C104.108 23.5094 103.424 23.6202 102.889 23.6202C102.39 23.6202 101.67 23.5463 101.097 22.9738C100.558 22.3993 100.56 21.8248 100.562 21.2194C100.562 21.1826 100.562 21.1456 100.562 21.1086V6.18665C100.562 5.54027 100.599 4.7831 101.208 4.24753C101.504 3.97052 102.002 3.71197 102.796 3.71197C103.406 3.71197 103.923 3.85971 104.348 4.3214C104.883 4.8939 104.883 5.4664 104.883 6.07584V9.34463H109.205V6.42673C109.205 5.06011 108.965 3.08407 107.266 1.56971C106.231 0.664792 104.717 0.0184208 102.741 0.0184208C101.06 0.0184208 99.4352 0.35084 97.9947 1.68052C96.5358 3.01019 96.2034 4.37681 96.2034 6.0389V20.6099C96.2034 22.309 96.3696 24.1003 98.0317 25.6147C99.3244 26.7782 101.19 27.3137 102.815 27.3137C104.828 27.3137 106.564 26.6304 107.672 25.6147Z" fill="white"/>
</svg>
