<svg width="78" height="52" viewBox="0 0 78 52" fill="none" xmlns="http://www.w3.org/2000/svg">
<path fill-rule="evenodd" clip-rule="evenodd" d="M13.4531 18.2325C13.947 18.6199 14.5376 18.7748 15.2154 18.6973C15.8448 18.6199 16.3483 18.3681 16.7259 17.9421C17.1035 17.5257 17.2972 17.0028 17.2972 16.3735C17.2972 16.2476 17.2972 16.1217 17.2778 15.9765L15.6608 2.67232C15.564 1.92675 15.2638 1.36515 14.77 0.977835C14.2762 0.590524 13.6855 0.445282 13.0077 0.54211C12.3977 0.600207 11.8942 0.842276 11.5069 1.25864C11.1196 1.67499 10.9259 2.20755 10.9259 2.85629V2.85631C10.9259 2.98218 10.9259 3.10805 10.9453 3.23392L11.4875 7.6299L5.29055 8.38516L4.74831 3.98918C4.67085 3.26297 4.38037 2.71105 3.88654 2.32374C3.39272 1.93643 2.80207 1.78151 2.12428 1.85897C1.4949 1.93643 0.991393 2.18818 0.613764 2.60454C0.236136 3.03058 0.0424805 3.55345 0.0424805 4.18283C0.0424805 4.30871 0.0521632 4.44427 0.061846 4.57983L1.67887 17.884C1.7757 18.6295 2.07586 19.1911 2.56969 19.5785C3.06351 19.9658 3.65416 20.111 4.33195 20.0142C4.94197 19.9561 5.44547 19.714 5.83278 19.2977C6.22009 18.8813 6.41375 18.3487 6.41375 17.7C6.41375 17.5741 6.41375 17.4482 6.39438 17.3224L5.8231 12.7811L12.0201 12.0259L12.5914 16.5671C12.6688 17.2933 12.9593 17.8452 13.4531 18.2325ZM30.4822 19.7137L24.4982 18.5518C23.9172 18.4453 23.4428 18.1742 23.0651 17.7578C22.6972 17.3414 22.5132 16.8379 22.5132 16.257C22.5132 16.102 22.5326 15.9374 22.581 15.7631L25.0598 3.00124C25.3406 1.54882 26.1152 0.822612 27.374 0.822612C27.5676 0.822612 27.7516 0.841978 27.9453 0.871026L33.6872 1.98455C34.2972 2.11042 34.7619 2.37186 35.0815 2.77853C35.401 3.18521 35.5559 3.6403 35.5559 4.16317C35.5559 4.77319 35.3429 5.30574 34.9169 5.75115C34.4908 6.19655 33.968 6.40958 33.3579 6.40958C33.1836 6.40958 33.019 6.39021 32.8641 6.36116L29.3396 5.67368L28.9135 7.89104L32.1282 8.53011C32.7382 8.65598 33.2127 8.91742 33.5419 9.32409C33.8711 9.72109 34.0357 10.1859 34.0357 10.7087C34.0357 11.3381 33.8227 11.8707 33.387 12.3064C32.9513 12.7421 32.4187 12.9551 31.7893 12.9551C31.6344 12.9551 31.4698 12.9358 31.2955 12.9067L28.0615 12.2677L27.616 14.6303L31.3246 15.3661C31.9249 15.4727 32.38 15.7341 32.6995 16.1311C33.019 16.5378 33.174 16.9929 33.174 17.5157C33.174 18.1257 32.9609 18.6583 32.5446 19.1037C32.1282 19.5491 31.6054 19.7621 30.976 19.7621L30.9614 19.7612C30.8108 19.7518 30.651 19.7419 30.4822 19.7137ZM45.2806 16.7993C45.4258 15.1145 45.4742 13.8654 45.4258 13.0423L49.3764 18.7552C49.7927 19.3555 50.3737 19.6847 51.1289 19.7525C51.8067 19.8106 52.3974 19.617 52.8815 19.1716C53.3657 18.7261 53.6368 18.1839 53.6852 17.5545C53.7336 17.051 53.569 16.5475 53.1914 16.0634L50.1897 12.2387C51.3517 11.9966 52.3006 11.5222 53.0461 10.7959C53.8692 10.0116 54.3339 9.00463 54.4405 7.77492L54.4415 7.74587C54.4508 7.48511 54.4598 7.23336 54.4598 6.99061C54.4598 5.25739 53.9176 3.9018 52.8331 2.92384C51.8067 2.01366 50.364 1.47143 48.4855 1.29714L44.351 0.938874C43.6054 0.871094 43.0051 1.04538 42.5403 1.44238C42.0756 1.84905 41.8044 2.42034 41.7463 3.15623L40.5844 16.3926C40.5069 17.1188 40.6715 17.7191 41.0782 18.2033C41.4849 18.6777 42.0271 18.9488 42.7049 19.0166C43.3924 19.0844 43.9927 18.9101 44.4866 18.5131C44.9804 18.1064 45.2515 17.5448 45.2806 16.7993ZM46.2585 5.57693L48.0982 5.74153C49.1633 5.83836 49.6572 6.37091 49.5507 7.33919C49.4732 8.35588 48.9019 8.81097 47.8271 8.71415L45.9874 8.54954L46.2585 5.57693ZM67.4971 19.4529C65.2604 19.1044 63.4691 18.0974 62.1328 16.4319C60.845 14.8052 60.1963 12.8687 60.1963 10.6126C60.1963 10.0606 60.2447 9.48936 60.3415 8.90839C60.6998 6.57485 61.6777 4.67702 63.256 3.19556C64.844 1.72377 66.7225 0.987883 68.9205 0.987883C69.4046 0.987883 69.8984 1.02661 70.3826 1.10408C72.5999 1.45266 74.3816 2.45966 75.6984 4.14447C77.0249 5.81959 77.6834 7.77551 77.6834 9.99287C77.6834 10.5448 77.635 11.0967 77.5381 11.6486C77.1799 13.9628 76.2019 15.8606 74.6333 17.3421C73.055 18.8236 71.1669 19.5595 68.9592 19.5595C68.4751 19.5691 67.9812 19.5304 67.4971 19.4529ZM69.6951 5.50974C69.4918 5.46133 69.2884 5.44196 69.0851 5.44196C68.049 5.44196 67.1776 5.83895 66.4804 6.62326C65.7832 7.40756 65.3378 8.43394 65.1345 9.6927C65.0667 10.0897 65.0377 10.477 65.0377 10.874C65.0377 11.9972 65.3088 12.9267 65.8413 13.682C66.3739 14.4373 67.1582 14.8924 68.1846 15.057C68.4073 15.1054 68.6203 15.1247 68.8236 15.1247C69.8597 15.1247 70.7408 14.7181 71.4477 13.9241C72.1061 13.1688 72.5418 12.1521 72.7452 10.874C72.8033 10.4964 72.842 10.1187 72.842 9.74111C72.842 8.61791 72.5806 7.68837 72.0577 6.93311C71.4864 6.13912 70.7021 5.66466 69.6951 5.50974ZM70.2414 49.6141C70.8708 50.6114 71.5196 51.173 72.178 51.3183C72.3813 51.3473 72.5847 51.3667 72.7783 51.3764C74.0371 51.3764 74.773 50.7857 74.9957 49.6044C75.0247 49.4592 75.0441 49.3236 75.0441 49.1784C75.0441 48.6555 74.7923 47.9971 74.2888 47.2128L70.3383 41.0642L75.0538 37.9076C76.0995 37.2395 76.6805 36.5617 76.8064 35.9033C76.8354 35.7677 76.8548 35.6128 76.8548 35.4579C76.8548 34.8285 76.6224 34.2863 76.1576 33.8408C75.6928 33.3858 75.1409 33.1631 74.5115 33.1631C74.008 33.1631 73.5045 33.347 73.0204 33.7053L67.3463 37.7914L68.0338 34.2475C68.0628 34.0732 68.0822 33.8989 68.0822 33.7247C68.0822 33.0662 67.8498 32.524 67.3753 32.0979C66.9009 31.6719 66.3296 31.4589 65.6518 31.4589C65.0805 31.4589 64.5867 31.6332 64.1703 31.9818C63.754 32.3303 63.5022 32.7854 63.4054 33.3567L60.7814 46.7577C60.7523 46.932 60.7329 47.0966 60.7329 47.2515C60.7329 47.9099 60.9653 48.4522 61.4495 48.8782C61.9336 49.3042 62.5049 49.5173 63.1633 49.5173C63.7346 49.5173 64.2284 49.343 64.6448 48.9944C65.0611 48.6458 65.3323 48.2004 65.4388 47.6485L66.2909 43.2331L70.2414 49.6141ZM45.887 47.9389C46.0322 46.2541 46.0807 45.005 46.0322 44.182L49.9828 49.8948C50.3992 50.4952 50.9801 50.8244 51.7354 50.8922C52.4132 50.9503 53.0038 50.7566 53.488 50.3112C53.9721 49.8658 54.2432 49.3236 54.2917 48.6942C54.3401 48.1907 54.1755 47.6872 53.7978 47.203L50.7962 43.3783C51.9581 43.146 52.907 42.6618 53.6526 41.9356C54.4756 41.1513 54.9404 40.1443 55.0469 38.9146L55.048 38.8855C55.0573 38.6248 55.0663 38.373 55.0663 38.1303C55.0663 36.3971 54.524 35.0415 53.4396 34.0635C52.4132 33.1533 50.9705 32.6111 49.092 32.4368L44.9575 32.0785C44.2119 32.0108 43.6115 32.185 43.1468 32.582C42.682 32.9887 42.4109 33.56 42.3528 34.2959L41.1909 47.5322C41.1134 48.2585 41.278 48.8588 41.6847 49.3429C42.0914 49.8174 42.6336 50.0885 43.3114 50.1563C43.9989 50.2241 44.5992 50.0595 45.093 49.6528C45.5868 49.2461 45.858 48.6845 45.887 47.9389ZM46.865 36.7166L48.7047 36.8812C49.7795 36.9683 50.2636 37.5106 50.1668 38.4885C50.0893 39.5052 49.518 39.9603 48.4433 39.8635L46.6035 39.6989L46.865 36.7166ZM33.6283 51.0376C32.6987 50.9602 32.05 50.5244 31.6917 49.7401C31.5949 49.5368 31.3915 48.7428 31.0817 47.3485L25.3882 46.8547C24.8557 48.1425 24.5168 48.8881 24.3715 49.072C23.8874 49.7982 23.1806 50.1178 22.2704 50.0403C21.641 49.9725 21.1084 49.7111 20.6824 49.2463C20.2563 48.7815 20.0724 48.2296 20.1402 47.5809C20.1595 47.3001 20.2467 46.9805 20.421 46.632L26.2597 34.2186C26.5792 33.5699 27.0149 33.0567 27.5959 32.6597C28.1672 32.2627 28.8256 32.0981 29.5421 32.1659C31.0236 32.2918 31.9725 33.1632 32.3986 34.7706L35.894 47.9876C36.0005 48.4136 36.049 48.7719 36.0393 49.072C35.9715 49.7014 35.7101 50.1952 35.2356 50.5632C34.7612 50.9214 34.2286 51.086 33.6283 51.0376ZM28.9418 38.0627C28.6126 39.06 28.0219 40.5512 27.1699 42.5555L30.0263 42.7879L28.9418 38.0627ZM8.05938 45.1309L10.0637 44.7726C11.642 44.4918 12.9395 43.7947 13.9756 42.7005C14.9922 41.6064 15.4958 40.2798 15.4958 38.7209C15.4958 38.3433 15.457 37.9463 15.3989 37.5396C15.1181 35.9613 14.4016 34.7122 13.259 33.802C12.1165 32.8822 10.7415 32.4271 9.15353 32.4271C8.69844 32.4271 8.23367 32.4658 7.75921 32.5433L3.64403 33.2792C2.28844 33.5212 1.61064 34.2862 1.61064 35.574C1.61064 35.7483 1.63001 35.9226 1.65906 36.0969L3.97324 49.1686C4.08944 49.8174 4.35087 50.3112 4.76723 50.6694C5.19327 51.0277 5.67741 51.202 6.2487 51.202C6.93617 51.202 7.51714 50.989 7.98191 50.5629C8.44669 50.1369 8.67907 49.585 8.67907 48.8878C8.67907 48.7135 8.65971 48.5392 8.63066 48.3649L8.05938 45.1309ZM6.63601 37.1136L8.437 36.8037C8.56288 36.7747 8.68876 36.7553 8.81463 36.7747C9.36655 36.7747 9.81196 36.978 10.1605 37.3847C10.4607 37.7623 10.6059 38.2271 10.6059 38.7984C10.6059 39.8054 10.1024 40.396 9.09543 40.5703L7.29444 40.8995L6.63601 37.1136Z" fill="white"/>
</svg>
