<svg width="103" height="44" viewBox="0 0 103 44" fill="none" xmlns="http://www.w3.org/2000/svg">
<path fill-rule="evenodd" clip-rule="evenodd" d="M4.19145 23.9952C4.15955 24.059 4.12765 24.1228 4.12765 24.1866H11.7834C11.4963 23.8676 11.3687 23.5167 11.4644 23.1658C11.6558 22.3364 12.1343 21.7303 12.8361 21.3156C13.6336 20.9009 14.7182 20.7096 16.0898 20.7096C17.5253 20.7096 18.5779 21.0285 19.2478 21.6346C19.3435 21.7782 19.4472 21.9137 19.5509 22.0493C19.6545 22.1849 19.7582 22.3205 19.8539 22.464C20.2686 23.6443 21.098 24.2185 22.4058 24.2185H26.8398C27.3821 21.4751 26.8717 19.2422 25.3087 17.5515C23.5861 15.9885 20.9385 15.191 17.3658 15.191C14.0802 15.191 11.2093 15.9885 8.75302 17.5515C6.36058 19.2422 4.82943 21.4113 4.19145 23.9952ZM35.8992 24.1866L38.0045 15.7971L39.1529 11.1717C39.3762 10.2785 39.2167 9.48106 38.7063 8.81118C38.1959 8.1413 37.4622 7.79041 36.5053 7.79041H32.805L28.69 24.1866H35.8992ZM46.7449 15.7971L37.3027 24.1866H45.4051L55.3895 15.7971H46.7449ZM62.4711 7.79041H58.7708L57.3354 13.4047H64.5446L65.0869 11.2674C65.3102 10.3104 65.1826 9.48106 64.6722 8.81118C64.1618 8.1413 63.4281 7.79041 62.4711 7.79041ZM60.4296 15.7971H56.7293L54.5921 24.1866H61.7375L63.0134 19.2741C63.2686 18.3171 63.141 17.4877 62.6306 16.8179C62.1202 16.148 61.3866 15.7971 60.4296 15.7971ZM71.371 5.20658H67.6707L62.7901 24.2185H69.9674L73.9229 8.84308C74.21 7.82231 74.0824 6.96103 73.572 6.25925C73.0616 5.55747 72.328 5.20658 71.371 5.20658ZM80.9726 0.453613H77.2723L71.1477 24.1866H78.325L83.4288 4.5367C83.7159 3.38833 83.6202 2.43136 83.1418 1.63388C82.6633 0.836403 81.9296 0.453613 80.9726 0.453613ZM79.601 24.0909C79.593 24.1228 79.585 24.1547 79.5691 24.1866H87.2568C86.9378 23.8676 86.8421 23.5167 86.9378 23.1658C87.161 22.3364 87.6076 21.7303 88.3413 21.3156C89.1388 20.9009 90.2234 20.7096 91.595 20.7096C93.0305 20.7096 94.0832 21.0285 94.753 21.6346C94.8487 21.7782 94.9524 21.9137 95.0561 22.0493C95.1598 22.1849 95.2634 22.3205 95.3591 22.464C95.7419 23.6443 96.5713 24.2185 97.8792 24.2185H102.281C102.855 21.4751 102.377 19.2422 100.846 17.5515C99.1551 15.9885 96.5075 15.191 92.9348 15.191C89.6492 15.191 86.7464 15.9885 84.2901 17.5515C81.8658 19.2422 80.3027 21.4113 79.6329 23.9952C79.6169 24.0271 79.6089 24.059 79.601 24.0909ZM45.4563 39.7255C45.4705 39.741 45.4771 39.7481 45.4832 39.7477C45.4885 39.7474 45.4934 39.7413 45.5026 39.7299C45.5218 39.7061 45.5596 39.6592 45.6588 39.5931C45.5367 39.5076 45.504 39.4551 45.4918 39.4355C45.4899 39.4325 45.4885 39.4302 45.4874 39.4288C45.4863 39.4274 45.4854 39.4267 45.4845 39.4267C45.4827 39.4267 45.4809 39.4297 45.4773 39.4355C45.4651 39.4551 45.4324 39.5076 45.3103 39.5931C45.3944 39.6584 45.4344 39.7018 45.4563 39.7255ZM10.4144 43.5174C13.7 43.5174 16.4433 43.039 18.6443 42.082H3.42846C5.02342 43.039 7.35205 43.5174 10.4144 43.5174ZM48.5338 43.007L48.2148 42.082H39.634L39.9211 43.007H48.5338ZM31.1488 43.007L31.3721 42.082H24.1629L23.9396 43.007H31.1488ZM56.9233 43.007L57.1785 42.082H50.0012L49.746 43.007H56.9233ZM65.1213 43.007L65.3765 42.082H58.1992L57.944 43.007H65.1213ZM73.4151 43.007L73.6703 42.082H66.493L66.2378 43.007H73.4151ZM85.5687 43.5174C88.8543 43.5174 91.5976 43.039 93.8306 42.082H78.6147C80.2096 43.039 82.5064 43.5174 85.5687 43.5174ZM23.1704 38.6048C23.0747 38.7164 22.979 38.836 22.8834 38.9556C22.7877 39.0753 22.692 39.1949 22.5963 39.3065H1.06435C0.968656 39.0832 0.904858 38.8599 0.84106 38.6048H23.1704ZM47.0629 38.6048L47.2862 39.3065H38.8329L38.6415 38.6048H47.0629ZM32.0703 39.3065H24.893L25.0525 38.6048H32.2298L32.0703 39.3065ZM57.8767 39.3065H50.6994L50.8908 38.6048H58.0681L57.8767 39.3065ZM66.0748 39.3065H58.8975L59.0889 38.6048H66.2662L66.0748 39.3065ZM74.3685 39.3065H67.1912L67.3826 38.6048H74.5599L74.3685 39.3065ZM98.4205 38.6048C98.361 38.6741 98.3015 38.7466 98.2411 38.8203C98.107 38.9836 97.9683 39.1526 97.8144 39.3065H76.2825C76.1868 39.0832 76.123 38.8599 76.0911 38.6048H98.4205ZM4.09515 27.2174C3.90376 26.4837 3.87186 25.6224 3.99945 24.6974H12.4846C13.2502 25.1439 14.4943 25.5586 16.1211 25.9414C16.3261 26.0098 16.5129 26.069 16.6862 26.1239L16.6865 26.124C16.8366 26.1716 16.9767 26.216 17.11 26.2604C17.3971 26.3242 17.6842 26.3561 17.9713 26.3561C18.992 26.6432 19.9171 26.9303 20.7146 27.2174H4.09515ZM35.7391 24.6974L35.452 25.8138L36.7279 24.6974H44.7984L42.9802 26.2285L43.2992 27.2174H27.9238L28.5618 24.6974H35.7391ZM61.6412 24.6974L61.0032 27.2174H53.8259L54.4639 24.6974H61.6412ZM69.8392 24.6974L69.2012 27.2174H62.0239L62.6619 24.6974H69.8392ZM78.1968 24.6974L77.5588 27.2174H70.3815L71.0195 24.6974H78.1968ZM79.5047 27.2174C79.3133 26.4837 79.2814 25.6224 79.4409 24.6974H87.8941C88.6597 25.1439 89.8719 25.5586 91.5306 25.9414C91.7358 26.0098 91.9226 26.069 92.096 26.124C92.2461 26.1716 92.3863 26.216 92.5195 26.2604C92.8066 26.3242 93.0937 26.3561 93.3489 26.3561C94.3696 26.6432 95.2947 26.9303 96.0922 27.2174H79.5047ZM4.98923 28.8757C5.37202 29.3542 5.88241 29.8008 6.61609 30.2155H24.99C24.8624 29.9284 24.671 29.6413 24.4796 29.3861C24.0649 28.9395 23.5226 28.5248 22.8208 28.142H4.47885C4.63834 28.3972 4.79784 28.6524 4.98923 28.8757ZM44.257 30.2474L43.5872 28.1739H27.6695L27.1591 30.2474H44.257ZM60.2066 30.2474L60.7489 28.1739H53.5397L53.0293 30.2474H60.2066ZM68.4047 30.2474L68.947 28.1739H61.7697L61.2274 30.2474H68.4047ZM76.7303 30.2474L77.2726 28.1739H70.0953L69.553 30.2474H76.7303ZM80.3668 28.8757C80.7177 29.3542 81.26 29.8008 81.9618 30.2155H100.336C100.208 29.9284 100.017 29.6413 99.8253 29.3861C99.4425 28.9395 98.9002 28.5248 98.1984 28.142H79.8565L79.8565 28.1421C80.016 28.3973 80.1755 28.6524 80.3668 28.8757ZM16.0274 33.2458C15.517 33.0225 14.879 32.8311 14.1453 32.6716C12.9651 32.4802 12.1038 32.2569 11.5296 32.0655C11.168 31.9751 10.8064 31.8687 10.4675 31.769C10.328 31.7279 10.1924 31.688 10.0622 31.6508H25.4376C25.5014 32.1612 25.5014 32.6716 25.4376 33.2458H16.0274ZM44.7685 31.6508L45.3108 33.2458H37.0489C36.7618 32.4483 36.4428 31.9379 36.0919 31.6508H44.7685ZM34.6884 31.6508C34.1461 31.906 33.859 32.2569 33.7314 32.6716L33.5719 33.2458H26.3946L26.8093 31.6508H34.6884ZM59.8568 31.6508L59.4421 33.2458H52.2648L52.6795 31.6508H59.8568ZM68.0548 31.6508L67.6401 33.2458H60.4628L60.8775 31.6508H68.0548ZM76.3805 31.6508L75.9658 33.2458H68.7885L69.2032 31.6508H76.3805ZM91.3412 33.2458C90.8308 33.0225 90.1928 32.8311 89.4591 32.6716C88.2789 32.4802 87.4176 32.2569 86.8434 32.0655C86.5553 31.9935 86.2774 31.9113 86.004 31.8305C85.7929 31.768 85.5845 31.7064 85.376 31.6508H100.751C100.815 32.1612 100.783 32.6716 100.72 33.2458H91.3412ZM8.21178 36.2764C8.05229 35.9255 7.95659 35.5427 7.95659 35.128H0.843089C0.747392 35.5108 0.715493 35.8936 0.683594 36.2764H8.21178ZM17.7496 35.447C17.6539 35.7341 17.5263 36.0212 17.3668 36.2764H24.5122L24.5123 36.2763C24.6717 35.8936 24.8312 35.5108 24.9588 35.128H17.7815C17.7815 35.2237 17.7815 35.3513 17.7496 35.447ZM46.2993 36.2764L45.9165 35.128H37.6547L37.9737 36.2764H46.2993ZM32.8379 36.2764L33.125 35.128H25.9477L25.6606 36.2764H32.8379ZM58.6762 36.2764L58.9633 35.128H51.786L51.4989 36.2764H58.6762ZM66.8742 36.2764L67.1613 35.128H59.984L59.6969 36.2764H66.8742ZM75.1999 36.2764L75.487 35.128H68.3097L68.0226 36.2764H75.1999ZM83.4937 36.2764C83.3342 35.9255 83.2385 35.5427 83.2385 35.128H76.125C76.0612 35.5108 75.9974 35.8936 75.9655 36.2764H83.4937ZM93.0315 35.447C92.9677 35.7341 92.8401 36.0212 92.6487 36.2764H99.826L99.8262 36.2759C99.9857 35.8933 100.145 35.5107 100.273 35.128H93.0953C93.0794 35.1759 93.0714 35.2317 93.0634 35.2875C93.0554 35.3434 93.0475 35.3992 93.0315 35.447Z" fill="white"/>
</svg>
