<svg width="121" height="32" viewBox="0 0 121 32" fill="none" xmlns="http://www.w3.org/2000/svg">
<path fill-rule="evenodd" clip-rule="evenodd" d="M59.4379 0C60.6885 0 61.7721 0.715277 62.3018 1.75906L60.9428 6.04533C60.494 6.28404 59.9817 6.4193 59.4379 6.4193C57.6653 6.4193 56.2282 4.98229 56.2282 3.20965C56.2282 1.43701 57.6653 0 59.4379 0ZM33.3988 31.3832C31.5161 31.3832 29.9484 31.1434 28.6643 30.6651L25.5008 12.3107C26.9812 10.2894 29.522 9.27231 33.3988 9.27231C34.6642 9.27231 35.7872 9.38065 36.7774 9.59689L35.3041 14.3557C34.9363 14.2948 34.5174 14.2652 34.041 14.2652H32.7571C29.6188 14.2652 28.9769 15.549 28.9769 18.616V22.1823C28.9769 25.2493 29.6188 26.5332 32.7571 26.5332H34.041C37.1793 26.5332 37.8213 25.2493 37.8213 22.1823V18.616C37.8213 16.6359 37.5537 15.3991 36.5195 14.7711L38.0131 9.94667C41.5134 11.193 42.9565 14.1635 42.9565 18.8299V21.8256C42.9565 28.1736 40.2859 31.3832 33.3988 31.3832ZM24.5214 14.1865L27.2411 29.9665C24.8541 28.4543 23.8412 25.7352 23.8412 21.8256V18.8299C23.8412 17.029 24.0561 15.4806 24.5214 14.1865ZM0.737305 9.70069H5.73009V26.5332H17.1418V31.526H5.73009V31.5263H0.737305V9.70069ZM68.6337 9.70109H63.6409V21.9691H63.6412C63.6412 25.3211 63.4271 26.5336 59.219 26.5336L59.2049 26.5336L57.7768 31.3317C58.2329 31.3662 58.7132 31.3837 59.219 31.3837C66.7082 31.3837 68.634 27.5321 68.634 21.9688H68.6337V9.70109ZM56.4828 31.1787L57.8812 26.4806C54.9629 26.2151 54.7968 24.9225 54.7968 21.9688H54.7952V9.7029H49.8024V21.9709H49.804C49.8044 26.7827 51.246 30.3135 56.4828 31.1787ZM106.355 9.70028L101.659 22.8244H107.036L109.435 16.1205H109.864L112.723 24.1087L106.576 24.1087L106.576 24.1082H101.2L98.545 31.5265H103.922L104.79 29.1015H114.509L115.377 31.5265H120.754L112.943 9.70028H106.355ZM75.4755 10.8917L75.4853 10.8851V9.70105H77.2436L77.244 9.70075H79.8972L87.6097 21.1537V9.70162H92.6025V29.9581H92.5929V31.5252H88.1746L88.1728 31.5264L88.1719 31.5252H88.1714V31.5244L80.4702 20.0882V31.5263H75.4774V12.674L75.4755 12.6711V10.8917Z" fill="white"/>
</svg>
