<svg width="75" height="72" viewBox="0 0 75 72" fill="none" xmlns="http://www.w3.org/2000/svg">
<path fill-rule="evenodd" clip-rule="evenodd" d="M19.1267 0.155881C37.2583 6.86536 54.4314 14.6132 54.4314 22.4409C54.4314 26.6348 48.8094 28.6213 42.7901 30.7483C35.8549 33.1988 28.3922 35.8358 28.3922 42.2499C28.3922 56.5475 70.007 71.1645 74.0806 71.8834C58.2654 63.7362 33.3444 49.7581 33.3444 42.2499C33.3444 39.5369 37.7709 37.9614 42.9569 36.1155C50.291 33.5051 59.144 30.3541 59.144 22.6806C59.144 9.5811 33.7438 2.47225 19.1267 0.155881ZM14.9732 42.6517L14.9732 45.2073L12.4176 45.2073L12.4176 42.6517L14.9732 42.6517ZM13.8549 36.8987L13.8549 34.3427L10.9798 34.3427L10.9798 32.9049L8.74327 32.9049L8.74327 34.3427L3.63134 34.3427L3.6309 34.3427C1.31482 34.3428 0.11685 34.9819 0.11685 37.2981C0.11685 38.4483 0.542845 39.3216 0.75585 39.6144L2.83259 39.6144C2.67284 39.4547 2.43322 38.8956 2.43322 37.9371C2.43322 36.9789 3.15165 36.8988 3.6309 36.8987L3.63134 36.8987L8.74327 36.8987L8.74327 39.6143L10.9798 39.6143L10.9798 36.8987L13.8549 36.8987ZM10.9798 3.35293L10.9798 0.796935L0.436295 0.796935L0.436294 3.35293L6.78668 3.35293C7.72827 3.42783 8.9028 4.36058 8.9028 5.58456C8.9028 7.42293 6.98581 7.50281 5.70781 7.50281L5.70781 10.0588L6.70069 10.0588C7.65507 10.0775 8.9028 10.8762 8.9028 12.4547C8.9028 14.2931 6.98581 14.3729 5.70781 14.3729L5.70781 16.9289L6.98581 16.9289C9.46193 16.9289 11.1393 15.7308 11.1393 13.4145C11.1393 11.6897 10.5857 10.4759 9.2854 9.6076C10.443 9.06494 11.1393 8.03672 11.1393 6.54431C11.1393 4.70131 10.0859 3.65282 9.55054 3.35293L10.9798 3.35293ZM10.9798 64.8551L10.9798 62.2991L0.436292 62.2991L0.436292 64.8551L10.9798 64.8551ZM10.9798 42.6517L10.9798 45.2077L0.436293 45.2077L0.436293 42.6517L10.9798 42.6517ZM5.70758 7.50416L5.70758 10.0602L0.435844 10.0602L0.435844 7.50416L5.70758 7.50416ZM5.70781 71.888L5.70781 71.8828L0.436299 71.8828L0.436299 69.3268L5.70804 69.3268L5.70804 69.332C6.98604 69.3319 8.9028 69.0922 8.9028 67.3351C8.9028 65.5782 7.62524 64.8591 6.66681 64.859L9.5418 64.859C10.4204 65.498 11.1393 66.3766 11.1393 68.1339C11.1393 70.6898 9.46193 71.888 6.98581 71.888L5.70781 71.888ZM5.70758 14.378L5.70758 16.934L0.435844 16.934L0.435844 14.378L5.70758 14.378ZM5.54806 30.9919C2.50423 30.9919 0.0367038 28.4529 0.0367039 25.3208C0.0367041 22.1887 2.50423 19.6497 5.54806 19.6497C8.5919 19.6497 11.1393 22.1887 11.1393 25.3208C11.1393 28.4529 8.5919 30.9919 5.54806 30.9919ZM5.62813 28.4326C3.73125 28.4326 2.2734 27.0379 2.2734 25.3175C2.2734 23.5971 3.73125 22.2024 5.62813 22.2024C7.52502 22.2024 8.98288 23.5971 8.98288 25.3175C8.98288 27.0379 7.52502 28.4326 5.62813 28.4326ZM0.0367027 53.7565C0.0367025 56.8886 2.50422 59.4276 5.54806 59.4276C8.5919 59.4276 11.1393 56.8886 11.1393 53.7565C11.1393 50.6245 8.5919 48.0854 5.54806 48.0854C2.50422 48.0854 0.0367028 50.6245 0.0367027 53.7565ZM2.27391 53.7524C2.27391 55.4729 3.73176 56.8675 5.62865 56.8675C7.52553 56.8675 8.98339 55.4729 8.98339 53.7524C8.98339 52.032 7.52553 50.6373 5.62865 50.6373C3.73176 50.6373 2.27391 52.032 2.27391 53.7524Z" fill="white"/>
</svg>
