<svg width="140" height="19" viewBox="0 0 140 19" fill="none" xmlns="http://www.w3.org/2000/svg">
<path fill-rule="evenodd" clip-rule="evenodd" d="M132.276 18.8261C127.885 18.8261 125.51 16.0188 125.51 13.0317C125.51 11.1961 126.518 9.28866 127.885 8.46088C127.058 7.6331 126.662 6.48141 126.662 5.29373C126.662 2.16257 129.505 0.61499 132.276 0.61499C135.048 0.61499 137.891 2.16257 137.891 5.29373C137.891 6.48141 137.495 7.6331 136.667 8.46088C138.035 9.28866 139.042 11.1961 139.042 13.0317C139.042 16.0188 136.667 18.8261 132.276 18.8261ZM132.277 10.6204C131.131 10.6204 130.055 11.4247 130.046 12.8514C130.055 14.2781 131.131 15.0825 132.277 15.0825C133.424 15.0825 134.499 14.2781 134.508 12.8514C134.499 11.4247 133.424 10.6204 132.277 10.6204ZM130.621 5.54539C130.621 4.86168 131.089 4.14199 132.277 4.14199C133.464 4.14199 133.932 4.86168 133.932 5.54539C133.932 6.2291 133.5 6.9488 132.277 6.9488C131.053 6.9488 130.621 6.2291 130.621 5.54539ZM117.013 0.686206C113.954 0.686206 110.283 1.87389 110.283 6.51664C110.283 9.89973 112.299 12.491 116.366 12.3471L112.623 18.6814H117.661C119.341 15.8981 122.772 10.1876 123.06 9.68378C123.42 9.03596 123.708 7.99224 123.708 6.6606C123.708 3.16954 121.512 0.686206 117.013 0.686206ZM116.938 4.50081C115.792 4.50081 114.717 5.30517 114.707 6.73186C114.717 8.15856 115.792 8.96292 116.938 8.96292C118.085 8.96292 119.16 8.15856 119.169 6.73186C119.16 5.30517 118.085 4.50081 116.938 4.50081ZM86.0686 0.686665C81.9657 0.686665 76.9991 3.42193 76.9991 9.68424C76.9991 16.0905 82.0737 18.6818 86.0686 18.6818C91.7551 18.6818 94.0585 14.7949 94.3824 11.6997H89.9556C89.6677 13.2473 88.3 14.5789 86.0686 14.5789C83.1174 14.5789 81.6778 11.9516 81.6778 9.68424C81.6778 7.16492 83.1174 4.78956 86.0686 4.78956C88.1563 4.78956 89.3686 5.92224 89.919 7.45284H94.2744C94.0585 3.85381 90.7114 0.686665 86.0686 0.686665ZM0.84082 18.5392V17.8194L8.75869 0.688025H10.7022L18.62 17.8194V18.5392H14.2292L9.73043 8.24599L5.23164 18.5392H0.84082ZM19.9872 17.8187V18.5385H25.0258L28.049 13.3559H30.3524V18.5385H34.8872V0.903295H27.0773C24.162 0.903295 20.8509 2.99073 20.8509 6.91368C20.8509 9.90087 22.1826 11.4485 23.4422 12.2762L19.9872 17.8187ZM27.1857 4.93297C25.782 4.93297 25.2422 6.19263 25.2422 7.09239C25.2422 7.99214 25.782 9.25181 27.1857 9.25181H30.3528V4.93297H27.1857ZM39.3504 0.902836H43.9572V18.5381H39.3504V0.902836ZM53.9611 0.902836H49.3568H49.3544H43.9583V5.07771H49.3544V18.5381H53.9611V0.902836ZM63.1042 0.902836H58.4975V9.54051V11.6999V18.5381H60.0811L68.932 9.90307V18.5383H73.5387V9.90041H73.5414V0.902836H71.9579L63.1043 9.54051L63.1042 0.902836ZM102.691 13.3559C104.798 13.3559 106.506 11.7606 106.506 9.79281C106.506 7.825 104.798 6.22977 102.691 6.22977C100.584 6.22977 98.8763 7.825 98.8763 9.79281C98.8763 11.7606 100.584 13.3559 102.691 13.3559Z" fill="white"/>
</svg>
