<svg width="88" height="88" viewBox="0 0 88 88" fill="none" xmlns="http://www.w3.org/2000/svg">
<path d="M30.3579 55.4052V50.9664H33.2907L39.3147 27.98H48.0337L54.0577 50.9664H56.9112V55.4052H51.2042L45.6558 32.8151H45.4973L45.5765 41.2963H41.6926L41.7719 32.8151H41.6926L36.1442 55.4052H30.3579ZM40.1073 0H42.0097V6.34108L41.9304 11.3347C41.9304 11.4932 42.2475 11.5725 42.2475 11.3347L45.418 0.0792635H47.3203L47.1618 16.249H45.4973V9.9872L45.8143 4.9936L45.6558 4.83507H45.5765C45.4973 4.83507 45.418 4.83508 45.418 4.9936L42.2475 16.249H40.4244L40.1073 0.0792635V0ZM26.157 83.5438L31.6261 68.3252L33.2114 68.8007L31.0713 74.7455L29.2482 79.4221L29.3275 79.5806H29.5653L36.2234 69.9104L37.888 70.4653L32.8944 85.8424L31.2298 85.2876L33.2114 79.3428L34.9552 74.587L34.8759 74.4285L34.6382 74.5077L27.9008 84.1779L26.157 83.5438ZM74.5077 74.5077L63.173 63.0145L65.7887 60.0025L78.9465 69.5141L77.8368 70.8616L76.093 69.5934H75.8552L74.1114 71.575V71.8128L75.6967 73.398L74.5077 74.5077ZM74.5077 68.4044L66.0265 62.0633L65.3131 62.856L72.7639 70.386H73.0017L74.587 68.6422V68.4044H74.5077ZM56.4356 67.8496L60.6366 65.1546L61.5878 65.3131L67.5325 74.1114L67.2947 75.1418L64.5205 76.9649C64.4412 76.9649 64.362 77.1234 64.5205 77.2027L66.6606 80.5317L65.0754 81.5622L56.3564 67.8496H56.4356ZM60.6366 67.0569L58.8135 68.1666V68.4044L63.4108 75.5381C63.4108 75.6967 63.5694 75.6967 63.6486 75.6174L65.4717 74.4285C65.6302 74.4285 65.6302 74.2699 65.5509 74.1907L60.7951 67.0569C60.7951 67.0569 60.7159 66.9777 60.6366 67.0569ZM17.9136 78.7087L22.2731 73.081V72.8432L20.45 71.4957H20.2915L15.8527 77.2027L14.3467 76.0137L24.4924 63.3316L25.8399 64.362L21.4012 70.069V70.2275L23.145 71.575H23.3827L27.7422 65.7887L29.169 66.8984L19.4196 79.8184L17.8343 78.6294L17.9136 78.7087ZM14.3467 11.0969L19.4196 7.29224L29.169 20.2122L27.98 21.1634L19.0232 9.74941H18.7855L16.8039 11.2554V11.4932L25.7606 22.8279L24.5717 23.7791L14.3467 11.0969ZM26.157 3.56686L32.2603 1.50601L37.4124 16.8039L35.8271 17.3587L31.0713 3.72539C31.0713 3.56686 31.0713 3.56686 30.9128 3.56686L28.5349 4.35949C28.4556 4.43876 28.3763 4.51802 28.4556 4.59728L33.2907 18.2306L31.7054 18.7855L26.157 3.56686ZM16.1698 42.0097L0 40.1073L0.713372 34.8759L2.29864 35.1137L1.82306 38.5221C1.82306 38.6013 1.82306 38.6806 1.98159 38.6806L16.3283 40.4244L16.1698 42.0097ZM1.7438 30.8335L3.4876 26.157L4.43876 25.6814L14.2674 29.6446L14.6638 30.5957L13.6333 33.2907L17.5965 34.7967L16.9624 36.382L1.66453 30.8335H1.7438ZM4.51802 27.9008L3.88391 29.486C3.88391 29.6446 3.88391 29.7238 4.04244 29.7238L12.0481 32.7358L12.2858 32.6566L12.8407 31.0713L12.7614 30.8335L4.75581 27.8215L4.51802 27.9008ZM69.1971 33.4492L75.0626 29.0104V28.7727L74.9833 28.3763C74.9833 28.2971 74.8248 28.2178 74.7455 28.2971L68.1666 31.1506L67.5325 29.7238L82.3548 23.0657L83.0682 24.651L76.4893 27.5044L76.41 27.7422L76.5686 28.1386L76.8064 28.2178L84.4157 27.663L85.129 29.4068L76.5686 29.8031L69.9104 35.1137L69.1178 33.5285L69.1971 33.4492ZM58.1002 4.1217L56.5149 3.56686C56.3564 3.56686 56.2771 3.56686 56.2771 3.72539L53.5029 11.8103L53.5821 11.9688L55.1674 12.5236L55.4052 12.4444L58.1794 4.35949V4.1217H58.1002ZM50.0153 16.8039L55.0882 1.58527L59.7647 3.17054L60.2403 3.96318L56.6734 14.0296L55.7223 14.426L52.948 13.4748L51.6006 17.438L50.0153 16.9624V16.8039ZM10.3043 71.6542L7.45077 68.0081L20.45 58.2587L23.0657 61.667L21.7975 62.6182L20.3707 60.7159H20.1329L15.7734 64.0449V64.2035L17.0417 65.868L15.7734 66.8192L14.5052 65.2339C14.5052 65.0754 14.3467 65.0754 14.2674 65.2339L9.9872 68.4044V68.6422L11.5725 70.7031L10.3043 71.6542ZM65.7887 27.1874L63.0145 24.0168L75.3796 13.3955L78.3124 16.8831V17.9928L73.2395 22.1145L72.1298 21.956L72.0505 23.0657L66.7399 27.3459L65.7887 27.1874ZM70.7823 21.6389L69.9897 20.6085H69.7519L65.4717 24.1754V24.4132L66.2643 25.3643H66.5021L70.7823 21.8767V21.6389ZM76.3308 17.0417L75.4589 15.932H75.2211L71.1786 19.3403V19.5781L71.9713 20.6085H72.2091L76.3308 17.2794V17.0417ZM71.0201 41.0585L73.081 40.5829C73.2395 40.5829 73.2395 40.5037 73.2395 40.4244L72.9224 38.2843C72.9224 38.205 72.9224 38.1258 72.7639 38.1258L70.6238 38.2843L70.386 36.699L86.635 35.4308L87.1899 39.3147L71.2579 42.6438L71.0201 41.0585ZM85.0498 37.2539L74.6662 38.0465L74.5077 38.1258L74.8248 40.0281C74.8248 40.1866 74.8248 40.1866 74.9833 40.1866L85.2083 37.9672C85.2876 37.9672 85.3668 37.9672 85.3668 37.8087L85.2876 37.4124C85.2876 37.2539 85.2083 37.2539 85.0498 37.2539ZM57.4661 19.8159L57.3075 18.8647L65.4717 6.49961L66.5021 6.34108L69.6726 8.56046L69.9897 9.59089L61.5085 21.7182L60.5573 21.8767L57.4661 19.8159ZM67.9288 9.27383L66.5814 8.32267C66.5814 8.24341 66.4228 8.24341 66.4228 8.32267L59.2891 18.8647V19.1025L60.6366 19.9744H60.8744L68.0081 9.43236C68.1666 9.43236 68.0874 9.27383 68.0081 9.27383H67.9288ZM21.956 26.7911L20.5293 28.7727L19.1818 27.98L19.8159 27.1081V26.8703L18.0721 25.2058H17.8343L16.8831 26.5533L6.34108 20.45L7.37151 19.1025L16.249 24.4132H16.4868L16.6453 24.1754V23.9376L9.27383 16.4868L10.3043 15.0601C14.1089 19.0232 17.9928 22.9864 21.8767 26.7911H21.956ZM3.80465 61.5085L16.6453 55.0089C16.8039 54.9296 16.8039 54.8504 16.7246 54.7711L16.5661 54.3748C16.5661 54.2163 16.4868 54.2163 16.3283 54.2163L2.6157 58.655L1.82306 56.9112L17.5172 52.1554L18.944 55.8015L4.51802 63.3316L3.72539 61.5878L3.80465 61.5085ZM49.6982 70.3067L54.137 68.9593L54.6126 70.4653L51.9969 71.2579C51.9176 71.2579 51.8383 71.3372 51.9176 71.4957L56.1978 85.2876L54.3748 85.8424L49.6982 70.3067ZM44.9424 87.1899V80.0562C44.9424 79.8976 44.8632 79.8184 44.7839 79.8184H42.5645C42.4853 79.8184 42.406 79.8184 42.406 79.9769V87.1106H40.4244L40.5829 70.9409H42.3267V78.0746C42.3267 78.2331 42.3267 78.2331 42.4852 78.2331H44.6254C44.7046 78.2331 44.7839 78.2331 44.7839 78.0746V70.9409H46.5277L46.7655 87.1106H44.8632L44.9424 87.1899ZM79.9769 65.1546L80.294 64.5205L80.2147 64.2827L67.6118 57.0697L69.5141 53.1858L83.1474 58.1794L83.3852 58.1002L83.7023 57.4661L85.129 58.1002L81.4036 65.9473L79.9769 65.1546ZM70.2275 55.3259L69.8312 56.1186L69.9104 56.2771L81.0073 62.6182H81.1659L82.4341 60.0025L82.3548 59.7647L70.4653 55.2467L70.2275 55.3259Z" fill="white"/>
</svg>
